<svg width="51" height="51" viewBox="0 0 51 51" fill="none" xmlns="http://www.w3.org/2000/svg">
<path fill-rule="evenodd" clip-rule="evenodd" d="M30.9688 5.85815V11.2041L41.9062 44.9207H45.8125V46.4832H42.4109L43.5977 50.1479L42.1134 50.6309L40.7679 46.4832H35.9111L36.9655 50.1746L35.4625 50.6042L34.2852 46.4832H30.1875V44.9207H33.8389L31.161 35.5457H19.839L17.1611 44.9207H20.8125V46.4832H16.7148L15.5375 50.6042L14.0345 50.1746L15.0889 46.4832H10.2321L8.88509 50.6309L7.40079 50.1479L8.58907 46.4832H5.1875V44.9207H9.09375L14.1631 29.2957H6.75V32.4207H5.1875V29.2957H0.5V27.7332H5.1875V19.9207H0.5V18.3582H5.1875V15.2332H6.75V18.3582H17.7108L20.0312 11.2041V5.85815H16.9062V4.29565H20.0312V1.17065H21.5938V4.29565H29.4062V1.17065H30.9688V4.29565H34.0938V5.85815H30.9688ZM29.4062 5.85815H21.5938V10.5457H29.4062V5.85815ZM6.75 19.9207V27.7332H14.6705L17.2038 19.9207H6.75ZM10.7383 44.9207H15.5352L16.6514 41.0144H12.0055L10.7383 44.9207ZM32.339 33.9832L33.9015 39.4519H38.4875L29.6195 12.1082H21.3805L12.5125 39.4519H17.0985L18.661 33.9832H32.339ZM34.3478 41.0144L35.464 44.9207H40.2655L38.9937 41.0144H34.3478ZM48.9375 1.17065V17.4846L47.375 16.7033V1.17065H45.8125V16.7957L45.0312 17.3816L44.25 16.7957V1.17065H42.6875V16.7033L41.125 17.4846V1.17065H39.5625V18.9754L45.0312 27.634L50.5 18.9754V1.17065H48.9375ZM45.0312 24.7073L43.4882 22.2644H46.5743L45.0312 24.7073ZM42.5017 20.7019L41.4657 19.0612L43.3905 18.101L45.0312 19.3347L46.672 18.101L48.5968 19.0612L47.5608 20.7019H42.5017ZM22.5463 18.3582L19.8119 29.2957H31.1881L28.4537 18.3582H22.5463ZM21.8131 27.7332L23.7662 19.9207H27.2338L29.1869 27.7332H21.8131Z" fill="url(#paint0_linear_46_2837)"/>
<path d="M30.9688 11.2041H30.7687V11.2357L30.7785 11.2658L30.9688 11.2041ZM30.9688 5.85815V5.65815H30.7687V5.85815H30.9688ZM41.9062 44.9207L41.716 44.9824L41.7609 45.1207H41.9062V44.9207ZM45.8125 44.9207H46.0125V44.7207H45.8125V44.9207ZM45.8125 46.4832V46.6832H46.0125V46.4832H45.8125ZM42.4109 46.4832V46.2832H42.1359L42.2207 46.5448L42.4109 46.4832ZM43.5977 50.1479L43.6596 50.3381L43.8495 50.2763L43.788 50.0863L43.5977 50.1479ZM42.1134 50.6309L41.9231 50.6926L41.9849 50.883L42.1753 50.8211L42.1134 50.6309ZM40.7679 46.4832L40.9582 46.4214L40.9133 46.2832H40.7679V46.4832ZM35.9111 46.4832V46.2832H35.6459L35.7188 46.5381L35.9111 46.4832ZM36.9655 50.1746L37.0204 50.3669L37.2127 50.312L37.1578 50.1197L36.9655 50.1746ZM35.4625 50.6042L35.2702 50.6591L35.3251 50.8514L35.5174 50.7965L35.4625 50.6042ZM34.2852 46.4832L34.4776 46.4282L34.4361 46.2832H34.2852V46.4832ZM30.1875 46.4832H29.9875V46.6832H30.1875V46.4832ZM30.1875 44.9207V44.7207H29.9875V44.9207H30.1875ZM33.8389 44.9207V45.1207H34.1041L34.0312 44.8657L33.8389 44.9207ZM31.161 35.5457L31.3533 35.4907L31.3119 35.3457H31.161V35.5457ZM19.839 35.5457V35.3457H19.6881L19.6467 35.4907L19.839 35.5457ZM17.1611 44.9207L16.9688 44.8657L16.8959 45.1207H17.1611V44.9207ZM20.8125 44.9207H21.0125V44.7207H20.8125V44.9207ZM20.8125 46.4832V46.6832H21.0125V46.4832H20.8125ZM16.7148 46.4832V46.2832H16.5639L16.5224 46.4282L16.7148 46.4832ZM15.5375 50.6042L15.4826 50.7965L15.6749 50.8514L15.7298 50.6591L15.5375 50.6042ZM14.0345 50.1746L13.8422 50.1197L13.7873 50.312L13.9796 50.3669L14.0345 50.1746ZM15.0889 46.4832L15.2812 46.5381L15.3541 46.2832H15.0889V46.4832ZM10.2321 46.4832V46.2832H10.0867L10.0418 46.4214L10.2321 46.4832ZM8.88509 50.6309L8.82321 50.8211L9.0135 50.883L9.07531 50.6926L8.88509 50.6309ZM7.40079 50.1479L7.21054 50.0862L7.14891 50.2763L7.33891 50.3381L7.40079 50.1479ZM8.58907 46.4832L8.77931 46.5448L8.86416 46.2832H8.58907V46.4832ZM5.1875 46.4832H4.9875V46.6832H5.1875V46.4832ZM5.1875 44.9207V44.7207H4.9875V44.9207H5.1875ZM9.09375 44.9207V45.1207H9.23913L9.28399 44.9824L9.09375 44.9207ZM14.1631 29.2957L14.3533 29.3574L14.4383 29.0957H14.1631V29.2957ZM6.75 29.2957V29.0957H6.55V29.2957H6.75ZM6.75 32.4207V32.6207H6.95V32.4207H6.75ZM5.1875 32.4207H4.9875V32.6207H5.1875V32.4207ZM5.1875 29.2957H5.3875V29.0957H5.1875V29.2957ZM0.5 29.2957H0.3V29.4957H0.5V29.2957ZM0.5 27.7332V27.5332H0.3V27.7332H0.5ZM5.1875 27.7332V27.9332H5.3875V27.7332H5.1875ZM5.1875 19.9207H5.3875V19.7207H5.1875V19.9207ZM0.5 19.9207H0.3V20.1207H0.5V19.9207ZM0.5 18.3582V18.1582H0.3V18.3582H0.5ZM5.1875 18.3582V18.5582H5.3875V18.3582H5.1875ZM5.1875 15.2332V15.0332H4.9875V15.2332H5.1875ZM6.75 15.2332H6.95V15.0332H6.75V15.2332ZM6.75 18.3582H6.55V18.5582H6.75V18.3582ZM17.7108 18.3582V18.5582H17.8562L17.901 18.4199L17.7108 18.3582ZM20.0312 11.2041L20.2215 11.2658L20.2313 11.2357V11.2041H20.0312ZM20.0312 5.85815H20.2313V5.65815H20.0312V5.85815ZM16.9062 5.85815H16.7062V6.05815H16.9062V5.85815ZM16.9062 4.29565V4.09565H16.7062V4.29565H16.9062ZM20.0312 4.29565V4.49565H20.2313V4.29565H20.0312ZM20.0312 1.17065V0.970654H19.8312V1.17065H20.0312ZM21.5938 1.17065H21.7938V0.970654H21.5938V1.17065ZM21.5938 4.29565H21.3937V4.49565H21.5938V4.29565ZM29.4062 4.29565V4.49565H29.6063V4.29565H29.4062ZM29.4062 1.17065V0.970654H29.2062V1.17065H29.4062ZM30.9688 1.17065H31.1688V0.970654H30.9688V1.17065ZM30.9688 4.29565H30.7687V4.49565H30.9688V4.29565ZM34.0938 4.29565H34.2938V4.09565H34.0938V4.29565ZM34.0938 5.85815V6.05815H34.2938V5.85815H34.0938ZM21.5938 5.85815V5.65815H21.3937V5.85815H21.5938ZM29.4062 5.85815H29.6063V5.65815H29.4062V5.85815ZM21.5938 10.5457H21.3937V10.7457H21.5938V10.5457ZM29.4062 10.5457V10.7457H29.6063V10.5457H29.4062ZM6.75 27.7332H6.55V27.9332H6.75V27.7332ZM6.75 19.9207V19.7207H6.55V19.9207H6.75ZM14.6705 27.7332V27.9332H14.8159L14.8607 27.7948L14.6705 27.7332ZM17.2038 19.9207L17.394 19.9823L17.4789 19.7207H17.2038V19.9207ZM15.5352 44.9207V45.1207H15.6861L15.7276 44.9756L15.5352 44.9207ZM10.7383 44.9207L10.548 44.8589L10.4631 45.1207H10.7383V44.9207ZM16.6514 41.0144L16.8437 41.0694L16.9166 40.8144H16.6514V41.0144ZM12.0055 41.0144V40.8144H11.8601L11.8153 40.9527L12.0055 41.0144ZM33.9015 39.4519L33.7092 39.5068L33.7506 39.6519H33.9015V39.4519ZM32.339 33.9832L32.5313 33.9282L32.4898 33.7832H32.339V33.9832ZM38.4875 39.4519V39.6519H38.7626L38.6778 39.3902L38.4875 39.4519ZM29.6195 12.1082L29.8097 12.0465L29.7649 11.9082H29.6195V12.1082ZM21.3805 12.1082V11.9082H21.2351L21.1903 12.0465L21.3805 12.1082ZM12.5125 39.4519L12.3222 39.3902L12.2374 39.6519H12.5125V39.4519ZM17.0985 39.4519V39.6519H17.2494L17.2908 39.5068L17.0985 39.4519ZM18.661 33.9832V33.7832H18.5102L18.4687 33.9282L18.661 33.9832ZM35.464 44.9207L35.2717 44.9756L35.3131 45.1207H35.464V44.9207ZM34.3478 41.0144V40.8144H34.0827L34.1555 41.0694L34.3478 41.0144ZM40.2655 44.9207V45.1207H40.541L40.4557 44.8587L40.2655 44.9207ZM38.9937 41.0144L39.1839 40.9525L39.1389 40.8144H38.9937V41.0144ZM48.9375 17.4846L48.8481 17.6635L49.1375 17.8082V17.4846H48.9375ZM48.9375 1.17065V0.970654H48.7375V1.17065H48.9375ZM47.375 16.7033H47.175V16.8269L47.2856 16.8822L47.375 16.7033ZM47.375 1.17065H47.575V0.970654H47.375V1.17065ZM45.8125 1.17065V0.970654H45.6125V1.17065H45.8125ZM45.8125 16.7957L45.9325 16.9557L46.0125 16.8957V16.7957H45.8125ZM45.0312 17.3816L44.9113 17.5416L45.0312 17.6316L45.1512 17.5416L45.0312 17.3816ZM44.25 16.7957H44.05V16.8957L44.13 16.9557L44.25 16.7957ZM44.25 1.17065H44.45V0.970654H44.25V1.17065ZM42.6875 1.17065V0.970654H42.4875V1.17065H42.6875ZM42.6875 16.7033L42.7769 16.8822L42.8875 16.8269V16.7033H42.6875ZM41.125 17.4846H40.925V17.8082L41.2144 17.6635L41.125 17.4846ZM41.125 1.17065H41.325V0.970654H41.125V1.17065ZM39.5625 1.17065V0.970654H39.3625V1.17065H39.5625ZM39.5625 18.9754H39.3625V19.0332L39.3934 19.0822L39.5625 18.9754ZM45.0312 27.634L44.8622 27.7408L45.0312 28.0085L45.2003 27.7408L45.0312 27.634ZM50.5 18.9754L50.6691 19.0822L50.7 19.0332V18.9754H50.5ZM50.5 1.17065H50.7V0.970654H50.5V1.17065ZM43.4882 22.2644V22.0644H43.1253L43.3191 22.3712L43.4882 22.2644ZM45.0312 24.7073L44.8622 24.8141L45.0312 25.0818L45.2003 24.8141L45.0312 24.7073ZM46.5743 22.2644L46.7434 22.3712L46.9372 22.0644H46.5743V22.2644ZM41.4657 19.0612L41.3764 18.8822L41.1784 18.981L41.2965 19.168L41.4657 19.0612ZM42.5017 20.7019L42.3326 20.8087L42.3915 20.9019H42.5017V20.7019ZM43.3905 18.101L43.5107 17.9412L43.4119 17.8669L43.3013 17.9221L43.3905 18.101ZM45.0312 19.3347L44.9111 19.4946L45.0312 19.5849L45.1514 19.4946L45.0312 19.3347ZM46.672 18.101L46.7612 17.9221L46.6506 17.8669L46.5518 17.9412L46.672 18.101ZM48.5968 19.0612L48.766 19.168L48.8841 18.981L48.6861 18.8822L48.5968 19.0612ZM47.5608 20.7019V20.9019H47.671L47.7299 20.8087L47.5608 20.7019ZM19.8119 29.2957L19.6179 29.2471L19.5557 29.4957H19.8119V29.2957ZM22.5463 18.3582V18.1582H22.3901L22.3522 18.3096L22.5463 18.3582ZM31.1881 29.2957V29.4957H31.4442L31.3821 29.2471L31.1881 29.2957ZM28.4537 18.3582L28.6477 18.3096L28.6099 18.1582H28.4537V18.3582ZM23.7662 19.9207V19.7207H23.6101L23.5722 19.8721L23.7662 19.9207ZM21.8131 27.7332L21.6191 27.6846L21.5569 27.9332H21.8131V27.7332ZM27.2338 19.9207L27.4278 19.8721L27.3899 19.7207H27.2338V19.9207ZM29.1869 27.7332V27.9332H29.443L29.3809 27.6846L29.1869 27.7332ZM31.1688 11.2041V5.85815H30.7687V11.2041H31.1688ZM42.0965 44.8589L31.159 11.1424L30.7785 11.2658L41.716 44.9824L42.0965 44.8589ZM45.8125 44.7207H41.9062V45.1207H45.8125V44.7207ZM46.0125 46.4832V44.9207H45.6125V46.4832H46.0125ZM42.4109 46.6832H45.8125V46.2832H42.4109V46.6832ZM43.788 50.0863L42.6012 46.4215L42.2207 46.5448L43.4074 50.2095L43.788 50.0863ZM42.1753 50.8211L43.6596 50.3381L43.5358 49.9577L42.0515 50.4407L42.1753 50.8211ZM40.5777 46.5449L41.9231 50.6926L42.3036 50.5692L40.9582 46.4214L40.5777 46.5449ZM35.9111 46.6832H40.7679V46.2832H35.9111V46.6832ZM37.1578 50.1197L36.1034 46.4282L35.7188 46.5381L36.7731 50.2296L37.1578 50.1197ZM35.5174 50.7965L37.0204 50.3669L36.9105 49.9823L35.4075 50.4119L35.5174 50.7965ZM34.0929 46.5381L35.2702 50.6591L35.6548 50.5492L34.4776 46.4282L34.0929 46.5381ZM30.1875 46.6832H34.2852V46.2832H30.1875V46.6832ZM29.9875 44.9207V46.4832H30.3875V44.9207H29.9875ZM33.8389 44.7207H30.1875V45.1207H33.8389V44.7207ZM30.9687 35.6006L33.6466 44.9756L34.0312 44.8657L31.3533 35.4907L30.9687 35.6006ZM19.839 35.7457H31.161V35.3457H19.839V35.7457ZM17.3534 44.9756L20.0313 35.6006L19.6467 35.4907L16.9688 44.8657L17.3534 44.9756ZM20.8125 44.7207H17.1611V45.1207H20.8125V44.7207ZM21.0125 46.4832V44.9207H20.6125V46.4832H21.0125ZM16.7148 46.6832H20.8125V46.2832H16.7148V46.6832ZM15.7298 50.6591L16.9071 46.5381L16.5224 46.4282L15.3452 50.5492L15.7298 50.6591ZM13.9796 50.3669L15.4826 50.7965L15.5925 50.4119L14.0895 49.9823L13.9796 50.3669ZM14.8966 46.4282L13.8422 50.1197L14.2269 50.2296L15.2812 46.5381L14.8966 46.4282ZM10.2321 46.6832H15.0889V46.2832H10.2321V46.6832ZM9.07531 50.6926L10.4223 46.5449L10.0418 46.4214L8.69487 50.5691L9.07531 50.6926ZM7.33891 50.3381L8.82321 50.8211L8.94697 50.4407L7.46267 49.9577L7.33891 50.3381ZM8.39882 46.4215L7.21054 50.0862L7.59104 50.2096L8.77931 46.5448L8.39882 46.4215ZM5.1875 46.6832H8.58907V46.2832H5.1875V46.6832ZM4.9875 44.9207V46.4832H5.3875V44.9207H4.9875ZM9.09375 44.7207H5.1875V45.1207H9.09375V44.7207ZM13.9729 29.2339L8.90351 44.8589L9.28399 44.9824L14.3533 29.3574L13.9729 29.2339ZM6.75 29.4957H14.1631V29.0957H6.75V29.4957ZM6.95 32.4207V29.2957H6.55V32.4207H6.95ZM5.1875 32.6207H6.75V32.2207H5.1875V32.6207ZM4.9875 29.2957V32.4207H5.3875V29.2957H4.9875ZM0.5 29.4957H5.1875V29.0957H0.5V29.4957ZM0.3 27.7332V29.2957H0.7V27.7332H0.3ZM5.1875 27.5332H0.5V27.9332H5.1875V27.5332ZM4.9875 19.9207V27.7332H5.3875V19.9207H4.9875ZM0.5 20.1207H5.1875V19.7207H0.5V20.1207ZM0.3 18.3582V19.9207H0.7V18.3582H0.3ZM5.1875 18.1582H0.5V18.5582H5.1875V18.1582ZM4.9875 15.2332V18.3582H5.3875V15.2332H4.9875ZM6.75 15.0332H5.1875V15.4332H6.75V15.0332ZM6.95 18.3582V15.2332H6.55V18.3582H6.95ZM17.7108 18.1582H6.75V18.5582H17.7108V18.1582ZM19.841 11.1424L17.5205 18.2964L17.901 18.4199L20.2215 11.2658L19.841 11.1424ZM19.8312 5.85815V11.2041H20.2313V5.85815H19.8312ZM16.9062 6.05815H20.0312V5.65815H16.9062V6.05815ZM16.7062 4.29565V5.85815H17.1063V4.29565H16.7062ZM20.0312 4.09565H16.9062V4.49565H20.0312V4.09565ZM19.8312 1.17065V4.29565H20.2313V1.17065H19.8312ZM21.5938 0.970654H20.0312V1.37065H21.5938V0.970654ZM21.7938 4.29565V1.17065H21.3937V4.29565H21.7938ZM29.4062 4.09565H21.5938V4.49565H29.4062V4.09565ZM29.2062 1.17065V4.29565H29.6063V1.17065H29.2062ZM30.9688 0.970654H29.4062V1.37065H30.9688V0.970654ZM31.1688 4.29565V1.17065H30.7687V4.29565H31.1688ZM34.0938 4.09565H30.9688V4.49565H34.0938V4.09565ZM34.2938 5.85815V4.29565H33.8937V5.85815H34.2938ZM30.9688 6.05815H34.0938V5.65815H30.9688V6.05815ZM21.5938 6.05815H29.4062V5.65815H21.5938V6.05815ZM21.7938 10.5457V5.85815H21.3937V10.5457H21.7938ZM29.4062 10.3457H21.5938V10.7457H29.4062V10.3457ZM29.2062 5.85815V10.5457H29.6063V5.85815H29.2062ZM6.95 27.7332V19.9207H6.55V27.7332H6.95ZM14.6705 27.5332H6.75V27.9332H14.6705V27.5332ZM17.0135 19.859L14.4802 27.6715L14.8607 27.7948L17.394 19.9823L17.0135 19.859ZM6.75 20.1207H17.2038V19.7207H6.75V20.1207ZM15.5352 44.7207H10.7383V45.1207H15.5352V44.7207ZM16.4591 40.9595L15.3429 44.8657L15.7276 44.9756L16.8437 41.0694L16.4591 40.9595ZM12.0055 41.2144H16.6514V40.8144H12.0055V41.2144ZM10.9285 44.9824L12.1957 41.0761L11.8153 40.9527L10.548 44.8589L10.9285 44.9824ZM34.0938 39.397L32.5313 33.9282L32.1467 34.0381L33.7092 39.5068L34.0938 39.397ZM38.4875 39.2519H33.9015V39.6519H38.4875V39.2519ZM29.4292 12.1699L38.2973 39.5136L38.6778 39.3902L29.8097 12.0465L29.4292 12.1699ZM21.3805 12.3082H29.6195V11.9082H21.3805V12.3082ZM12.7027 39.5136L21.5708 12.1699L21.1903 12.0465L12.3222 39.3902L12.7027 39.5136ZM17.0985 39.2519H12.5125V39.6519H17.0985V39.2519ZM18.4687 33.9282L16.9062 39.397L17.2908 39.5068L18.8533 34.0381L18.4687 33.9282ZM32.339 33.7832H18.661V34.1832H32.339V33.7832ZM35.6563 44.8657L34.5401 40.9595L34.1555 41.0694L35.2717 44.9756L35.6563 44.8657ZM40.2655 44.7207H35.464V45.1207H40.2655V44.7207ZM38.8036 41.0763L40.0754 44.9826L40.4557 44.8587L39.1839 40.9525L38.8036 41.0763ZM34.3478 41.2144H38.9937V40.8144H34.3478V41.2144ZM49.1375 17.4846V1.17065H48.7375V17.4846H49.1375ZM47.2856 16.8822L48.8481 17.6635L49.0269 17.3057L47.4644 16.5245L47.2856 16.8822ZM47.175 1.17065V16.7033H47.575V1.17065H47.175ZM45.8125 1.37065H47.375V0.970654H45.8125V1.37065ZM46.0125 16.7957V1.17065H45.6125V16.7957H46.0125ZM45.1512 17.5416L45.9325 16.9557L45.6925 16.6357L44.9113 17.2216L45.1512 17.5416ZM44.13 16.9557L44.9113 17.5416L45.1512 17.2216L44.37 16.6357L44.13 16.9557ZM44.05 1.17065V16.7957H44.45V1.17065H44.05ZM42.6875 1.37065H44.25V0.970654H42.6875V1.37065ZM42.8875 16.7033V1.17065H42.4875V16.7033H42.8875ZM41.2144 17.6635L42.7769 16.8822L42.5981 16.5245L41.0356 17.3057L41.2144 17.6635ZM40.925 1.17065V17.4846H41.325V1.17065H40.925ZM39.5625 1.37065H41.125V0.970654H39.5625V1.37065ZM39.7625 18.9754V1.17065H39.3625V18.9754H39.7625ZM45.2003 27.5272L39.7316 18.8686L39.3934 19.0822L44.8622 27.7408L45.2003 27.5272ZM50.3309 18.8686L44.8622 27.5272L45.2003 27.7408L50.6691 19.0822L50.3309 18.8686ZM50.3 1.17065V18.9754H50.7V1.17065H50.3ZM48.9375 1.37065H50.5V0.970654H48.9375V1.37065ZM43.3191 22.3712L44.8622 24.8141L45.2003 24.6005L43.6573 22.1576L43.3191 22.3712ZM46.5743 22.0644H43.4882V22.4644H46.5743V22.0644ZM45.2003 24.8141L46.7434 22.3712L46.4052 22.1576L44.8622 24.6005L45.2003 24.8141ZM41.2965 19.168L42.3326 20.8087L42.6708 20.5951L41.6348 18.9544L41.2965 19.168ZM43.3013 17.9221L41.3764 18.8822L41.5549 19.2402L43.4798 18.28L43.3013 17.9221ZM45.1514 19.1749L43.5107 17.9412L43.2704 18.2609L44.9111 19.4946L45.1514 19.1749ZM46.5518 17.9412L44.9111 19.1749L45.1514 19.4946L46.7921 18.2609L46.5518 17.9412ZM48.6861 18.8822L46.7612 17.9221L46.5827 18.28L48.5076 19.2402L48.6861 18.8822ZM47.7299 20.8087L48.766 19.168L48.4277 18.9544L47.3917 20.5951L47.7299 20.8087ZM42.5017 20.9019H47.5608V20.5019H42.5017V20.9019ZM20.0059 29.3442L22.7403 18.4067L22.3522 18.3096L19.6179 29.2471L20.0059 29.3442ZM31.1881 29.0957H19.8119V29.4957H31.1881V29.0957ZM28.2597 18.4067L30.9941 29.3442L31.3821 29.2471L28.6477 18.3096L28.2597 18.4067ZM22.5463 18.5582H28.4537V18.1582H22.5463V18.5582ZM23.5722 19.8721L21.6191 27.6846L22.0071 27.7817L23.9602 19.9692L23.5722 19.8721ZM27.2338 19.7207H23.7662V20.1207H27.2338V19.7207ZM29.3809 27.6846L27.4278 19.8721L27.0397 19.9692L28.9929 27.7817L29.3809 27.6846ZM21.8131 27.9332H29.1869V27.5332H21.8131V27.9332Z" fill="url(#paint1_linear_46_2837)"/>
<defs>
<linearGradient id="paint0_linear_46_2837" x1="-5.22917" y1="25.9008" x2="56.1997" y2="20.0867" gradientUnits="userSpaceOnUse">
<stop stop-color="#443ED9"/>
<stop offset="1" stop-color="#F603C7"/>
</linearGradient>
<linearGradient id="paint1_linear_46_2837" x1="-5.22917" y1="25.9008" x2="56.1997" y2="20.0867" gradientUnits="userSpaceOnUse">
<stop stop-color="#443ED9"/>
<stop offset="1" stop-color="#F603C7"/>
</linearGradient>
</defs>
</svg>
