<svg width="48" height="48" viewBox="0 0 48 48" fill="none" xmlns="http://www.w3.org/2000/svg">
<path d="M47.08 19.8587C47.0481 19.678 46.9535 19.5142 46.813 19.3963C46.6724 19.2783 46.4948 19.2135 46.3112 19.2134H35.4566L35.9198 15.9017C36.6821 15.5959 37.3729 15.1358 37.9488 14.5503C38.5248 13.9648 38.9735 13.2665 39.2667 12.4993C40.3191 9.879 38.73 4.03525 38.5448 3.37666C38.5124 3.2615 38.454 3.15533 38.374 3.06633C38.294 2.97733 38.1947 2.90789 38.0837 2.86335C37.9726 2.81881 37.8528 2.80037 37.7336 2.80945C37.6143 2.81854 37.4986 2.85489 37.3956 2.91572C36.8073 3.26338 31.6191 6.38682 30.5667 9.00947C30.2497 9.76279 30.0909 10.5732 30.1002 11.3905C30.1095 12.2077 30.2866 13.0143 30.6206 13.7603L28.6878 16.4149V1.24463C28.6878 1.03743 28.6055 0.838714 28.459 0.692202C28.3125 0.545689 28.1138 0.463379 27.9066 0.463379H20.0941C19.8869 0.463379 19.6881 0.545689 19.5416 0.692202C19.3951 0.838714 19.3128 1.03743 19.3128 1.24463V17.9993L16.0776 9.11025C16.0492 9.0312 16.008 8.95731 15.9558 8.8915L11.3464 3.08682C11.2445 2.95835 11.1047 2.86522 10.9469 2.82061C10.7891 2.776 10.6213 2.78218 10.4672 2.83827C10.3131 2.89436 10.1805 2.99752 10.0883 3.13313C9.99612 3.26874 9.94893 3.42992 9.95343 3.59385L10.1566 11.0001C10.1591 11.0842 10.1752 11.1673 10.2042 11.2462L13.1042 19.2134H1.69562C1.51279 19.2135 1.3358 19.2778 1.19548 19.395C1.05515 19.5122 0.960377 19.6749 0.92765 19.8548C0.445219 22.5492 0.445219 25.308 0.92765 28.0024C0.960074 28.1827 1.05482 28.3459 1.19534 28.4634C1.33586 28.581 1.51321 28.6454 1.6964 28.6454H5.79249C6.23363 30.3433 6.90968 31.9712 7.80109 33.4821L4.91046 36.3728C4.78081 36.5025 4.70091 36.6736 4.68477 36.8563C4.66863 37.039 4.71728 37.2215 4.82218 37.372C6.38085 39.601 8.3214 41.5368 10.5542 43.0899C10.7043 43.1949 10.8865 43.2439 11.069 43.2281C11.2515 43.2124 11.4227 43.1331 11.5526 43.004L14.4542 40.1134C15.9707 41.0039 17.6038 41.6789 19.3066 42.1188V46.2024C19.3066 46.3856 19.371 46.563 19.4885 46.7035C19.6061 46.844 19.7692 46.9388 19.9495 46.9712C21.2832 47.2145 22.636 47.3374 23.9917 47.3384C25.3552 47.3381 26.716 47.2168 28.0581 46.9759C28.2388 46.9438 28.4025 46.849 28.5203 46.7083C28.6382 46.5676 28.7027 46.3899 28.7027 46.2063V42.1228C30.4043 41.681 32.0366 41.0061 33.5534 40.1173L36.4441 43.0079C36.5735 43.1371 36.7442 43.2168 36.9264 43.233C37.1085 43.2493 37.2906 43.2012 37.4409 43.097C39.6768 41.5463 41.6183 39.6095 43.1745 37.3774C43.2797 37.227 43.3286 37.0444 43.3126 36.8615C43.2966 36.6787 43.2168 36.5073 43.087 36.3774L40.1964 33.4868C41.0927 31.9777 41.7693 30.3486 42.2058 28.6485H46.3089C46.4921 28.6485 46.6694 28.5841 46.81 28.4666C46.9505 28.349 47.0452 28.1859 47.0777 28.0056C47.5522 25.3107 47.553 22.5538 47.08 19.8587ZM32.0167 9.58916C32.6237 8.07744 35.5136 5.96963 37.3003 4.81416C37.7925 6.88447 38.4237 10.4056 37.8175 11.9173C36.9948 13.9634 35.0237 15.1063 33.4277 14.4634C31.8316 13.8204 31.1956 11.6353 32.0167 9.58916ZM34.9378 23.9009C34.935 25.9703 34.3451 27.9965 33.2367 29.744C32.1283 31.4916 30.5469 32.8889 28.6761 33.7735L34.6691 21.5329C34.8454 22.31 34.9355 23.1041 34.9378 23.9009ZM31.5784 15.0954C32.3094 15.7995 33.2838 16.1944 34.2987 16.1978L33.9237 18.8774L29.9847 17.286L31.5784 15.0954ZM29.2495 18.6751L33.4902 20.3853L26.5706 34.5204C25.7378 34.7248 24.8836 34.8297 24.0261 34.8329L29.2495 18.6751ZM20.8753 20.7759H23.2191V19.2134H20.8753V16.0884H23.2191V14.5259H20.8753V11.4009H23.2191V9.83838H20.8753V6.71338H23.2191V5.15088H20.8753V2.02588H27.1253V20.1712L23.8222 30.3899L20.8753 22.2931V20.7759ZM11.5784 5.89385L14.0558 9.01338L11.6878 9.87275L11.5784 5.89385ZM14.8753 10.3782L23.0401 32.8071L22.4245 34.7103C21.6654 34.6002 20.92 34.4098 20.2011 34.1423L11.9394 11.4462L14.8753 10.3782ZM13.5948 20.5618L18.1737 33.1399C16.6107 32.1571 15.3222 30.7943 14.4284 29.1786C13.5347 27.563 13.0649 25.7472 13.0628 23.9009C13.0639 22.7668 13.2435 21.64 13.5948 20.5618ZM45.6464 27.0829H41.5925C41.4146 27.0828 41.2421 27.1433 41.1033 27.2545C40.9645 27.3658 40.8678 27.521 40.8292 27.6946C40.3989 29.6423 39.628 31.4987 38.5519 33.1782C38.4559 33.3282 38.414 33.5065 38.4332 33.6835C38.4524 33.8605 38.5315 34.0257 38.6573 34.1517L41.5152 37.0087C40.2628 38.6927 38.7689 40.1827 37.0816 41.4306L34.2222 38.5782C34.0969 38.4533 33.9329 38.3746 33.7571 38.355C33.5812 38.3354 33.4039 38.3761 33.2542 38.4704C31.5632 39.5381 29.7016 40.3078 27.7503 40.7462C27.5774 40.7852 27.4229 40.8818 27.3121 41.0203C27.2014 41.1587 27.141 41.3306 27.1409 41.5079V45.5415C25.0613 45.8521 22.9471 45.8521 20.8675 45.5415V41.5079C20.8674 41.3306 20.807 41.1587 20.6963 41.0203C20.5856 40.8818 20.431 40.7852 20.2581 40.7462C18.3063 40.3101 16.4443 39.5404 14.7542 38.4712C14.6046 38.3765 14.4272 38.3354 14.2512 38.3547C14.0752 38.3741 13.911 38.4526 13.7855 38.5774L10.9198 41.4298C9.23329 40.1805 7.73879 38.691 6.4839 37.0087L9.34171 34.1517C9.46746 34.026 9.5466 33.8612 9.56606 33.6845C9.58552 33.5078 9.54414 33.3298 9.44874 33.1798C8.37813 31.4957 7.60686 29.6392 7.16906 27.6923C7.13003 27.5192 7.03327 27.3646 6.89468 27.2539C6.7561 27.1431 6.58396 27.0828 6.40656 27.0829H2.35968C2.05108 24.9919 2.05108 22.8669 2.35968 20.7759H11.8987C11.6335 21.7963 11.4996 22.8465 11.5003 23.9009C11.5003 27.2161 12.8173 30.3955 15.1615 32.7397C17.5057 35.0839 20.6851 36.4009 24.0003 36.4009C27.3155 36.4009 30.4949 35.0839 32.8391 32.7397C35.1833 30.3955 36.5003 27.2161 36.5003 23.9009C36.5016 22.8466 36.3682 21.7964 36.1034 20.7759H45.6456C45.949 22.8673 45.9493 24.9915 45.6464 27.0829Z" fill="url(#paint0_linear_47_86)" stroke="url(#paint1_linear_47_86)" stroke-width="0.4"/>
<defs>
<linearGradient id="paint0_linear_47_86" x1="-4.80451" y1="23.9009" x2="52.788" y2="18.5095" gradientUnits="userSpaceOnUse">
<stop stop-color="#443ED9"/>
<stop offset="1" stop-color="#F603C7"/>
</linearGradient>
<linearGradient id="paint1_linear_47_86" x1="-4.80451" y1="23.9009" x2="52.788" y2="18.5095" gradientUnits="userSpaceOnUse">
<stop stop-color="#443ED9"/>
<stop offset="1" stop-color="#F603C7"/>
</linearGradient>
</defs>
</svg>
