<svg width="57" height="48" viewBox="0 0 57 48" fill="none" xmlns="http://www.w3.org/2000/svg">
<path d="M51.9346 35.1509H50.0596V27.6509C50.0596 27.1536 49.862 26.6767 49.5104 26.3251C49.1588 25.9734 48.6819 25.7759 48.1846 25.7759H46.3096C45.8123 25.7759 45.3354 25.9734 44.9837 26.3251C44.6321 26.6767 44.4346 27.1536 44.4346 27.6509V35.1509H43.4971V22.0259C43.4971 21.5286 43.2995 21.0517 42.9479 20.7001C42.5963 20.3484 42.1194 20.1509 41.6221 20.1509H39.7471C39.2498 20.1509 38.7729 20.3484 38.4212 20.7001C38.0696 21.0517 37.8721 21.5286 37.8721 22.0259V35.1509H36.9346V24.8384C36.9346 24.3411 36.737 23.8642 36.3854 23.5126C36.0338 23.1609 35.5569 22.9634 35.0596 22.9634H33.1846C32.6873 22.9634 32.2104 23.1609 31.8587 23.5126C31.5071 23.8642 31.3096 24.3411 31.3096 24.8384V35.1509C31.061 35.1506 30.8227 35.0518 30.6469 34.876C30.4712 34.7003 30.3723 34.4619 30.3721 34.2134V19.2134C30.3721 18.9647 30.2733 18.7263 30.0975 18.5505C29.9217 18.3747 29.6832 18.2759 29.4346 18.2759C29.1859 18.2759 28.9475 18.3747 28.7717 18.5505C28.5958 18.7263 28.4971 18.9647 28.4971 19.2134V34.2134C28.4979 34.9591 28.7945 35.674 29.3217 36.2012C29.849 36.7285 30.5639 37.0251 31.3096 37.0259H51.9346C52.1832 37.0259 52.4217 36.9271 52.5975 36.7513C52.7733 36.5755 52.8721 36.337 52.8721 36.0884C52.8721 35.8397 52.7733 35.6013 52.5975 35.4255C52.4217 35.2497 52.1832 35.1509 51.9346 35.1509ZM33.1846 35.1509L33.1832 24.8384H35.0596V35.1509H33.1846ZM39.7471 35.1509L39.7457 22.0259H41.6221V35.1509H39.7471ZM46.3096 35.1509L46.3082 27.6509H48.1846V35.1509H46.3096ZM41.6221 7.02588C41.622 6.90276 41.6463 6.78083 41.6934 6.66708C41.7405 6.55332 41.8095 6.44996 41.8966 6.3629C41.9837 6.27583 42.087 6.20678 42.2008 6.15968C42.3145 6.11257 42.4365 6.08835 42.5596 6.08838H50.9971C51.2457 6.08838 51.4842 6.18715 51.66 6.36297C51.8358 6.53878 51.9346 6.77724 51.9346 7.02588C51.9346 7.27452 51.8358 7.51298 51.66 7.68879C51.4842 7.86461 51.2457 7.96338 50.9971 7.96338H42.5596C42.4365 7.96341 42.3145 7.93918 42.2008 7.89208C42.087 7.84498 41.9837 7.77592 41.8966 7.68886C41.8095 7.6018 41.7405 7.49844 41.6934 7.38468C41.6463 7.27093 41.622 7.149 41.6221 7.02588ZM38.8096 7.02588C38.8096 6.84046 38.8646 6.6592 38.9676 6.50503C39.0706 6.35086 39.217 6.2307 39.3883 6.15974C39.5596 6.08879 39.7481 6.07022 39.93 6.10639C40.1118 6.14257 40.2789 6.23185 40.41 6.36297C40.5411 6.49408 40.6304 6.66113 40.6666 6.84298C40.7027 7.02484 40.6842 7.21334 40.6132 7.38465C40.5423 7.55595 40.4221 7.70237 40.2679 7.80538C40.1138 7.9084 39.9325 7.96338 39.7471 7.96338C39.4984 7.96338 39.26 7.86461 39.0842 7.68879C38.9083 7.51298 38.8096 7.27452 38.8096 7.02588ZM41.6221 10.7759C41.622 10.6528 41.6463 10.5308 41.6934 10.4171C41.7405 10.3033 41.8095 10.2 41.8966 10.1129C41.9837 10.0258 42.087 9.95678 42.2008 9.90968C42.3145 9.86258 42.4365 9.83835 42.5596 9.83838H50.9971C51.2457 9.83838 51.4842 9.93715 51.66 10.113C51.8358 10.2888 51.9346 10.5272 51.9346 10.7759C51.9346 11.0245 51.8358 11.263 51.66 11.4388C51.4842 11.6146 51.2457 11.7134 50.9971 11.7134H42.5596C42.4365 11.7134 42.3145 11.6892 42.2008 11.6421C42.087 11.595 41.9837 11.5259 41.8966 11.4389C41.8095 11.3518 41.7405 11.2484 41.6934 11.1347C41.6463 11.0209 41.622 10.899 41.6221 10.7759ZM41.6221 14.5259C41.622 14.4028 41.6463 14.2808 41.6934 14.1671C41.7405 14.0533 41.8095 13.95 41.8966 13.8629C41.9837 13.7758 42.087 13.7068 42.2008 13.6597C42.3145 13.6126 42.4365 13.5883 42.5596 13.5884H50.9971C51.2457 13.5884 51.4842 13.6872 51.66 13.863C51.8358 14.0388 51.9346 14.2772 51.9346 14.5259C51.9346 14.7745 51.8358 15.013 51.66 15.1888C51.4842 15.3646 51.2457 15.4634 50.9971 15.4634H42.5596C42.4365 15.4634 42.3145 15.4392 42.2008 15.3921C42.087 15.345 41.9837 15.2759 41.8966 15.1889C41.8095 15.1018 41.7405 14.9984 41.6934 14.8847C41.6463 14.7709 41.622 14.649 41.6221 14.5259ZM38.8096 10.7759C38.8096 10.5905 38.8646 10.4092 38.9676 10.255C39.0706 10.1009 39.217 9.9807 39.3883 9.90974C39.5596 9.83879 39.7481 9.82022 39.93 9.85639C40.1118 9.89257 40.2789 9.98185 40.41 10.113C40.5411 10.2441 40.6304 10.4111 40.6666 10.593C40.7027 10.7748 40.6842 10.9633 40.6132 11.1346C40.5423 11.306 40.4221 11.4524 40.2679 11.5554C40.1138 11.6584 39.9325 11.7134 39.7471 11.7134C39.4984 11.7134 39.26 11.6146 39.0842 11.4388C38.9083 11.263 38.8096 11.0245 38.8096 10.7759ZM38.8096 14.5259C38.8096 14.3405 38.8646 14.1592 38.9676 14.005C39.0706 13.8509 39.217 13.7307 39.3883 13.6597C39.5596 13.5888 39.7481 13.5702 39.93 13.6064C40.1118 13.6426 40.2789 13.7319 40.41 13.863C40.5411 13.9941 40.6304 14.1611 40.6666 14.343C40.7027 14.5248 40.6842 14.7133 40.6132 14.8846C40.5423 15.056 40.4221 15.2024 40.2679 15.3054C40.1138 15.4084 39.9325 15.4634 39.7471 15.4634C39.4984 15.4634 39.26 15.3646 39.0842 15.1888C38.9083 15.013 38.8096 14.7745 38.8096 14.5259ZM53.8096 0.463379H6.93458C6.18891 0.464193 5.47401 0.76077 4.94674 1.28804C4.41947 1.81531 4.12289 2.53021 4.12208 3.27588V15.5108C3.34211 15.62 2.62791 16.0075 2.11107 16.6017C1.59423 17.196 1.30958 17.9571 1.30958 18.7446C1.30958 19.5322 1.59423 20.2933 2.11107 20.8875C2.62791 21.4818 3.34211 21.8693 4.12208 21.9785V26.3768C2.84765 27.6002 1.85469 29.0862 1.21209 30.7318C0.569485 32.3774 0.292635 34.1432 0.400747 35.9065C0.50886 37.6698 0.999346 39.3884 1.83817 40.9432C2.67699 42.498 3.84407 43.8516 5.25841 44.9102C6.67275 45.9687 8.30048 46.7069 10.0287 47.0734C11.7568 47.4399 13.5441 47.426 15.2663 47.0327C16.9886 46.6394 18.6047 45.876 20.0024 44.7955C21.4001 43.7151 22.546 42.3435 23.3605 40.7759H53.8096C54.5552 40.7751 55.2701 40.4785 55.7974 39.9512C56.3247 39.424 56.6213 38.7091 56.6221 37.9634V3.27588C56.6213 2.53021 56.3247 1.81531 55.7974 1.28804C55.2701 0.76077 54.5552 0.464193 53.8096 0.463379ZM3.18458 18.7446C3.18458 18.4665 3.26705 18.1946 3.42157 17.9634C3.5761 17.7321 3.79572 17.5519 4.05268 17.4454C4.30964 17.339 4.59239 17.3111 4.86517 17.3654C5.13796 17.4197 5.38853 17.5536 5.5852 17.7503C5.78187 17.9469 5.9158 18.1975 5.97006 18.4703C6.02432 18.7431 5.99647 19.0258 5.89003 19.2828C5.7836 19.5397 5.60336 19.7594 5.3721 19.9139C5.14084 20.0684 4.86896 20.1509 4.59083 20.1509C4.21799 20.1505 3.86054 20.0022 3.59691 19.7386C3.33327 19.4749 3.18499 19.1175 3.18458 18.7446ZM11.6221 24.8859V34.5905L3.07425 39.1932C2.43626 37.6985 2.16087 36.074 2.27059 34.4525C2.3803 32.831 2.87201 31.2585 3.70555 29.8633C4.53908 28.4681 5.69081 27.2899 7.06667 26.4248C8.44253 25.5598 10.0035 25.0324 11.6221 24.8859ZM13.4971 24.8859C15.8959 25.108 18.1415 26.162 19.845 27.8655C21.5484 29.569 22.6025 31.8146 22.8246 34.2134H13.4971V24.8859ZM12.5596 45.4634C10.8573 45.4624 9.18168 45.0399 7.68246 44.2336C6.18324 43.4272 4.90705 42.2621 3.96787 40.8423L12.7966 36.0884H22.8246C22.5884 38.6488 21.4053 41.0288 19.5067 42.7628C17.6082 44.4968 15.1308 45.4598 12.5596 45.4634ZM54.7471 37.9634C54.7468 38.2119 54.648 38.4503 54.4722 38.626C54.2965 38.8018 54.0581 38.9006 53.8096 38.9009H24.1507C24.9285 36.5127 24.9483 33.9424 24.2074 31.5426C23.4665 29.1428 22.0012 27.031 20.0125 25.4969C18.0238 23.9629 15.6092 23.0817 13.0999 22.9744C10.5905 22.8671 8.10949 23.5388 5.99708 24.8974V21.6968C6.55651 21.432 7.02952 21.0142 7.36134 20.4917C7.69317 19.9693 7.87025 19.3635 7.87208 18.7446C7.86931 18.253 7.75478 17.7685 7.53717 17.3277L12.2811 13.1108C12.7204 13.3751 13.2154 13.5329 13.7266 13.5717C14.2378 13.6105 14.7509 13.5292 15.2251 13.3343L19.3564 16.5961C19.1569 17.0964 19.0836 17.6382 19.1432 18.1736C19.2028 18.7089 19.3933 19.2213 19.698 19.6655C20.0026 20.1098 20.412 20.4721 20.8899 20.7205C21.3679 20.969 21.8996 21.0958 22.4383 21.0899C22.9769 21.084 23.5057 20.9456 23.9781 20.6867C24.4505 20.4279 24.8519 20.0567 25.1467 19.6059C25.4416 19.1551 25.6208 18.6387 25.6687 18.1021C25.7165 17.5656 25.6315 17.0256 25.421 16.5297L30.8404 12.0529C31.4856 12.5005 32.2704 12.7011 33.0514 12.6178C33.8323 12.5346 34.5572 12.1731 35.0936 11.5995C35.63 11.0258 35.942 10.2783 35.9727 9.49358C36.0035 8.70884 35.7508 7.93924 35.2608 7.32543C34.7709 6.71163 34.0765 6.2946 33.3045 6.15057C32.5325 6.00654 31.7344 6.14511 31.0561 6.54098C30.3778 6.93684 29.8646 7.56355 29.6103 8.30658C29.356 9.04961 29.3776 9.85934 29.671 10.5878L24.229 15.0833C23.6786 14.7165 23.0303 14.5246 22.369 14.5326C21.7076 14.5406 21.0641 14.7481 20.5228 15.1281L16.7051 12.114C17.0233 11.6359 17.2104 11.0825 17.2477 10.5094C17.285 9.93624 17.1711 9.36335 16.9174 8.84804C16.6638 8.33273 16.2792 7.89305 15.8023 7.573C15.3254 7.25295 14.7728 7.06375 14.1998 7.02431C13.6268 6.98488 13.0534 7.09661 12.5372 7.34831C12.0209 7.60001 11.5798 7.98287 11.2579 8.45858C10.9361 8.93429 10.7448 9.48618 10.7032 10.059C10.6616 10.6319 10.7711 11.2056 11.0209 11.7228L6.27345 15.9427C6.18379 15.8886 6.09207 15.838 5.99708 15.7925V3.27588C5.99733 3.02731 6.09618 2.789 6.27194 2.61324C6.4477 2.43748 6.68601 2.33863 6.93458 2.33838H53.8096C54.0581 2.33863 54.2965 2.43748 54.4722 2.61324C54.648 2.789 54.7468 3.02731 54.7471 3.27588V37.9634ZM14.9602 11.3015C14.7635 11.4982 14.513 11.6321 14.2402 11.6864C13.9674 11.7406 13.6846 11.7128 13.4277 11.6063C13.1707 11.4999 12.9511 11.3197 12.7966 11.0884C12.6421 10.8571 12.5596 10.5853 12.5596 10.3071C12.5596 10.029 12.6421 9.75712 12.7966 9.52586C12.9511 9.29461 13.1707 9.11436 13.4277 9.00793C13.6846 8.90149 13.9674 8.87364 14.2402 8.9279C14.513 8.98216 14.7635 9.11609 14.9602 9.31275C15.2235 9.57669 15.3714 9.9343 15.3714 10.3071C15.3714 10.68 15.2235 11.0376 14.9602 11.3015ZM23.3977 18.8015C23.201 18.9982 22.9505 19.1321 22.6777 19.1864C22.4049 19.2406 22.1221 19.2128 21.8652 19.1063C21.6082 18.9999 21.3886 18.8197 21.2341 18.5884C21.0796 18.3571 20.9971 18.0853 20.9971 17.8071C20.9971 17.529 21.0796 17.2571 21.2341 17.0259C21.3886 16.7946 21.6082 16.6144 21.8652 16.5079C22.1221 16.4015 22.4049 16.3736 22.6777 16.4279C22.9505 16.4822 23.201 16.6161 23.3977 16.8128C23.661 17.0767 23.8089 17.4343 23.8089 17.8071C23.8089 18.18 23.661 18.5376 23.3977 18.8015ZM31.7214 8.37525C31.9181 8.17859 32.1687 8.04466 32.4415 7.9904C32.7143 7.93614 32.997 7.96399 33.254 8.07043C33.5109 8.17686 33.7305 8.35711 33.8851 8.58836C34.0396 8.81962 34.1221 9.0915 34.1221 9.36963C34.1221 9.64776 34.0396 9.91964 33.8851 10.1509C33.7305 10.3822 33.5109 10.5624 33.254 10.6688C32.997 10.7753 32.7143 10.8031 32.4415 10.7489C32.1687 10.6946 31.9181 10.5607 31.7214 10.364C31.4581 10.1001 31.3102 9.74247 31.3102 9.36963C31.3102 8.99679 31.4581 8.63917 31.7214 8.37525Z" fill="url(#paint0_linear_46_2793)"/>
<defs>
<linearGradient id="paint0_linear_46_2793" x1="-6.06672" y1="23.9009" x2="62.7837" y2="16.1663" gradientUnits="userSpaceOnUse">
<stop stop-color="#443ED9"/>
<stop offset="1" stop-color="#F603C7"/>
</linearGradient>
</defs>
</svg>
