<svg width="51" height="52" viewBox="0 0 51 52" fill="none" xmlns="http://www.w3.org/2000/svg">
<path fill-rule="evenodd" clip-rule="evenodd" d="M49.3855 36.6404L50.4045 38.434C50.5566 38.702 50.5248 39.0366 50.3249 39.2711L46.8581 43.3346C47.3038 43.6705 47.5938 44.2025 47.5938 44.8024V49.0942C47.5938 50.0904 46.7834 50.9009 45.7872 50.9009H37.225C36.2288 50.9009 35.4184 50.0904 35.4184 49.0942V44.8024C35.4184 44.2025 35.7083 43.6705 36.1541 43.3346L34.5556 41.4609H29.5582L30.2408 46.5341H31.3213C33.3253 46.5341 34.9556 48.1645 34.9556 50.1685C34.9556 50.5729 34.6277 50.9009 34.2231 50.9009H15.6624C15.2578 50.9009 14.93 50.5729 14.93 50.1685C14.93 48.1645 16.5604 46.5341 18.5644 46.5341H19.6251L20.1535 41.4609H3.71777C1.94346 41.4609 0.5 40.0194 0.5 38.2475V14.7117C0.5 12.9398 1.94346 11.4983 3.71777 11.4982H10.2393V2.62656C10.2393 1.675 11.0134 0.900879 11.9649 0.900879H37.9206C38.8722 0.900879 39.6462 1.675 39.6463 2.62656V11.4982H46.1678C47.9421 11.4982 49.3855 12.9397 49.3855 14.7117V36.6404ZM47.9207 14.7118C47.9207 13.7477 47.1343 12.9632 46.1678 12.9632H39.6463V26.0442L40.8691 23.8917C41.1437 23.4086 41.8705 23.4122 42.1429 23.8917L47.9207 34.062V14.7118ZM42.5998 37.4217C42.5998 36.8175 42.1092 36.3259 41.506 36.3259C40.9028 36.3259 40.412 36.8175 40.412 37.4217C40.412 38.0259 40.9027 38.5175 41.506 38.5175C42.1092 38.5175 42.5998 38.0259 42.5998 37.4217ZM11.7042 33.4805H35.4217L38.1814 28.6227V17.1206H11.7042V33.4805ZM11.7042 15.6558H38.1813H38.1814V6.77773H11.7042V15.6558ZM37.9205 2.36572H11.9649C11.8212 2.36572 11.7042 2.48271 11.7042 2.62656V5.31279H38.1813V2.62656C38.1813 2.48271 38.0644 2.36572 37.9205 2.36572ZM10.2393 12.9632H3.71777C2.75127 12.9632 1.96484 13.7476 1.96484 14.7117V33.4806H10.2393V12.9632ZM16.522 49.436H33.3635C33.0624 48.5991 32.2605 47.9989 31.3212 47.9989H29.6008L29.5993 47.999L29.5973 47.9989H20.288H20.2813H18.5643C17.6249 47.9989 16.823 48.5991 16.522 49.436ZM21.0979 46.5341H28.7628L28.0801 41.4609H21.6264L21.0979 46.5341ZM20.9663 39.9961H28.7206H33.3057L32.6871 39.2711C32.4872 39.0366 32.4553 38.702 32.6075 38.434L34.5895 34.9453H10.9717H1.96484V38.2475C1.96484 39.2116 2.75127 39.9961 3.71777 39.9961H20.9663ZM45.787 49.436C45.9755 49.436 46.1288 49.2827 46.1288 49.0942V44.8024C46.1288 44.5024 45.8301 44.3966 45.5869 44.4281H37.4249C37.1817 44.3967 36.883 44.5025 36.883 44.8024V49.0942C36.883 49.2827 37.0363 49.436 37.2248 49.436H45.787ZM37.7628 42.9634H45.249L48.8771 38.7111L42.2384 27.0255V34.9686C43.2934 35.2846 44.0646 36.2645 44.0646 37.4217C44.0646 38.8336 42.9168 39.9823 41.506 39.9823C40.095 39.9823 38.9472 38.8336 38.9472 37.4217C38.9472 36.2644 39.7185 35.2845 40.7735 34.9685V27.0254L34.1349 38.711L37.7628 42.9634ZM13.4962 4.55576C14.4388 4.55576 14.4403 3.09092 13.4962 3.09092C12.5536 3.09092 12.552 4.55576 13.4962 4.55576ZM15.8777 4.55576C16.8203 4.55576 16.8219 3.09092 15.8777 3.09092C14.9352 3.09092 14.9336 4.55576 15.8777 4.55576ZM18.2594 4.55576C19.202 4.55576 19.2035 3.09092 18.2594 3.09092C17.3168 3.09092 17.3152 4.55576 18.2594 4.55576ZM27.0698 24.5017H34.2067C35.1516 24.5017 35.1516 25.9665 34.2067 25.9665H27.0698C26.1251 25.9665 26.1251 24.5017 27.0698 24.5017ZM27.0698 22.1905H34.2067C35.1516 22.1905 35.1516 20.7257 34.2067 20.7257H27.0698C26.1251 20.7257 26.1251 22.1905 27.0698 22.1905ZM27.0698 28.2776H34.2067C35.1516 28.2776 35.1516 29.7425 34.2067 29.7425H27.0698C26.1251 29.7425 26.1251 28.2776 27.0698 28.2776ZM23.9881 19.8832C23.9567 19.5096 23.6336 19.2128 23.2588 19.2128H15.6788C15.2809 19.2128 14.9464 19.5469 14.9464 19.9452V30.5229C14.9464 30.9209 15.2792 31.2554 15.6791 31.2554H23.2586C23.6584 31.2554 23.9913 30.921 23.9913 30.5229V19.9452L23.9881 19.8832ZM16.4112 22.2248L18.5677 25.2341L16.4112 28.2434V22.2248ZM17.1048 20.6776H21.8329L19.4688 23.9766L17.1048 20.6776ZM19.4688 26.4916L21.8328 29.7905H17.1047L19.4688 26.4916ZM20.3699 25.2341L22.5264 22.2248V28.2435L20.3699 25.2341Z" fill="url(#paint0_linear_47_65)"/>
<path d="M50.4045 38.434L50.5784 38.3352L50.5784 38.3352L50.4045 38.434ZM49.3855 36.6404H49.1855V36.6933L49.2117 36.7392L49.3855 36.6404ZM50.3249 39.2711L50.4771 39.4009L50.4771 39.4009L50.3249 39.2711ZM46.8581 43.3346L46.706 43.2048L46.5681 43.3664L46.7377 43.4943L46.8581 43.3346ZM36.1541 43.3346L36.2745 43.4943L36.4442 43.3664L36.3063 43.2048L36.1541 43.3346ZM34.5556 41.4609L34.7077 41.3311L34.6478 41.2609H34.5556V41.4609ZM29.5582 41.4609V41.2609H29.3295L29.36 41.4876L29.5582 41.4609ZM30.2408 46.5341L30.0426 46.5608L30.0659 46.7341H30.2408V46.5341ZM19.6251 46.5341V46.7341H19.8053L19.824 46.5548L19.6251 46.5341ZM20.1535 41.4609L20.3524 41.4817L20.3754 41.2609H20.1535V41.4609ZM3.71777 11.4982V11.2982H3.71776L3.71777 11.4982ZM10.2393 11.4982V11.6982H10.4393V11.4982H10.2393ZM39.6463 2.62656H39.8463V2.62654L39.6463 2.62656ZM39.6463 11.4982H39.4463V11.6982H39.6463V11.4982ZM39.6463 12.9632V12.7632H39.4463V12.9632H39.6463ZM39.6463 26.0442H39.4463V26.8012L39.8202 26.143L39.6463 26.0442ZM40.8691 23.8917L40.6953 23.7929L40.6952 23.7929L40.8691 23.8917ZM42.1429 23.8917L41.969 23.9905L41.969 23.9905L42.1429 23.8917ZM47.9207 34.062L47.7468 34.1608L48.1207 34.8189V34.062H47.9207ZM35.4217 33.4805V33.6805H35.5381L35.5956 33.5793L35.4217 33.4805ZM11.7042 33.4805H11.5042V33.6805H11.7042V33.4805ZM38.1814 28.6227L38.3553 28.7214L38.3814 28.6755V28.6227H38.1814ZM38.1814 17.1206H38.3814V16.9206H38.1814V17.1206ZM11.7042 17.1206V16.9206H11.5042V17.1206H11.7042ZM11.7042 15.6558H11.5042V15.8558H11.7042V15.6558ZM38.1814 15.6558V15.8558H38.3814V15.6558H38.1814ZM38.1814 6.77773H38.3814V6.57773H38.1814V6.77773ZM11.7042 6.77773V6.57773H11.5042V6.77773H11.7042ZM11.7042 5.31279H11.5042V5.51279H11.7042V5.31279ZM38.1813 5.31279V5.51279H38.3813V5.31279H38.1813ZM10.2393 12.9632H10.4393V12.7632H10.2393V12.9632ZM1.96484 33.4806H1.76484V33.6806H1.96484V33.4806ZM10.2393 33.4806V33.6806H10.4393V33.4806H10.2393ZM33.3635 49.436V49.636H33.648L33.5517 49.3683L33.3635 49.436ZM16.522 49.436L16.3338 49.3683L16.2375 49.636H16.522V49.436ZM29.6008 47.9989V47.7985L29.5873 47.7994L29.6008 47.9989ZM29.5993 47.999L29.5897 48.1988L29.6012 48.1993L29.6128 48.1986L29.5993 47.999ZM29.5973 47.9989L29.6069 47.7989H29.5973V47.9989ZM28.7628 46.5341V46.7341H28.9915L28.961 46.5074L28.7628 46.5341ZM21.0979 46.5341L20.899 46.5134L20.876 46.7341H21.0979V46.5341ZM28.0801 41.4609L28.2783 41.4343L28.255 41.2609H28.0801V41.4609ZM21.6264 41.4609V41.2609H21.4461L21.4274 41.4402L21.6264 41.4609ZM33.3057 39.9961V40.1961H33.7392L33.4578 39.8663L33.3057 39.9961ZM32.6871 39.2711L32.5349 39.4009L32.535 39.4009L32.6871 39.2711ZM32.6075 38.434L32.7814 38.5328L32.7814 38.5328L32.6075 38.434ZM34.5895 34.9453L34.7633 35.0441L34.9331 34.7453H34.5895V34.9453ZM1.96484 34.9453V34.7453H1.76484V34.9453H1.96484ZM45.5869 44.4281V44.6281H45.5998L45.6126 44.6265L45.5869 44.4281ZM37.4249 44.4281L37.3993 44.6265L37.412 44.6281H37.4249V44.4281ZM45.249 42.9634V43.1634H45.3413L45.4012 43.0932L45.249 42.9634ZM37.7628 42.9634L37.6106 43.0932L37.6705 43.1634H37.7628V42.9634ZM48.8771 38.7111L49.0292 38.8409L49.1202 38.7343L49.0509 38.6123L48.8771 38.7111ZM42.2384 27.0255L42.4123 26.9267L42.0384 26.2685V27.0255H42.2384ZM42.2384 34.9686H42.0384V35.1174L42.181 35.1601L42.2384 34.9686ZM40.7735 34.9685L40.8309 35.16L40.9735 35.1173V34.9685H40.7735ZM40.7735 27.0254H40.9735V26.2685L40.5996 26.9266L40.7735 27.0254ZM34.1349 38.711L33.961 38.6122L33.8917 38.7342L33.9827 38.8408L34.1349 38.711ZM23.9881 19.8832L24.1879 19.8728L24.1874 19.8665L23.9881 19.8832ZM23.9913 19.9452H24.1916L24.191 19.9348L23.9913 19.9452ZM18.5677 25.2341L18.7302 25.3506L18.8137 25.2341L18.7302 25.1176L18.5677 25.2341ZM16.4112 22.2248L16.5738 22.1083L16.2112 21.6024V22.2248H16.4112ZM16.4112 28.2434H16.2112V28.8658L16.5738 28.3599L16.4112 28.2434ZM21.8329 20.6776L21.9955 20.7941L22.2223 20.4776H21.8329V20.6776ZM17.1048 20.6776V20.4776H16.7154L16.9422 20.7941L17.1048 20.6776ZM19.4688 23.9766L19.3063 24.0931L19.4688 24.3199L19.6314 24.0931L19.4688 23.9766ZM21.8328 29.7905V29.9905H22.2222L21.9954 29.674L21.8328 29.7905ZM19.4688 26.4916L19.6313 26.3751L19.4688 26.1482L19.3062 26.3751L19.4688 26.4916ZM17.1047 29.7905L16.9421 29.674L16.7153 29.9905H17.1047V29.7905ZM22.5264 22.2248H22.7264V21.6024L22.3638 22.1083L22.5264 22.2248ZM20.3699 25.2341L20.2074 25.1176L20.1239 25.2341L20.2074 25.3506L20.3699 25.2341ZM22.5264 28.2435L22.3638 28.36L22.7264 28.8659V28.2435H22.5264ZM50.5784 38.3352L49.5594 36.5416L49.2117 36.7392L50.2306 38.5328L50.5784 38.3352ZM50.4771 39.4009C50.7316 39.1024 50.7721 38.6764 50.5784 38.3352L50.2306 38.5327C50.3412 38.7275 50.318 38.9709 50.1727 39.1413L50.4771 39.4009ZM47.0103 43.4644L50.4771 39.4009L50.1728 39.1413L46.706 43.2048L47.0103 43.4644ZM47.7938 44.8024C47.7938 44.1364 47.4716 43.5465 46.9785 43.1749L46.7377 43.4943C47.1361 43.7945 47.3938 44.2687 47.3938 44.8024H47.7938ZM47.7938 49.0942V44.8024H47.3938V49.0942H47.7938ZM45.7872 51.1009C46.8939 51.1009 47.7938 50.2009 47.7938 49.0942H47.3938C47.3938 49.98 46.6729 50.7009 45.7872 50.7009V51.1009ZM37.225 51.1009H45.7872V50.7009H37.225V51.1009ZM35.2184 49.0942C35.2184 50.2009 36.1184 51.1009 37.225 51.1009V50.7009C36.3393 50.7009 35.6184 49.98 35.6184 49.0942H35.2184ZM35.2184 44.8024V49.0942H35.6184V44.8024H35.2184ZM36.0337 43.1748C35.5405 43.5465 35.2184 44.1364 35.2184 44.8024H35.6184C35.6184 44.2687 35.8761 43.7945 36.2745 43.4943L36.0337 43.1748ZM34.4034 41.5907L36.002 43.4644L36.3063 43.2048L34.7077 41.3311L34.4034 41.5907ZM29.5582 41.6609H34.5556V41.2609H29.5582V41.6609ZM30.439 46.5074L29.7564 41.4343L29.36 41.4876L30.0426 46.5608L30.439 46.5074ZM31.3213 46.3341H30.2408V46.7341H31.3213V46.3341ZM35.1556 50.1685C35.1556 48.054 33.4358 46.3341 31.3213 46.3341V46.7341C33.2148 46.7341 34.7556 48.2749 34.7556 50.1685H35.1556ZM34.2231 51.1009C34.7382 51.1009 35.1556 50.6834 35.1556 50.1685H34.7556C34.7556 50.4625 34.5173 50.7009 34.2231 50.7009V51.1009ZM15.6624 51.1009H34.2231V50.7009H15.6624V51.1009ZM14.73 50.1685C14.73 50.6834 15.1473 51.1009 15.6624 51.1009V50.7009C15.3683 50.7009 15.13 50.4625 15.13 50.1685H14.73ZM18.5644 46.3341C16.4499 46.3341 14.73 48.054 14.73 50.1685H15.13C15.13 48.2749 16.6708 46.7341 18.5644 46.7341V46.3341ZM19.6251 46.3341H18.5644V46.7341H19.6251V46.3341ZM19.9546 41.4402L19.4262 46.5134L19.824 46.5548L20.3524 41.4817L19.9546 41.4402ZM3.71777 41.6609H20.1535V41.2609H3.71777V41.6609ZM0.3 38.2475C0.3 40.1301 1.83325 41.6609 3.71777 41.6609V41.2609C2.05366 41.2609 0.7 39.9087 0.7 38.2475H0.3ZM0.3 14.7117V38.2475H0.7V14.7117H0.3ZM3.71776 11.2982C1.83326 11.2983 0.3 12.8291 0.3 14.7117H0.7C0.7 13.0506 2.05366 11.6983 3.71778 11.6982L3.71776 11.2982ZM10.2393 11.2982H3.71777V11.6982H10.2393V11.2982ZM10.0393 2.62656V11.4982H10.4393V2.62656H10.0393ZM11.9649 0.700879C10.9029 0.700879 10.0393 1.56454 10.0393 2.62656H10.4393C10.4393 1.78546 11.1238 1.10088 11.9649 1.10088V0.700879ZM37.9206 0.700879H11.9649V1.10088H37.9206V0.700879ZM39.8463 2.62654C39.8462 1.56456 38.9826 0.700879 37.9206 0.700879V1.10088C38.7617 1.10088 39.4462 1.78544 39.4463 2.62658L39.8463 2.62654ZM39.8463 11.4982V2.62656H39.4463V11.4982H39.8463ZM46.1678 11.2982H39.6463V11.6982H46.1678V11.2982ZM49.5855 14.7117C49.5855 12.829 48.0523 11.2982 46.1678 11.2982V11.6982C47.8319 11.6982 49.1855 13.0505 49.1855 14.7117H49.5855ZM49.5855 36.6404V14.7117H49.1855V36.6404H49.5855ZM46.1678 13.1632C47.0243 13.1632 47.7207 13.8586 47.7207 14.7118H48.1207C48.1207 13.6367 47.2443 12.7632 46.1678 12.7632V13.1632ZM39.6463 13.1632H46.1678V12.7632H39.6463V13.1632ZM39.8463 26.0442V12.9632H39.4463V26.0442H39.8463ZM40.6952 23.7929L39.4724 25.9454L39.8202 26.143L41.043 23.9905L40.6952 23.7929ZM42.3168 23.7929C41.9682 23.1793 41.0469 23.174 40.6953 23.7929L41.043 23.9905C41.2404 23.6431 41.7728 23.6451 41.969 23.9905L42.3168 23.7929ZM48.0946 33.9632L42.3168 23.7929L41.969 23.9905L47.7468 34.1608L48.0946 33.9632ZM47.7207 14.7118V34.062H48.1207V14.7118H47.7207ZM41.506 36.5259C41.9984 36.5259 42.3998 36.9276 42.3998 37.4217H42.7998C42.7998 36.7074 42.22 36.1259 41.506 36.1259V36.5259ZM40.612 37.4217C40.612 36.9276 41.0136 36.5259 41.506 36.5259V36.1259C40.7921 36.1259 40.212 36.7073 40.212 37.4217H40.612ZM41.506 38.3175C41.0135 38.3175 40.612 37.9157 40.612 37.4217H40.212C40.212 38.136 40.792 38.7175 41.506 38.7175V38.3175ZM42.3998 37.4217C42.3998 37.9158 41.9984 38.3175 41.506 38.3175V38.7175C42.22 38.7175 42.7998 38.136 42.7998 37.4217H42.3998ZM35.4217 33.2805H11.7042V33.6805H35.4217V33.2805ZM38.0075 28.5239L35.2478 33.3817L35.5956 33.5793L38.3553 28.7214L38.0075 28.5239ZM37.9814 17.1206V28.6227H38.3814V17.1206H37.9814ZM11.7042 17.3206H38.1814V16.9206H11.7042V17.3206ZM11.9042 33.4805V17.1206H11.5042V33.4805H11.9042ZM38.1813 15.4558H11.7042V15.8558H38.1813V15.4558ZM38.1814 15.4558H38.1813V15.8558H38.1814V15.4558ZM37.9814 6.77773V15.6558H38.3814V6.77773H37.9814ZM11.7042 6.97773H38.1814V6.57773H11.7042V6.97773ZM11.9042 15.6558V6.77773H11.5042V15.6558H11.9042ZM11.9649 2.56572H37.9205V2.16572H11.9649V2.56572ZM11.9042 2.62656C11.9042 2.59312 11.9317 2.56572 11.9649 2.56572V2.16572C11.7107 2.16572 11.5042 2.37231 11.5042 2.62656H11.9042ZM11.9042 5.31279V2.62656H11.5042V5.31279H11.9042ZM38.1813 5.11279H11.7042V5.51279H38.1813V5.11279ZM37.9813 2.62656V5.31279H38.3813V2.62656H37.9813ZM37.9205 2.56572C37.9539 2.56572 37.9813 2.59317 37.9813 2.62656H38.3813C38.3813 2.37226 38.1748 2.16572 37.9205 2.16572V2.56572ZM3.71777 13.1632H10.2393V12.7632H3.71777V13.1632ZM2.16484 14.7117C2.16484 13.8585 2.86125 13.1632 3.71777 13.1632V12.7632C2.64129 12.7632 1.76484 13.6366 1.76484 14.7117H2.16484ZM2.16484 33.4806V14.7117H1.76484V33.4806H2.16484ZM10.2393 33.2806H1.96484V33.6806H10.2393V33.2806ZM10.0393 12.9632V33.4806H10.4393V12.9632H10.0393ZM33.3635 49.236H16.522V49.636H33.3635V49.236ZM31.3212 48.1989C32.1733 48.1989 32.9018 48.7435 33.1753 49.5037L33.5517 49.3683C33.223 48.4548 32.3478 47.7989 31.3212 47.7989V48.1989ZM29.6008 48.1989H31.3212V47.7989H29.6008V48.1989ZM29.6128 48.1986L29.6143 48.1985L29.5873 47.7994L29.5858 47.7995L29.6128 48.1986ZM29.5876 48.1987L29.5897 48.1988L29.609 47.7993L29.6069 47.7992L29.5876 48.1987ZM20.288 48.1989H29.5973V47.7989H20.288V48.1989ZM20.2813 48.1989H20.288V47.7989H20.2813V48.1989ZM18.5643 48.1989H20.2813V47.7989H18.5643V48.1989ZM16.7102 49.5037C16.9837 48.7435 17.7121 48.1989 18.5643 48.1989V47.7989C17.5377 47.7989 16.6624 48.4548 16.3338 49.3683L16.7102 49.5037ZM28.7628 46.3341H21.0979V46.7341H28.7628V46.3341ZM27.8819 41.4876L28.5646 46.5608L28.961 46.5074L28.2783 41.4343L27.8819 41.4876ZM21.6264 41.6609H28.0801V41.2609H21.6264V41.6609ZM21.2969 46.5548L21.8253 41.4817L21.4274 41.4402L20.899 46.5134L21.2969 46.5548ZM28.7206 39.7961H20.9663V40.1961H28.7206V39.7961ZM33.3057 39.7961H28.7206V40.1961H33.3057V39.7961ZM32.535 39.4009L33.1535 40.1259L33.4578 39.8663L32.8393 39.1413L32.535 39.4009ZM32.4336 38.3352C32.2398 38.6764 32.2805 39.1024 32.5349 39.4009L32.8393 39.1413C32.6939 38.9708 32.6708 38.7275 32.7814 38.5328L32.4336 38.3352ZM34.4156 34.8465L32.4336 38.3352L32.7814 38.5328L34.7633 35.0441L34.4156 34.8465ZM10.9717 35.1453H34.5895V34.7453H10.9717V35.1453ZM1.96484 35.1453H10.9717V34.7453H1.96484V35.1453ZM2.16484 38.2475V34.9453H1.76484V38.2475H2.16484ZM3.71777 39.7961C2.86126 39.7961 2.16484 39.1007 2.16484 38.2475H1.76484C1.76484 39.3225 2.64128 40.1961 3.71777 40.1961V39.7961ZM20.9663 39.7961H3.71777V40.1961H20.9663V39.7961ZM45.9288 49.0942C45.9288 49.1723 45.865 49.236 45.787 49.236V49.636C46.0859 49.636 46.3288 49.3932 46.3288 49.0942H45.9288ZM45.9288 44.8024V49.0942H46.3288V44.8024H45.9288ZM45.6126 44.6265C45.7006 44.6151 45.7902 44.6306 45.8498 44.6646C45.8998 44.6931 45.9288 44.7322 45.9288 44.8024H46.3288C46.3288 44.5727 46.2085 44.4088 46.0482 44.3173C45.8977 44.2313 45.7164 44.2097 45.5612 44.2298L45.6126 44.6265ZM37.4249 44.6281H45.5869V44.2281H37.4249V44.6281ZM37.083 44.8024C37.083 44.7322 37.112 44.6932 37.162 44.6647C37.2216 44.6306 37.3113 44.6151 37.3993 44.6265L37.4506 44.2298C37.2954 44.2097 37.1141 44.2314 36.9636 44.3174C36.8034 44.4089 36.683 44.5728 36.683 44.8024H37.083ZM37.083 49.0942V44.8024H36.683V49.0942H37.083ZM37.2248 49.236C37.1468 49.236 37.083 49.1723 37.083 49.0942H36.683C36.683 49.3932 36.9259 49.636 37.2248 49.636V49.236ZM45.787 49.236H37.2248V49.636H45.787V49.236ZM45.249 42.7634H37.7628V43.1634H45.249V42.7634ZM48.7249 38.5813L45.0969 42.8336L45.4012 43.0932L49.0292 38.8409L48.7249 38.5813ZM42.0645 27.1243L48.7032 38.8099L49.0509 38.6123L42.4123 26.9267L42.0645 27.1243ZM42.4384 34.9686V27.0255H42.0384V34.9686H42.4384ZM44.2646 37.4217C44.2646 36.1735 43.4329 35.1176 42.2958 34.777L42.181 35.1601C43.1538 35.4516 43.8646 36.3554 43.8646 37.4217H44.2646ZM41.506 40.1823C43.0274 40.1823 44.2646 38.9439 44.2646 37.4217H43.8646C43.8646 38.7233 42.8062 39.7823 41.506 39.7823V40.1823ZM38.7472 37.4217C38.7472 38.9439 39.9844 40.1823 41.506 40.1823V39.7823C40.2056 39.7823 39.1472 38.7233 39.1472 37.4217H38.7472ZM40.7162 34.7769C39.5789 35.1175 38.7472 36.1734 38.7472 37.4217H39.1472C39.1472 36.3553 39.858 35.4515 40.8309 35.16L40.7162 34.7769ZM40.5735 27.0254V34.9685H40.9735V27.0254H40.5735ZM34.3088 38.8098L40.9474 27.1242L40.5996 26.9266L33.961 38.6122L34.3088 38.8098ZM37.9149 42.8336L34.287 38.5812L33.9827 38.8408L37.6106 43.0932L37.9149 42.8336ZM13.4962 4.75576C13.7886 4.75576 14.0214 4.6399 14.1783 4.45719C14.3317 4.27865 14.4036 4.04734 14.4037 3.82345C14.4038 3.59956 14.3322 3.36816 14.1788 3.18952C14.0218 3.0067 13.7889 2.89092 13.4962 2.89092V3.29092C13.6755 3.29092 13.7965 3.35824 13.8753 3.45008C13.9577 3.5461 14.0038 3.68091 14.0037 3.82323C14.0036 3.96555 13.9574 4.10046 13.8749 4.19657C13.7959 4.28851 13.675 4.35576 13.4962 4.35576V4.75576ZM13.4962 2.89092C13.2038 2.89092 12.971 3.00677 12.814 3.18949C12.6607 3.36803 12.5888 3.59934 12.5887 3.82323C12.5886 4.04712 12.6602 4.27852 12.8136 4.45716C12.9705 4.63998 13.2035 4.75576 13.4962 4.75576V4.35576C13.3168 4.35576 13.1959 4.28844 13.1171 4.1966C13.0346 4.10058 12.9886 3.96577 12.9887 3.82345C12.9887 3.68113 13.0349 3.54622 13.1175 3.45011C13.1965 3.35817 13.3173 3.29092 13.4962 3.29092V2.89092ZM15.8777 4.75576C16.1702 4.75576 16.403 4.6399 16.5599 4.45719C16.7132 4.27865 16.7851 4.04734 16.7853 3.82345C16.7854 3.59956 16.7137 3.36816 16.5603 3.18952C16.4034 3.0067 16.1705 2.89092 15.8777 2.89092V3.29092C16.0571 3.29092 16.178 3.35824 16.2568 3.45008C16.3393 3.5461 16.3853 3.68091 16.3853 3.82323C16.3852 3.96555 16.339 4.10046 16.2564 4.19657C16.1775 4.28851 16.0566 4.35576 15.8777 4.35576V4.75576ZM15.8777 2.89092C15.5853 2.89092 15.3525 3.00677 15.1956 3.18949C15.0423 3.36803 14.9703 3.59934 14.9702 3.82323C14.9701 4.04712 15.0418 4.27852 15.1951 4.45716C15.3521 4.63998 15.585 4.75576 15.8777 4.75576V4.35576C15.6984 4.35576 15.5775 4.28844 15.4986 4.1966C15.4162 4.10058 15.3701 3.96577 15.3702 3.82345C15.3703 3.68113 15.4165 3.54622 15.499 3.45011C15.578 3.35817 15.6989 3.29092 15.8777 3.29092V2.89092ZM18.2594 4.75576C18.5518 4.75576 18.7846 4.6399 18.9415 4.45719C19.0949 4.27865 19.1668 4.04734 19.1669 3.82345C19.167 3.59956 19.0953 3.36816 18.942 3.18952C18.785 3.0067 18.5521 2.89092 18.2594 2.89092V3.29092C18.4387 3.29092 18.5596 3.35824 18.6385 3.45008C18.7209 3.5461 18.767 3.68091 18.7669 3.82323C18.7668 3.96555 18.7206 4.10046 18.6381 4.19657C18.5591 4.28851 18.4382 4.35576 18.2594 4.35576V4.75576ZM18.2594 2.89092C17.9669 2.89092 17.7342 3.00677 17.5772 3.18949C17.4239 3.36803 17.352 3.59934 17.3519 3.82323C17.3517 4.04712 17.4234 4.27852 17.5768 4.45716C17.7337 4.63998 17.9667 4.75576 18.2594 4.75576V4.35576C18.08 4.35576 17.9591 4.28844 17.8803 4.1966C17.7978 4.10058 17.7518 3.96577 17.7519 3.82345C17.7519 3.68113 17.7981 3.54622 17.8807 3.45011C17.9596 3.35817 18.0805 3.29092 18.2594 3.29092V2.89092ZM34.2067 24.3017H27.0698V24.7017H34.2067V24.3017ZM34.2067 26.1665C34.4996 26.1665 34.7327 26.0508 34.8898 25.868C35.0434 25.6894 35.1154 25.4581 35.1154 25.2341C35.1154 25.0101 35.0434 24.7787 34.8898 24.6001C34.7327 24.4174 34.4996 24.3017 34.2067 24.3017V24.7017C34.3863 24.7017 34.5075 24.769 34.5866 24.8609C34.6692 24.957 34.7154 25.0918 34.7154 25.2341C34.7154 25.3763 34.6692 25.5111 34.5866 25.6072C34.5075 25.6991 34.3863 25.7665 34.2067 25.7665V26.1665ZM27.0698 26.1665H34.2067V25.7665H27.0698V26.1665ZM27.0698 24.3017C26.777 24.3017 26.5439 24.4174 26.3868 24.6001C26.2332 24.7787 26.1613 25.0101 26.1613 25.2341C26.1613 25.458 26.2332 25.6894 26.3868 25.868C26.5439 26.0508 26.777 26.1665 27.0698 26.1665V25.7665C26.8903 25.7665 26.7691 25.6991 26.6901 25.6072C26.6074 25.5111 26.5613 25.3763 26.5613 25.2341C26.5613 25.0918 26.6074 24.957 26.6901 24.8609C26.7691 24.769 26.8903 24.7017 27.0698 24.7017V24.3017ZM34.2067 21.9905H27.0698V22.3905H34.2067V21.9905ZM34.2067 20.9257C34.3863 20.9257 34.5075 20.9931 34.5866 21.085C34.6692 21.181 34.7154 21.3159 34.7154 21.4581C34.7154 21.6003 34.6692 21.7352 34.5866 21.8312C34.5075 21.9232 34.3863 21.9905 34.2067 21.9905V22.3905C34.4996 22.3905 34.7327 22.2748 34.8898 22.0921C35.0434 21.9135 35.1154 21.6821 35.1154 21.4581C35.1154 21.2341 35.0434 21.0027 34.8898 20.8242C34.7327 20.6414 34.4996 20.5257 34.2067 20.5257V20.9257ZM27.0698 20.9257H34.2067V20.5257H27.0698V20.9257ZM27.0698 21.9905C26.8903 21.9905 26.7691 21.9232 26.6901 21.8312C26.6074 21.7352 26.5613 21.6004 26.5613 21.4581C26.5613 21.3159 26.6074 21.181 26.6901 21.085C26.7691 20.9931 26.8903 20.9257 27.0698 20.9257V20.5257C26.777 20.5257 26.5439 20.6414 26.3868 20.8242C26.2332 21.0027 26.1613 21.2341 26.1613 21.4581C26.1613 21.6821 26.2332 21.9135 26.3868 22.092C26.5439 22.2748 26.777 22.3905 27.0698 22.3905V21.9905ZM34.2067 28.0776H27.0698V28.4776H34.2067V28.0776ZM34.2067 29.9425C34.4996 29.9425 34.7327 29.8267 34.8898 29.644C35.0434 29.4654 35.1154 29.234 35.1154 29.0101C35.1154 28.7861 35.0434 28.5547 34.8898 28.3761C34.7327 28.1934 34.4996 28.0776 34.2067 28.0776V28.4776C34.3863 28.4776 34.5075 28.545 34.5866 28.6369C34.6692 28.733 34.7154 28.8678 34.7154 29.0101C34.7154 29.1523 34.6692 29.2871 34.5866 29.3832C34.5075 29.4751 34.3863 29.5425 34.2067 29.5425V29.9425ZM27.0698 29.9425H34.2067V29.5425H27.0698V29.9425ZM27.0698 28.0776C26.777 28.0776 26.5439 28.1934 26.3868 28.3761C26.2332 28.5547 26.1613 28.7861 26.1613 29.0101C26.1613 29.234 26.2332 29.4654 26.3868 29.644C26.5439 29.8267 26.777 29.9425 27.0698 29.9425V29.5425C26.8903 29.5425 26.7691 29.4751 26.6901 29.3832C26.6074 29.2871 26.5613 29.1523 26.5613 29.0101C26.5613 28.8678 26.6074 28.733 26.6901 28.6369C26.7691 28.545 26.8903 28.4776 27.0698 28.4776V28.0776ZM23.2588 19.4128C23.5297 19.4128 23.7661 19.63 23.7888 19.8999L24.1874 19.8665C24.1473 19.3891 23.7374 19.0128 23.2588 19.0128V19.4128ZM15.6788 19.4128H23.2588V19.0128H15.6788V19.4128ZM15.1464 19.9452C15.1464 19.6574 15.3912 19.4128 15.6788 19.4128V19.0128C15.1705 19.0128 14.7464 19.4363 14.7464 19.9452H15.1464ZM15.1464 30.5229V19.9452H14.7464V30.5229H15.1464ZM15.6791 31.0554C15.3899 31.0554 15.1464 30.8107 15.1464 30.5229H14.7464C14.7464 31.0311 15.1685 31.4554 15.6791 31.4554V31.0554ZM23.2586 31.0554H15.6791V31.4554H23.2586V31.0554ZM23.7913 30.5229C23.7913 30.8107 23.5477 31.0554 23.2586 31.0554V31.4554C23.7691 31.4554 24.1913 31.0312 24.1913 30.5229H23.7913ZM23.7913 19.9452V30.5229H24.1913V19.9452H23.7913ZM23.7884 19.8936L23.7916 19.9556L24.191 19.9348L24.1878 19.8728L23.7884 19.8936ZM18.7302 25.1176L16.5738 22.1083L16.2487 22.3413L18.4051 25.3506L18.7302 25.1176ZM16.5738 28.3599L18.7302 25.3506L18.4051 25.1176L16.2487 28.1269L16.5738 28.3599ZM16.2112 22.2248V28.2434H16.6112V22.2248H16.2112ZM21.8329 20.4776H17.1048V20.8776H21.8329V20.4776ZM19.6314 24.0931L21.9955 20.7941L21.6703 20.5611L19.3063 23.8601L19.6314 24.0931ZM16.9422 20.7941L19.3063 24.0931L19.6314 23.8601L17.2674 20.5611L16.9422 20.7941ZM21.9954 29.674L19.6313 26.3751L19.3062 26.6081L21.6702 29.907L21.9954 29.674ZM17.1047 29.9905H21.8328V29.5905H17.1047V29.9905ZM19.3062 26.3751L16.9421 29.674L17.2673 29.907L19.6313 26.6081L19.3062 26.3751ZM22.3638 22.1083L20.2074 25.1176L20.5325 25.3506L22.6889 22.3413L22.3638 22.1083ZM22.7264 28.2435V22.2248H22.3264V28.2435H22.7264ZM20.2074 25.3506L22.3638 28.36L22.6889 28.127L20.5325 25.1176L20.2074 25.3506Z" fill="url(#paint1_linear_47_65)"/>
<defs>
<linearGradient id="paint0_linear_47_65" x1="-5.22917" y1="25.9009" x2="56.2115" y2="20.1485" gradientUnits="userSpaceOnUse">
<stop stop-color="#443ED9"/>
<stop offset="1" stop-color="#F603C7"/>
</linearGradient>
<linearGradient id="paint1_linear_47_65" x1="-5.22917" y1="25.9009" x2="56.2115" y2="20.1485" gradientUnits="userSpaceOnUse">
<stop stop-color="#443ED9"/>
<stop offset="1" stop-color="#F603C7"/>
</linearGradient>
</defs>
</svg>
