<svg width="48" height="49" viewBox="0 0 48 49" fill="none" xmlns="http://www.w3.org/2000/svg">
<path fill-rule="evenodd" clip-rule="evenodd" d="M44.9924 1.02197H8.08334C6.68182 1.02197 5.53789 2.16591 5.53789 3.56743V7.45379H3.00758C1.60607 7.45379 0.462128 8.59773 0.462128 9.99925V41.9159C0.462128 43.3174 1.60607 44.4614 3.00758 44.4614H19.9242V48.1432C19.9242 48.4917 20.2121 48.7795 20.5606 48.7795H32.5152C32.8636 48.7795 33.1515 48.4917 33.1515 48.1432V44.4614H39.9167C41.3182 44.4614 42.4621 43.3174 42.4621 41.9159V38.0296H44.9924C46.3939 38.0296 47.5379 36.8856 47.5379 35.4841V3.56743C47.5379 2.16591 46.3939 1.02197 44.9924 1.02197ZM6.81061 3.56743C6.81061 2.86288 7.38637 2.2947 8.08334 2.2947H44.9924C45.697 2.2947 46.2652 2.87046 46.2652 3.56743V9.15076H22.1136L19.2727 6.20379C19.053 5.97652 18.75 5.84773 18.4394 5.84773H12.1818C11.5455 5.84773 11.0227 6.37046 11.0227 7.00682V9.15076H6.81061V3.56743ZM3.00758 43.1962C2.30304 43.1962 1.73486 42.6205 1.73486 41.9235V9.99925C1.73486 9.2947 2.31061 8.72652 3.00758 8.72652H5.53789V35.4917C5.53789 36.8932 6.68182 38.0371 8.08334 38.0371H21.9015C22.1515 38.522 22.2652 39.0674 22.2197 39.628H21.2349C20.5076 39.628 19.9242 40.2189 19.9242 40.9386V43.1962H3.00758ZM25.9091 29.8705C26.0379 29.6432 26.2727 29.4992 26.5379 29.4992C26.9318 29.4992 27.25 29.8174 27.25 30.2114C27.25 30.4689 27.1136 30.7038 26.8939 30.8326C26.6515 30.9765 26.3636 30.9614 26.0682 30.7947C26.0303 30.772 25.9924 30.7417 25.9773 30.7038C25.7349 30.3174 25.8333 30.0144 25.9091 29.8705ZM25.9015 28.3477C25.4394 28.5068 25.0455 28.8174 24.803 29.2568C24.4394 29.9083 24.4849 30.7038 24.9091 31.3856C25.0455 31.5977 25.2273 31.772 25.447 31.9008C25.7955 32.0977 26.1742 32.2038 26.5455 32.2038C26.8939 32.2038 27.2349 32.1129 27.5379 31.9386C28.1439 31.5826 28.5227 30.9235 28.5227 30.2189C28.5227 29.3477 27.9545 28.6129 27.1742 28.3477V25.075L32.803 35.2341L32.801 35.2363L32.7978 35.2401L32.7978 35.2402C32.7913 35.2481 32.7828 35.2585 32.7652 35.2644C30.7727 35.7796 29.4697 37.6432 29.5758 39.628H23.5076C23.6212 37.6356 22.3106 35.772 20.2803 35.2038L25.9015 25.075V28.3477ZM31.8788 47.5068H21.197L21.2349 40.8932H31.8409C31.8636 40.8932 31.8788 40.9083 31.8788 40.9311V47.5068ZM41.1894 41.9159C41.1894 42.6205 40.6136 43.1886 39.9167 43.1886H33.1515V40.9311C33.1515 40.2038 32.5606 39.6205 31.8409 39.6205H30.8561C30.8106 39.0599 30.9318 38.5144 31.1742 38.0296H41.1894V41.9159ZM44.9924 36.7644H32.4091C32.6136 36.6508 32.8333 36.5523 33.0758 36.4917C33.4773 36.3856 33.803 36.1053 33.9697 35.7265C34.1288 35.3553 34.1061 34.9386 33.9091 34.5826L27.3939 22.8477C27.2273 22.5371 26.9015 22.3402 26.5455 22.3402C26.1818 22.3477 25.8561 22.5296 25.6818 22.8402L19.1591 34.5826C18.9621 34.9386 18.947 35.3629 19.1061 35.7341C19.2652 36.1129 19.5909 36.3856 19.9924 36.4917C20.2349 36.5523 20.447 36.6508 20.6591 36.7644H8.08334C7.37879 36.7644 6.81061 36.1886 6.81061 35.4917V10.4235H11.1288C11.7652 10.4235 12.2879 9.90076 12.2879 9.2644V7.12046H18.3864L21.2273 10.0674C21.447 10.2947 21.75 10.4235 22.0606 10.4235H46.2652V35.4841C46.2652 36.1886 45.697 36.7644 44.9924 36.7644ZM43 7.5144C43.9924 7.5144 44.7955 6.71137 44.7955 5.71894C44.7955 4.72652 43.9924 3.92349 43 3.92349C42.0076 3.92349 41.2046 4.72652 41.2046 5.71894C41.2046 6.71137 42.0152 7.5144 43 7.5144ZM43 5.20379C43.2879 5.20379 43.5227 5.43864 43.5227 5.72652C43.5227 6.0144 43.2879 6.24925 43 6.24925C42.7046 6.24925 42.4773 6.02197 42.4773 5.72652C42.4773 5.43106 42.7121 5.20379 43 5.20379ZM40.4621 5.71894C40.4621 6.71137 39.6591 7.5144 38.6667 7.5144C37.6743 7.5144 36.8712 6.71137 36.8712 5.71894C36.8712 4.72652 37.6743 3.92349 38.6667 3.92349C39.6591 3.92349 40.4621 4.72652 40.4621 5.71894ZM39.1894 5.72652C39.1894 5.43864 38.9546 5.20379 38.6667 5.20379C38.3788 5.20379 38.1439 5.43106 38.1439 5.72652C38.1439 6.02197 38.3712 6.24925 38.6667 6.24925C38.9546 6.24925 39.1894 6.0144 39.1894 5.72652ZM34.3258 7.5144C35.3182 7.5144 36.1212 6.71137 36.1212 5.71894C36.1212 4.72652 35.3182 3.92349 34.3258 3.92349C33.3333 3.92349 32.5303 4.72652 32.5303 5.71894C32.5303 6.71137 33.3333 7.5144 34.3258 7.5144ZM34.3258 5.20379C34.6136 5.20379 34.8485 5.43864 34.8485 5.72652C34.8485 6.0144 34.6136 6.24925 34.3258 6.24925C34.0303 6.24925 33.803 6.02197 33.803 5.72652C33.803 5.43106 34.0379 5.20379 34.3258 5.20379ZM38.1061 17.3099C38.197 16.8099 38.4318 16.3402 38.803 15.9689C39.75 15.0295 41.394 15.022 42.3864 15.9614C43.1667 16.7568 43.3409 17.8856 42.8485 18.9235C42.6364 19.3705 42.2803 19.7341 41.8485 19.9538C41.447 20.1583 41.0227 20.2568 40.6061 20.2568C39.947 20.2568 39.3106 20.0068 38.8333 19.5144C38.5682 19.2492 38.3712 18.9311 38.25 18.5826H32.0606C35.4091 20.2114 37.9394 23.2947 38.8258 27.0068H39.8636C40.5455 27.0068 41.0985 27.5599 41.0985 28.2417V31.1129C41.0985 31.7947 40.5455 32.3477 39.8636 32.3477H36.9924C36.3106 32.3477 35.7576 31.7947 35.7576 31.1129V28.2417C35.7576 27.5599 36.3106 27.0068 36.9924 27.0068H37.5152C36.447 23.0068 33.2424 19.8705 29.2273 18.9008V19.1735C29.2273 19.8553 28.6743 20.4083 27.9924 20.4083H25.1212C24.4394 20.4083 23.8864 19.8553 23.8864 19.1735V18.9008C19.8636 19.8705 16.6591 23.0068 15.5985 27.0068H16.1743C16.8561 27.0068 17.4091 27.5599 17.4091 28.2417V31.1129C17.4091 31.7947 16.8561 32.3477 16.1743 32.3477H13.303C12.6212 32.3477 12.0682 31.7947 12.0682 31.1129V28.2417C12.0682 27.5599 12.6212 27.0068 13.303 27.0068H14.2879C15.1667 23.2947 17.697 20.2189 21.053 18.5826H14.8788C14.8409 18.6962 14.7955 18.8099 14.7424 18.9235C14.5303 19.3705 14.1742 19.7341 13.7424 19.9538C13.3409 20.1583 12.9167 20.2568 12.5 20.2568C11.8409 20.2568 11.2046 20.0068 10.7273 19.5144C10.2576 19.0523 9.99243 18.4159 9.99243 17.7417C9.99243 17.075 10.25 16.4462 10.7273 15.9689C11.6667 15.0295 13.3106 15.0144 14.2727 15.9614C14.6515 16.3477 14.8864 16.8174 14.9697 17.3099H23.8636V16.3099C23.8636 15.628 24.4167 15.075 25.0985 15.075H27.9697C28.6515 15.075 29.2046 15.628 29.2046 16.3099V17.3099H38.1061ZM13.1591 18.8174C13.3409 18.7265 13.4924 18.5674 13.5833 18.3856C13.8409 17.8326 13.7652 17.2644 13.3712 16.8553C13.1439 16.628 12.8258 16.4992 12.5 16.4992C12.1667 16.4992 11.8561 16.628 11.6212 16.8629C11.3864 17.1053 11.2576 17.4159 11.2576 17.7417C11.2576 18.075 11.3864 18.3856 11.6212 18.6129C11.9318 18.9386 12.5 19.1508 13.1591 18.8174ZM13.3258 31.1129L16.1591 31.075L16.1212 28.2795H13.2879L13.3258 31.1129ZM37.0076 31.1129L39.8409 31.075L39.803 28.2795H36.9697L37.0076 31.1129ZM25.1288 18.2265L25.1439 19.1811L27.9849 19.1508L27.9697 18.2947C27.947 18.2114 27.9394 18.1205 27.9546 18.022V18.0144C27.953 18.0097 27.9514 18.0052 27.9499 18.001C27.9441 17.985 27.9394 17.9718 27.9394 17.9538C27.9394 17.9296 27.9456 17.9084 27.952 17.8865C27.9557 17.8741 27.9594 17.8614 27.9621 17.8477L27.9394 16.3553H25.1061L25.1288 17.8477C25.1311 17.8568 25.134 17.866 25.1371 17.8753C25.1441 17.8969 25.1515 17.9197 25.1515 17.9462C25.1515 17.9576 25.1477 17.967 25.1439 17.9765C25.1402 17.986 25.1364 17.9955 25.1364 18.0068V18.0144C25.1439 18.0902 25.1439 18.1583 25.1288 18.2265ZM41.2424 18.8174C41.4243 18.7265 41.5758 18.5674 41.6667 18.3856C41.9243 17.8326 41.8485 17.2644 41.4546 16.8553C41.2273 16.628 40.9091 16.4992 40.5833 16.4992C40.25 16.4992 39.9394 16.628 39.7046 16.8629C39.4697 17.1053 39.3409 17.4159 39.3409 17.7417C39.3409 18.075 39.4697 18.3856 39.7046 18.6129C40.0152 18.9386 40.5833 19.1508 41.2424 18.8174Z" fill="url(#paint0_linear_46_2845)"/>
<path d="M5.53789 7.45379V7.65379H5.73789V7.45379H5.53789ZM19.9242 44.4614H20.1243V44.2614H19.9242V44.4614ZM33.1515 44.4614V44.2614H32.9515V44.4614H33.1515ZM42.4621 38.0296V37.8296H42.2621V38.0296H42.4621ZM46.2652 9.15076V9.35076H46.4652V9.15076H46.2652ZM22.1136 9.15076L21.9697 9.28957L22.0286 9.35076H22.1136V9.15076ZM19.2727 6.20379L19.4167 6.06498L19.4165 6.06479L19.2727 6.20379ZM11.0227 9.15076V9.35076H11.2227V9.15076H11.0227ZM6.81061 9.15076H6.61061V9.35076H6.81061V9.15076ZM5.53789 8.72652H5.73789V8.52652H5.53789V8.72652ZM21.9015 38.0371L22.0793 37.9455L22.0234 37.8371H21.9015V38.0371ZM22.2197 39.628V39.828H22.4041L22.419 39.6442L22.2197 39.628ZM19.9242 43.1962V43.3962H20.1243V43.1962H19.9242ZM25.9091 29.8705L25.735 29.7718L25.7321 29.7773L25.9091 29.8705ZM26.8939 30.8326L26.7928 30.66L26.7918 30.6606L26.8939 30.8326ZM26.0682 30.7947L25.9653 30.9663L25.9699 30.9689L26.0682 30.7947ZM25.9773 30.7038L26.163 30.6295L26.1563 30.6128L26.1467 30.5975L25.9773 30.7038ZM24.803 29.2568L24.9777 29.3543L24.9782 29.3534L24.803 29.2568ZM25.9015 28.3477L25.9666 28.5368L26.1015 28.4904V28.3477H25.9015ZM24.9091 31.3856L24.7393 31.4913L24.7409 31.4938L24.9091 31.3856ZM25.447 31.9008L25.3458 32.0733L25.3486 32.0749L25.447 31.9008ZM27.5379 31.9386L27.6376 32.112L27.6392 32.1111L27.5379 31.9386ZM27.1742 28.3477H26.9742V28.491L27.1099 28.5371L27.1742 28.3477ZM27.1742 25.075L27.3492 24.9781L26.9742 24.3014V25.075H27.1742ZM32.803 35.2341L32.9497 35.3701L33.0482 35.2639L32.978 35.1372L32.803 35.2341ZM32.801 35.2363L32.6542 35.1001L32.6477 35.1079L32.801 35.2363ZM32.7978 35.2401L32.6442 35.1115L32.6378 35.1201L32.7978 35.2401ZM32.7978 35.2402L32.9528 35.3668L32.9578 35.3602L32.7978 35.2402ZM32.7652 35.2644L32.8153 35.4585L32.8284 35.4541L32.7652 35.2644ZM29.5758 39.628V39.828H29.7867L29.7755 39.6174L29.5758 39.628ZM23.5076 39.628L23.3079 39.6166L23.2958 39.828H23.5076V39.628ZM20.2803 35.2038L20.1054 35.1067L19.9826 35.3282L20.2264 35.3964L20.2803 35.2038ZM25.9015 25.075H26.1015V24.3025L25.7266 24.978L25.9015 25.075ZM21.197 47.5068L20.997 47.5057L20.9958 47.7068H21.197V47.5068ZM31.8788 47.5068V47.7068H32.0788V47.5068H31.8788ZM21.2349 40.8932V40.6932H21.036L21.0349 40.892L21.2349 40.8932ZM33.1515 43.1886H32.9515V43.3886H33.1515V43.1886ZM30.8561 39.6205L30.6567 39.6366L30.6716 39.8205H30.8561V39.6205ZM31.1742 38.0296V37.8296H31.0506L30.9954 37.9401L31.1742 38.0296ZM41.1894 38.0296H41.3894V37.8296H41.1894V38.0296ZM32.4091 36.7644L32.312 36.5896L31.6373 36.9644H32.4091V36.7644ZM33.0758 36.4917L33.1243 36.6857L33.1268 36.685L33.0758 36.4917ZM33.9697 35.7265L34.1528 35.8071L34.1535 35.8053L33.9697 35.7265ZM33.9091 34.5826L34.0841 34.4858L34.084 34.4855L33.9091 34.5826ZM27.3939 22.8477L27.2177 22.9423L27.2191 22.9448L27.3939 22.8477ZM26.5455 22.3402V22.1401L26.5413 22.1402L26.5455 22.3402ZM25.6818 22.8402L25.5074 22.7423L25.507 22.743L25.6818 22.8402ZM19.1591 34.5826L18.9843 34.4855L18.9841 34.4858L19.1591 34.5826ZM19.1061 35.7341L19.2905 35.6566L19.2899 35.6553L19.1061 35.7341ZM19.9924 36.4917L19.9413 36.6851L19.9439 36.6857L19.9924 36.4917ZM20.6591 36.7644V36.9644L20.7535 36.5881L20.6591 36.7644ZM6.81061 10.4235V10.2235H6.61061V10.4235H6.81061ZM12.2879 7.12046V6.92046H12.0879V7.12046H12.2879ZM18.3864 7.12046L18.5304 6.98165L18.4714 6.92046H18.3864V7.12046ZM21.2273 10.0674L21.0833 10.2062L21.0835 10.2064L21.2273 10.0674ZM46.2652 10.4235H46.4652V10.2235H46.2652V10.4235ZM38.803 15.9689L38.6622 15.827L38.6616 15.8275L38.803 15.9689ZM38.1061 17.3099V17.5099H38.273L38.3028 17.3456L38.1061 17.3099ZM42.3864 15.9614L42.5292 15.8212L42.5239 15.8161L42.3864 15.9614ZM42.8485 18.9235L43.0292 19.0092L43.0292 19.0092L42.8485 18.9235ZM41.8485 19.9538L41.7578 19.7755L41.7577 19.7756L41.8485 19.9538ZM38.8333 19.5144L38.977 19.3752L38.9748 19.373L38.8333 19.5144ZM38.25 18.5826L38.4389 18.5169L38.3922 18.3826H38.25V18.5826ZM32.0606 18.5826V18.3826L31.9731 18.7624L32.0606 18.5826ZM38.8258 27.0068L38.6312 27.0533L38.6679 27.2068H38.8258V27.0068ZM37.5152 27.0068V27.2068H37.7756L37.7084 26.9552L37.5152 27.0068ZM29.2273 18.9008L29.2742 18.7064L29.0273 18.6467V18.9008H29.2273ZM23.8864 18.9008H24.0864V18.6468L23.8395 18.7063L23.8864 18.9008ZM15.5985 27.0068L15.4052 26.9556L15.3386 27.2068H15.5985V27.0068ZM14.2879 27.0068V27.2068H14.4461L14.4825 27.0529L14.2879 27.0068ZM21.053 18.5826L21.1407 18.7623L21.053 18.3826V18.5826ZM14.8788 18.5826V18.3826H14.7346L14.6891 18.5193L14.8788 18.5826ZM14.7424 18.9235L14.9231 19.0092L14.9237 19.0081L14.7424 18.9235ZM13.7424 19.9538L13.6517 19.7755L13.6516 19.7756L13.7424 19.9538ZM10.7273 19.5144L10.8709 19.3752L10.8675 19.3718L10.7273 19.5144ZM14.2727 15.9614L14.4156 15.8213L14.413 15.8188L14.2727 15.9614ZM14.9697 17.3099L14.7725 17.3432L14.8007 17.5099H14.9697V17.3099ZM23.8636 17.3099V17.5099H24.0636V17.3099H23.8636ZM29.2046 17.3099H29.0046V17.5099H29.2046V17.3099ZM13.5833 18.3856L13.7623 18.4751L13.7646 18.47L13.5833 18.3856ZM13.1591 18.8174L13.0697 18.6385L13.0688 18.639L13.1591 18.8174ZM13.3712 16.8553L13.5153 16.7166L13.5126 16.7139L13.3712 16.8553ZM11.6212 16.8629L11.4798 16.7214L11.4776 16.7237L11.6212 16.8629ZM11.6212 18.6129L11.7661 18.4748L11.7603 18.4692L11.6212 18.6129ZM16.1591 31.075L16.1618 31.275L16.3618 31.2723L16.3591 31.0723L16.1591 31.075ZM13.3258 31.1129L13.1258 31.1156L13.1285 31.3155L13.3284 31.3129L13.3258 31.1129ZM16.1212 28.2795L16.3212 28.2768L16.3185 28.0795H16.1212V28.2795ZM13.2879 28.2795V28.0795H13.0852L13.0879 28.2822L13.2879 28.2795ZM39.8409 31.075L39.8436 31.275L40.0436 31.2723L40.0409 31.0723L39.8409 31.075ZM37.0076 31.1129L36.8076 31.1156L36.8103 31.3155L37.0103 31.3129L37.0076 31.1129ZM39.803 28.2795L40.003 28.2768L40.0003 28.0795H39.803V28.2795ZM36.9697 28.2795V28.0795H36.767L36.7697 28.2822L36.9697 28.2795ZM25.1439 19.1811L24.944 19.1842L24.9471 19.3832L25.1461 19.3811L25.1439 19.1811ZM25.1288 18.2265L24.9336 18.1831L24.9284 18.2061L24.9288 18.2297L25.1288 18.2265ZM27.9849 19.1508L27.987 19.3507L28.1884 19.3486L28.1848 19.1472L27.9849 19.1508ZM27.9697 18.2947L28.1697 18.2912L28.1692 18.2662L28.1627 18.2421L27.9697 18.2947ZM27.9546 18.022L28.1522 18.0524L28.1546 18.0373V18.022H27.9546ZM27.9546 18.0144H28.1546V17.9819L28.1443 17.9511L27.9546 18.0144ZM27.9499 18.001L27.7616 18.0685L27.7616 18.0685L27.9499 18.001ZM27.952 17.8865L28.144 17.9427L28.144 17.9427L27.952 17.8865ZM27.9621 17.8477L28.1582 17.8869L28.1624 17.866L28.1621 17.8447L27.9621 17.8477ZM27.9394 16.3553L28.1394 16.3523L28.1364 16.1553H27.9394V16.3553ZM25.1061 16.3553V16.1553H24.903L24.9061 16.3584L25.1061 16.3553ZM25.1288 17.8477L24.9288 17.8508L24.9292 17.8738L24.9348 17.8962L25.1288 17.8477ZM25.1371 17.8753L25.3273 17.8134L25.3273 17.8134L25.1371 17.8753ZM25.1364 18.0144H24.9364V18.0244L24.9374 18.0343L25.1364 18.0144ZM41.6667 18.3856L41.8456 18.4751L41.848 18.4701L41.6667 18.3856ZM41.2424 18.8174L41.153 18.6385L41.1522 18.639L41.2424 18.8174ZM41.4546 16.8553L41.5986 16.7166L41.596 16.7139L41.4546 16.8553ZM39.7046 16.8629L39.5631 16.7214L39.5609 16.7237L39.7046 16.8629ZM39.7046 18.6129L39.8494 18.4748L39.8436 18.4692L39.7046 18.6129ZM8.08334 1.22197H44.9924V0.821973H8.08334V1.22197ZM5.73789 3.56743C5.73789 2.27637 6.79228 1.22197 8.08334 1.22197V0.821973C6.57137 0.821973 5.33789 2.05545 5.33789 3.56743H5.73789ZM5.73789 7.45379V3.56743H5.33789V7.45379H5.73789ZM3.00758 7.65379H5.53789V7.25379H3.00758V7.65379ZM0.662128 9.99925C0.662128 8.70819 1.71652 7.65379 3.00758 7.65379V7.25379C1.49561 7.25379 0.262128 8.48727 0.262128 9.99925H0.662128ZM0.662128 41.9159V9.99925H0.262128V41.9159H0.662128ZM3.00758 44.2614C1.71652 44.2614 0.662128 43.207 0.662128 41.9159H0.262128C0.262128 43.4279 1.49561 44.6614 3.00758 44.6614V44.2614ZM19.9242 44.2614H3.00758V44.6614H19.9242V44.2614ZM20.1243 48.1432V44.4614H19.7242V48.1432H20.1243ZM20.5606 48.5795C20.3226 48.5795 20.1243 48.3812 20.1243 48.1432H19.7242C19.7242 48.6021 20.1017 48.9795 20.5606 48.9795V48.5795ZM32.5152 48.5795H20.5606V48.9795H32.5152V48.5795ZM32.9515 48.1432C32.9515 48.3812 32.7532 48.5795 32.5152 48.5795V48.9795C32.9741 48.9795 33.3515 48.6021 33.3515 48.1432H32.9515ZM32.9515 44.4614V48.1432H33.3515V44.4614H32.9515ZM39.9167 44.2614H33.1515V44.6614H39.9167V44.2614ZM42.2621 41.9159C42.2621 43.207 41.2077 44.2614 39.9167 44.2614V44.6614C41.4286 44.6614 42.6621 43.4279 42.6621 41.9159H42.2621ZM42.2621 38.0296V41.9159H42.6621V38.0296H42.2621ZM44.9924 37.8296H42.4621V38.2296H44.9924V37.8296ZM47.3379 35.4841C47.3379 36.7752 46.2835 37.8296 44.9924 37.8296V38.2296C46.5044 38.2296 47.7379 36.9961 47.7379 35.4841H47.3379ZM47.3379 3.56743V35.4841H47.7379V3.56743H47.3379ZM44.9924 1.22197C46.2835 1.22197 47.3379 2.27637 47.3379 3.56743H47.7379C47.7379 2.05545 46.5044 0.821973 44.9924 0.821973V1.22197ZM8.08334 2.0947C7.27669 2.0947 6.61061 2.75165 6.61061 3.56743H7.01061C7.01061 2.97411 7.49605 2.4947 8.08334 2.4947V2.0947ZM44.9924 2.0947H8.08334V2.4947H44.9924V2.0947ZM46.4652 3.56743C46.4652 2.76078 45.8082 2.0947 44.9924 2.0947V2.4947C45.5857 2.4947 46.0652 2.98014 46.0652 3.56743H46.4652ZM46.4652 9.15076V3.56743H46.0652V9.15076H46.4652ZM22.1136 9.35076H46.2652V8.95076H22.1136V9.35076ZM19.1287 6.3426L21.9697 9.28957L22.2576 9.01195L19.4167 6.06498L19.1287 6.3426ZM18.4394 6.04773C18.6952 6.04773 18.9465 6.15406 19.1289 6.3428L19.4165 6.06479C19.1596 5.79897 18.8048 5.64773 18.4394 5.64773V6.04773ZM12.1818 6.04773H18.4394V5.64773H12.1818V6.04773ZM11.2227 7.00682C11.2227 6.48091 11.6559 6.04773 12.1818 6.04773V5.64773C11.435 5.64773 10.8227 6.26 10.8227 7.00682H11.2227ZM11.2227 9.15076V7.00682H10.8227V9.15076H11.2227ZM6.81061 9.35076H11.0227V8.95076H6.81061V9.35076ZM6.61061 3.56743V9.15076H7.01061V3.56743H6.61061ZM1.53486 41.9235C1.53486 42.7301 2.19181 43.3962 3.00758 43.3962V42.9962C2.41427 42.9962 1.93486 42.5108 1.93486 41.9235H1.53486ZM1.53486 9.99925V41.9235H1.93486V9.99925H1.53486ZM3.00758 8.52652C2.20093 8.52652 1.53486 9.18347 1.53486 9.99925H1.93486C1.93486 9.40593 2.42029 8.92652 3.00758 8.92652V8.52652ZM5.53789 8.52652H3.00758V8.92652H5.53789V8.52652ZM5.73789 35.4917V8.72652H5.33789V35.4917H5.73789ZM8.08334 37.8371C6.79228 37.8371 5.73789 36.7827 5.73789 35.4917H5.33789C5.33789 37.0036 6.57137 38.2371 8.08334 38.2371V37.8371ZM21.9015 37.8371H8.08334V38.2371H21.9015V37.8371ZM22.419 39.6442C22.4676 39.0458 22.3462 38.4631 22.0793 37.9455L21.7238 38.1288C21.9569 38.5809 22.0627 39.089 22.0204 39.6119L22.419 39.6442ZM21.2349 39.828H22.2197V39.428H21.2349V39.828ZM20.1243 40.9386C20.1243 40.3286 20.6188 39.828 21.2349 39.828V39.428C20.3964 39.428 19.7242 40.1092 19.7242 40.9386H20.1243ZM20.1243 43.1962V40.9386H19.7242V43.1962H20.1243ZM3.00758 43.3962H19.9242V42.9962H3.00758V43.3962ZM26.5379 29.2992C26.1976 29.2992 25.8978 29.4847 25.7351 29.7719L26.0831 29.9691C26.1779 29.8017 26.3479 29.6992 26.5379 29.6992V29.2992ZM27.45 30.2114C27.45 29.707 27.0423 29.2992 26.5379 29.2992V29.6992C26.8214 29.6992 27.05 29.9279 27.05 30.2114H27.45ZM26.9951 31.0051C27.2756 30.8407 27.45 30.5404 27.45 30.2114H27.05C27.05 30.3974 26.9517 30.5669 26.7928 30.66L26.9951 31.0051ZM25.9699 30.9689C26.3112 31.1614 26.6773 31.1938 26.9961 31.0046L26.7918 30.6606C26.6257 30.7592 26.4161 30.7613 26.1665 30.6205L25.9699 30.9689ZM25.7916 30.7781C25.8326 30.8806 25.9208 30.9395 25.9653 30.9662L26.1711 30.6232C26.1657 30.62 26.1613 30.6171 26.1578 30.6145C26.1542 30.6119 26.1521 30.6101 26.1513 30.6093C26.1504 30.6084 26.1515 30.6093 26.1536 30.6122C26.1558 30.6151 26.1595 30.6209 26.163 30.6295L25.7916 30.7781ZM25.7321 29.7773C25.6329 29.9658 25.5176 30.3475 25.8079 30.8101L26.1467 30.5975C25.9521 30.2874 26.0338 30.063 26.0861 29.9636L25.7321 29.7773ZM24.9782 29.3534C25.1947 28.9609 25.5475 28.6811 25.9666 28.5368L25.8364 28.1586C25.3313 28.3325 24.8962 28.674 24.6279 29.1602L24.9782 29.3534ZM25.0789 31.28C24.6884 30.6524 24.6536 29.9349 24.9777 29.3543L24.6284 29.1593C24.2252 29.8818 24.2813 30.7552 24.7393 31.4913L25.0789 31.28ZM25.5481 31.7282C25.3553 31.6152 25.1966 31.4629 25.0773 31.2775L24.7409 31.4938C24.8944 31.7325 25.0992 31.9288 25.3458 32.0733L25.5481 31.7282ZM26.5455 32.0038C26.2122 32.0038 25.867 31.9084 25.5454 31.7267L25.3486 32.0749C25.7239 32.287 26.1363 32.4038 26.5455 32.4038V32.0038ZM27.4382 31.7653C27.1655 31.9221 26.8589 32.0038 26.5455 32.0038V32.4038C26.9289 32.4038 27.3042 32.3037 27.6376 32.112L27.4382 31.7653ZM28.3227 30.2189C28.3227 30.8524 27.9817 31.4459 27.4366 31.7662L27.6392 32.1111C28.3062 31.7192 28.7227 30.9946 28.7227 30.2189H28.3227ZM27.1099 28.5371C27.813 28.776 28.3227 29.4375 28.3227 30.2189H28.7227C28.7227 29.258 28.0961 28.4497 27.2386 28.1584L27.1099 28.5371ZM26.9742 25.075V28.3477H27.3742V25.075H26.9742ZM32.978 35.1372L27.3492 24.9781L26.9993 25.1719L32.6281 35.331L32.978 35.1372ZM32.9477 35.3723L32.9497 35.3701L32.6564 35.0981L32.6544 35.1003L32.9477 35.3723ZM32.9512 35.3685L32.9544 35.3646L32.6477 35.1079L32.6445 35.1117L32.9512 35.3685ZM32.9578 35.3602L32.9578 35.3601L32.6378 35.1201L32.6378 35.1202L32.9578 35.3602ZM32.8284 35.4541C32.9031 35.4292 32.9419 35.3798 32.9527 35.3667L32.6428 35.1137C32.6392 35.1182 32.646 35.1092 32.6568 35.1001C32.6694 35.0895 32.6848 35.0804 32.7019 35.0747L32.8284 35.4541ZM29.7755 39.6174C29.6744 37.725 30.9173 35.9487 32.8152 35.458L32.7151 35.0708C30.6281 35.6104 29.265 37.5613 29.376 39.6387L29.7755 39.6174ZM23.5076 39.828H29.5758V39.428H23.5076V39.828ZM20.2264 35.3964C22.1678 35.9397 23.4161 37.7196 23.3079 39.6166L23.7073 39.6394C23.8263 37.5516 22.4534 35.6043 20.3342 35.0112L20.2264 35.3964ZM25.7266 24.978L20.1054 35.1067L20.4552 35.3008L26.0764 25.1721L25.7266 24.978ZM26.1015 28.3477V25.075H25.7015V28.3477H26.1015ZM21.197 47.7068H31.8788V47.3068H21.197V47.7068ZM21.0349 40.892L20.997 47.5057L21.397 47.508L21.4349 40.8943L21.0349 40.892ZM31.8409 40.6932H21.2349V41.0932H31.8409V40.6932ZM32.0788 40.9311C32.0788 40.8742 32.059 40.8114 32.0098 40.7622C31.9606 40.713 31.8977 40.6932 31.8409 40.6932V41.0932C31.8068 41.0932 31.7629 41.081 31.727 41.045C31.691 41.0091 31.6788 40.9652 31.6788 40.9311H32.0788ZM32.0788 47.5068V40.9311H31.6788V47.5068H32.0788ZM39.9167 43.3886C40.7233 43.3886 41.3894 42.7317 41.3894 41.9159H40.9894C40.9894 42.5092 40.504 42.9886 39.9167 42.9886V43.3886ZM33.1515 43.3886H39.9167V42.9886H33.1515V43.3886ZM32.9515 40.9311V43.1886H33.3515V40.9311H32.9515ZM31.8409 39.8205C32.4509 39.8205 32.9515 40.315 32.9515 40.9311H33.3515C33.3515 40.0926 32.6703 39.4205 31.8409 39.4205V39.8205ZM30.8561 39.8205H31.8409V39.4205H30.8561V39.8205ZM30.9954 37.9401C30.7381 38.4547 30.6081 39.0365 30.6567 39.6366L31.0554 39.6043C31.0132 39.0832 31.1256 38.5741 31.3531 38.119L30.9954 37.9401ZM41.1894 37.8296H31.1742V38.2296H41.1894V37.8296ZM41.3894 41.9159V38.0296H40.9894V41.9159H41.3894ZM32.4091 36.9644H44.9924V36.5644H32.4091V36.9644ZM33.0273 36.2976C32.7629 36.3637 32.5266 36.4703 32.312 36.5896L32.5062 36.9392C32.7007 36.8312 32.9038 36.7408 33.1243 36.6857L33.0273 36.2976ZM33.7866 35.646C33.6443 35.9694 33.3669 36.2079 33.0247 36.2983L33.1268 36.685C33.5876 36.5633 33.9617 36.2412 34.1528 35.8071L33.7866 35.646ZM33.7341 34.6794C33.9016 34.9822 33.9203 35.3341 33.7859 35.6477L34.1535 35.8053C34.3373 35.3765 34.3105 34.895 34.0841 34.4858L33.7341 34.6794ZM27.2191 22.9448L33.7342 34.6797L34.084 34.4855L27.5688 22.7507L27.2191 22.9448ZM26.5455 22.5402C26.8274 22.5402 27.0857 22.6963 27.2177 22.9423L27.5702 22.7532C27.3689 22.378 26.9756 22.1402 26.5455 22.1402V22.5402ZM25.8563 22.938C25.9929 22.6944 26.2507 22.5463 26.5496 22.5401L26.5413 22.1402C26.113 22.1491 25.7192 22.3647 25.5074 22.7423L25.8563 22.938ZM19.3339 34.6797L25.8567 22.9373L25.507 22.743L18.9843 34.4855L19.3339 34.6797ZM19.2899 35.6553C19.1543 35.3389 19.168 34.9796 19.3341 34.6794L18.9841 34.4858C18.7562 34.8977 18.7396 35.3868 18.9222 35.8129L19.2899 35.6553ZM20.0435 36.2983C19.6988 36.2072 19.4242 35.9752 19.2905 35.6567L18.9217 35.8115C19.1061 36.2506 19.4831 36.564 19.9414 36.685L20.0435 36.2983ZM20.7535 36.5881C20.5352 36.4712 20.3065 36.364 20.0409 36.2976L19.9439 36.6857C20.1632 36.7405 20.3587 36.8304 20.5647 36.9407L20.7535 36.5881ZM8.08334 36.9644H20.6591V36.5644H8.08334V36.9644ZM6.61061 35.4917C6.61061 36.2983 7.26756 36.9644 8.08334 36.9644V36.5644C7.49003 36.5644 7.01061 36.079 7.01061 35.4917H6.61061ZM6.61061 10.4235V35.4917H7.01061V10.4235H6.61061ZM11.1288 10.2235H6.81061V10.6235H11.1288V10.2235ZM12.0879 9.2644C12.0879 9.7903 11.6547 10.2235 11.1288 10.2235V10.6235C11.8756 10.6235 12.4879 10.0112 12.4879 9.2644H12.0879ZM12.0879 7.12046V9.2644H12.4879V7.12046H12.0879ZM18.3864 6.92046H12.2879V7.32046H18.3864V6.92046ZM21.3713 9.92862L18.5304 6.98165L18.2424 7.25926L21.0833 10.2062L21.3713 9.92862ZM22.0606 10.2235C21.8048 10.2235 21.5535 10.1172 21.3711 9.92842L21.0835 10.2064C21.3404 10.4722 21.6952 10.6235 22.0606 10.6235V10.2235ZM46.2652 10.2235H22.0606V10.6235H46.2652V10.2235ZM46.4652 35.4841V10.4235H46.0652V35.4841H46.4652ZM44.9924 36.9644C45.809 36.9644 46.4652 36.2976 46.4652 35.4841H46.0652C46.0652 36.0797 45.585 36.5644 44.9924 36.5644V36.9644ZM44.5955 5.71894C44.5955 6.60091 43.882 7.3144 43 7.3144V7.7144C44.1029 7.7144 44.9955 6.82182 44.9955 5.71894H44.5955ZM43 4.12349C43.882 4.12349 44.5955 4.83698 44.5955 5.71894H44.9955C44.9955 4.61606 44.1029 3.72349 43 3.72349V4.12349ZM41.4046 5.71894C41.4046 4.83698 42.118 4.12349 43 4.12349V3.72349C41.8971 3.72349 41.0046 4.61606 41.0046 5.71894H41.4046ZM43 7.3144C42.1251 7.3144 41.4046 6.60036 41.4046 5.71894H41.0046C41.0046 6.82237 41.9053 7.7144 43 7.7144V7.3144ZM43.7227 5.72652C43.7227 5.32818 43.3983 5.00379 43 5.00379V5.40379C43.1774 5.40379 43.3227 5.5491 43.3227 5.72652H43.7227ZM43 6.44925C43.3983 6.44925 43.7227 6.12485 43.7227 5.72652H43.3227C43.3227 5.90394 43.1774 6.04925 43 6.04925V6.44925ZM42.2773 5.72652C42.2773 6.13243 42.5941 6.44925 43 6.44925V6.04925C42.815 6.04925 42.6773 5.91151 42.6773 5.72652H42.2773ZM43 5.00379C42.6036 5.00379 42.2773 5.31872 42.2773 5.72652H42.6773C42.6773 5.54341 42.8207 5.40379 43 5.40379V5.00379ZM38.6667 7.7144C39.7696 7.7144 40.6621 6.82182 40.6621 5.71894H40.2621C40.2621 6.60091 39.5486 7.3144 38.6667 7.3144V7.7144ZM36.6712 5.71894C36.6712 6.82182 37.5638 7.7144 38.6667 7.7144V7.3144C37.7847 7.3144 37.0712 6.60091 37.0712 5.71894H36.6712ZM38.6667 3.72349C37.5638 3.72349 36.6712 4.61606 36.6712 5.71894H37.0712C37.0712 4.83697 37.7847 4.12349 38.6667 4.12349V3.72349ZM40.6621 5.71894C40.6621 4.61606 39.7696 3.72349 38.6667 3.72349V4.12349C39.5486 4.12349 40.2621 4.83697 40.2621 5.71894H40.6621ZM38.6667 5.40379C38.8441 5.40379 38.9894 5.5491 38.9894 5.72652H39.3894C39.3894 5.32818 39.065 5.00379 38.6667 5.00379V5.40379ZM38.3439 5.72652C38.3439 5.54341 38.4874 5.40379 38.6667 5.40379V5.00379C38.2702 5.00379 37.9439 5.31871 37.9439 5.72652H38.3439ZM38.6667 6.04925C38.4817 6.04925 38.3439 5.91151 38.3439 5.72652H37.9439C37.9439 6.13243 38.2608 6.44925 38.6667 6.44925V6.04925ZM38.9894 5.72652C38.9894 5.90394 38.8441 6.04925 38.6667 6.04925V6.44925C39.065 6.44925 39.3894 6.12485 39.3894 5.72652H38.9894ZM35.9212 5.71894C35.9212 6.60091 35.2077 7.3144 34.3258 7.3144V7.7144C35.4286 7.7144 36.3212 6.82182 36.3212 5.71894H35.9212ZM34.3258 4.12349C35.2077 4.12349 35.9212 4.83698 35.9212 5.71894H36.3212C36.3212 4.61606 35.4286 3.72349 34.3258 3.72349V4.12349ZM32.7303 5.71894C32.7303 4.83698 33.4438 4.12349 34.3258 4.12349V3.72349C33.2229 3.72349 32.3303 4.61606 32.3303 5.71894H32.7303ZM34.3258 7.3144C33.4438 7.3144 32.7303 6.60091 32.7303 5.71894H32.3303C32.3303 6.82182 33.2229 7.7144 34.3258 7.7144V7.3144ZM35.0485 5.72652C35.0485 5.32818 34.7241 5.00379 34.3258 5.00379V5.40379C34.5032 5.40379 34.6485 5.5491 34.6485 5.72652H35.0485ZM34.3258 6.44925C34.7241 6.44925 35.0485 6.12485 35.0485 5.72652H34.6485C34.6485 5.90394 34.5032 6.04925 34.3258 6.04925V6.44925ZM33.603 5.72652C33.603 6.13243 33.9199 6.44925 34.3258 6.44925V6.04925C34.1408 6.04925 34.003 5.91151 34.003 5.72652H33.603ZM34.3258 5.00379C33.9293 5.00379 33.603 5.31872 33.603 5.72652H34.003C34.003 5.54341 34.1464 5.40379 34.3258 5.40379V5.00379ZM38.6616 15.8275C38.2602 16.2289 38.0071 16.7361 37.9093 17.2741L38.3028 17.3456C38.3868 16.8836 38.6034 16.4514 38.9445 16.1104L38.6616 15.8275ZM42.5239 15.8161C41.4554 14.8047 39.6881 14.8092 38.6622 15.827L38.9439 16.1109C39.8119 15.2499 41.3325 15.2392 42.2489 16.1066L42.5239 15.8161ZM43.0292 19.0092C43.5559 17.8992 43.3709 16.6794 42.5291 15.8213L42.2436 16.1014C42.9625 16.8342 43.126 17.8721 42.6678 18.8378L43.0292 19.0092ZM41.9392 20.132C42.4104 19.8923 42.7981 19.4961 43.0292 19.0092L42.6678 18.8377C42.4746 19.2448 42.1502 19.5759 41.7578 19.7755L41.9392 20.132ZM40.6061 20.4568C41.0545 20.4568 41.5098 20.3508 41.9393 20.132L41.7577 19.7756C41.3841 19.9659 40.991 20.0568 40.6061 20.0568V20.4568ZM38.6897 19.6536C39.2066 20.1869 39.8957 20.4568 40.6061 20.4568V20.0568C39.9982 20.0568 39.4146 19.8268 38.977 19.3752L38.6897 19.6536ZM38.0611 18.6483C38.1921 19.0247 38.405 19.3689 38.6919 19.6558L38.9748 19.373C38.7313 19.1295 38.5504 18.8374 38.4389 18.5169L38.0611 18.6483ZM32.0606 18.7826H38.25V18.3826H32.0606V18.7826ZM39.0203 26.9604C38.1198 23.1891 35.5496 20.0573 32.1481 18.4027L31.9731 18.7624C35.2686 20.3654 37.759 23.4003 38.6312 27.0533L39.0203 26.9604ZM39.8636 26.8068H38.8258V27.2068H39.8636V26.8068ZM41.2985 28.2417C41.2985 27.4494 40.6559 26.8068 39.8636 26.8068V27.2068C40.435 27.2068 40.8985 27.6703 40.8985 28.2417H41.2985ZM41.2985 31.1129V28.2417H40.8985V31.1129H41.2985ZM39.8636 32.5477C40.6559 32.5477 41.2985 31.9052 41.2985 31.1129H40.8985C40.8985 31.6842 40.435 32.1477 39.8636 32.1477V32.5477ZM36.9924 32.5477H39.8636V32.1477H36.9924V32.5477ZM35.5576 31.1129C35.5576 31.9052 36.2002 32.5477 36.9924 32.5477V32.1477C36.4211 32.1477 35.9576 31.6842 35.9576 31.1129H35.5576ZM35.5576 28.2417V31.1129H35.9576V28.2417H35.5576ZM36.9924 26.8068C36.2002 26.8068 35.5576 27.4494 35.5576 28.2417H35.9576C35.9576 27.6703 36.4211 27.2068 36.9924 27.2068V26.8068ZM37.5152 26.8068H36.9924V27.2068H37.5152V26.8068ZM29.1803 19.0952C33.1239 20.0476 36.2726 23.1289 37.3219 27.0584L37.7084 26.9552C36.6214 22.8847 33.3609 19.6933 29.2742 18.7064L29.1803 19.0952ZM29.4273 19.1735V18.9008H29.0273V19.1735H29.4273ZM27.9924 20.6083C28.7847 20.6083 29.4273 19.9658 29.4273 19.1735H29.0273C29.0273 19.7449 28.5638 20.2083 27.9924 20.2083V20.6083ZM25.1212 20.6083H27.9924V20.2083H25.1212V20.6083ZM23.6864 19.1735C23.6864 19.9658 24.3289 20.6083 25.1212 20.6083V20.2083C24.5499 20.2083 24.0864 19.7449 24.0864 19.1735H23.6864ZM23.6864 18.9008V19.1735H24.0864V18.9008H23.6864ZM15.7918 27.0581C16.8336 23.129 19.982 20.0477 23.9332 19.0952L23.8395 18.7063C19.7453 19.6933 16.4846 22.8847 15.4052 26.9556L15.7918 27.0581ZM16.1743 26.8068H15.5985V27.2068H16.1743V26.8068ZM17.6091 28.2417C17.6091 27.4494 16.9665 26.8068 16.1743 26.8068V27.2068C16.7456 27.2068 17.2091 27.6703 17.2091 28.2417H17.6091ZM17.6091 31.1129V28.2417H17.2091V31.1129H17.6091ZM16.1743 32.5477C16.9665 32.5477 17.6091 31.9052 17.6091 31.1129H17.2091C17.2091 31.6842 16.7456 32.1477 16.1743 32.1477V32.5477ZM13.303 32.5477H16.1743V32.1477H13.303V32.5477ZM11.8682 31.1129C11.8682 31.9052 12.5108 32.5477 13.303 32.5477V32.1477C12.7317 32.1477 12.2682 31.6842 12.2682 31.1129H11.8682ZM11.8682 28.2417V31.1129H12.2682V28.2417H11.8682ZM13.303 26.8068C12.5108 26.8068 11.8682 27.4494 11.8682 28.2417H12.2682C12.2682 27.6703 12.7317 27.2068 13.303 27.2068V26.8068ZM14.2879 26.8068H13.303V27.2068H14.2879V26.8068ZM20.9654 18.4028C17.5568 20.0648 14.9862 23.1889 14.0933 26.9607L14.4825 27.0529C15.3471 23.4005 17.8372 20.3731 21.1407 18.7623L20.9654 18.4028ZM14.8788 18.7826H21.053V18.3826H14.8788V18.7826ZM14.9237 19.0081C14.9798 18.8878 15.0281 18.7671 15.0685 18.6458L14.6891 18.5193C14.6537 18.6254 14.6111 18.7319 14.5612 18.8389L14.9237 19.0081ZM13.8331 20.132C14.3043 19.8923 14.692 19.4961 14.9231 19.0092L14.5617 18.8377C14.3686 19.2448 14.0442 19.5759 13.6517 19.7755L13.8331 20.132ZM12.5 20.4568C12.9485 20.4568 13.4038 20.3508 13.8332 20.132L13.6516 19.7756C13.278 19.9659 12.8849 20.0568 12.5 20.0568V20.4568ZM10.5837 19.6536C11.1006 20.1869 11.7896 20.4568 12.5 20.4568V20.0568C11.8922 20.0568 11.3086 19.8268 10.8709 19.3752L10.5837 19.6536ZM9.79243 17.7417C9.79243 18.4686 10.0784 19.1566 10.587 19.657L10.8675 19.3718C10.4367 18.948 10.1924 18.3633 10.1924 17.7417H9.79243ZM10.5859 15.8275C10.0709 16.3425 9.79243 17.0222 9.79243 17.7417H10.1924C10.1924 17.1278 10.4291 16.55 10.8687 16.1104L10.5859 15.8275ZM14.413 15.8188C13.3725 14.7947 11.6028 14.8106 10.5859 15.8275L10.8687 16.1104C11.7305 15.2485 13.2487 15.2341 14.1324 16.1039L14.413 15.8188ZM15.1669 17.2765C15.0767 16.7432 14.8225 16.2365 14.4155 15.8214L14.1299 16.1014C14.4805 16.459 14.6961 16.8916 14.7725 17.3432L15.1669 17.2765ZM23.8636 17.1098H14.9697V17.5099H23.8636V17.1098ZM23.6636 16.3099V17.3099H24.0636V16.3099H23.6636ZM25.0985 14.875C24.3062 14.875 23.6636 15.5176 23.6636 16.3099H24.0636C24.0636 15.7385 24.5271 15.275 25.0985 15.275V14.875ZM27.9697 14.875H25.0985V15.275H27.9697V14.875ZM29.4046 16.3099C29.4046 15.5176 28.762 14.875 27.9697 14.875V15.275C28.5411 15.275 29.0046 15.7385 29.0046 16.3099H29.4046ZM29.4046 17.3099V16.3099H29.0046V17.3099H29.4046ZM38.1061 17.1098H29.2046V17.5099H38.1061V17.1098ZM13.4045 18.2962C13.3312 18.4426 13.2096 18.5686 13.0697 18.6385L13.2485 18.9963C13.4723 18.8845 13.6536 18.6922 13.7622 18.4751L13.4045 18.2962ZM13.2272 16.994C13.5574 17.337 13.6288 17.8144 13.402 18.3012L13.7646 18.47C14.0531 17.8508 13.9729 17.1918 13.5153 16.7166L13.2272 16.994ZM12.5 16.6992C12.7744 16.6992 13.0412 16.8081 13.2298 16.9967L13.5126 16.7139C13.2467 16.448 12.8772 16.2992 12.5 16.2992V16.6992ZM11.7626 17.0043C11.9599 16.807 12.2197 16.6992 12.5 16.6992V16.2992C12.1137 16.2992 11.7522 16.4491 11.4798 16.7215L11.7626 17.0043ZM11.4576 17.7417C11.4576 17.4701 11.5646 17.2088 11.7649 17.002L11.4776 16.7237C11.2081 17.0018 11.0576 17.3618 11.0576 17.7417H11.4576ZM11.7603 18.4692C11.5657 18.2808 11.4576 18.0226 11.4576 17.7417H11.0576C11.0576 18.1274 11.2071 18.4904 11.4821 18.7566L11.7603 18.4692ZM13.0688 18.639C12.4957 18.9288 12.0215 18.7429 11.766 18.4749L11.4765 18.7509C11.8421 19.1344 12.5043 19.3727 13.2494 18.9959L13.0688 18.639ZM16.1564 30.875L13.3231 30.9129L13.3284 31.3129L16.1618 31.275L16.1564 30.875ZM15.9212 28.2823L15.9591 31.0777L16.3591 31.0723L16.3212 28.2768L15.9212 28.2823ZM13.2879 28.4795H16.1212V28.0795H13.2879V28.4795ZM13.5257 31.1102L13.4879 28.2769L13.0879 28.2822L13.1258 31.1156L13.5257 31.1102ZM39.8382 30.875L37.0049 30.9129L37.0103 31.3129L39.8436 31.275L39.8382 30.875ZM39.6031 28.2823L39.6409 31.0777L40.0409 31.0723L40.003 28.2768L39.6031 28.2823ZM36.9697 28.4795H39.803V28.0795H36.9697V28.4795ZM37.2076 31.1102L37.1697 28.2769L36.7697 28.2822L36.8076 31.1156L37.2076 31.1102ZM25.3439 19.1779L25.3288 18.2233L24.9288 18.2297L24.944 19.1842L25.3439 19.1779ZM27.9827 18.9508L25.1418 18.9811L25.1461 19.3811L27.987 19.3507L27.9827 18.9508ZM27.7697 18.2982L27.7849 19.1543L28.1848 19.1472L28.1697 18.2912L27.7697 18.2982ZM27.7569 17.9916C27.7372 18.1192 27.7471 18.2384 27.7768 18.3473L28.1627 18.2421C28.1469 18.1843 28.1416 18.1217 28.1522 18.0524L27.7569 17.9916ZM27.7546 18.0144V18.022H28.1546V18.0144H27.7546ZM27.7616 18.0685C27.7632 18.0729 27.764 18.0753 27.7648 18.0777L28.1443 17.9511C28.1419 17.944 28.1396 17.9376 28.1382 17.9336L27.7616 18.0685ZM27.7394 17.9538C27.7394 18.0106 27.7564 18.0539 27.7616 18.0685L28.1382 17.9336C28.1366 17.9291 28.136 17.9276 28.1357 17.9265C28.1354 17.9257 28.1358 17.9269 28.1364 17.9293C28.1371 17.9319 28.1379 17.9356 28.1385 17.9402C28.1391 17.9447 28.1394 17.9493 28.1394 17.9538H27.7394ZM27.7601 17.8302C27.7546 17.849 27.7394 17.8967 27.7394 17.9538H28.1394C28.1394 17.9591 28.1387 17.9621 28.1389 17.9609C28.1391 17.9602 28.1394 17.9586 28.1403 17.9555C28.1412 17.9522 28.1423 17.9485 28.144 17.9427L27.7601 17.8302ZM27.766 17.8085C27.7653 17.8122 27.7641 17.8167 27.7601 17.8302L28.144 17.9427C28.1473 17.9314 28.1535 17.9105 28.1582 17.8869L27.766 17.8085ZM27.7394 16.3584L27.7622 17.8508L28.1621 17.8447L28.1394 16.3523L27.7394 16.3584ZM25.1061 16.5553H27.9394V16.1553H25.1061V16.5553ZM25.3288 17.8447L25.306 16.3523L24.9061 16.3584L24.9288 17.8508L25.3288 17.8447ZM25.3273 17.8134C25.3257 17.8085 25.3247 17.8055 25.3239 17.8028C25.3235 17.8016 25.3232 17.8007 25.3231 17.8001C25.3229 17.7995 25.3228 17.7992 25.3228 17.7992L24.9348 17.8962C24.939 17.9133 24.9443 17.9291 24.9469 17.9371L25.3273 17.8134ZM25.3515 17.9462C25.3515 17.8837 25.3334 17.8324 25.3273 17.8134L24.9469 17.9371C24.9487 17.9429 24.9498 17.9463 24.9508 17.9494C24.9517 17.9524 24.952 17.9538 24.9522 17.9544C24.9524 17.9552 24.9515 17.9519 24.9515 17.9462H25.3515ZM25.3296 18.0508C25.332 18.0449 25.3515 18.0014 25.3515 17.9462H24.9515C24.9515 17.929 24.9545 17.9154 24.9569 17.9071C24.9587 17.9007 24.9607 17.896 24.9583 17.9022L25.3296 18.0508ZM25.3364 18.0068C25.3364 18.024 25.3334 18.0376 25.331 18.0459C25.3292 18.0524 25.3272 18.057 25.3296 18.0508L24.9583 17.9022C24.9559 17.9081 24.9364 17.9516 24.9364 18.0068H25.3364ZM25.3364 18.0144V18.0068H24.9364V18.0144H25.3364ZM25.324 18.2699C25.3455 18.1733 25.3441 18.0818 25.3354 17.9945L24.9374 18.0343C24.9438 18.0985 24.9424 18.1434 24.9336 18.1831L25.324 18.2699ZM41.4878 18.2962C41.4146 18.4426 41.2929 18.5686 41.153 18.6385L41.3319 18.9963C41.5556 18.8845 41.737 18.6922 41.8456 18.475L41.4878 18.2962ZM41.3105 16.994C41.6407 17.337 41.7121 17.8144 41.4854 18.3012L41.848 18.4701C42.1364 17.8508 42.0563 17.1918 41.5986 16.7166L41.3105 16.994ZM40.5833 16.6992C40.8577 16.6992 41.1245 16.8081 41.3131 16.9967L41.596 16.7139C41.3301 16.448 40.9605 16.2992 40.5833 16.2992V16.6992ZM39.846 17.0043C40.0433 16.807 40.303 16.6992 40.5833 16.6992V16.2992C40.197 16.2992 39.8355 16.4491 39.5631 16.7215L39.846 17.0043ZM39.5409 17.7417C39.5409 17.4701 39.6479 17.2088 39.8482 17.002L39.5609 16.7237C39.2915 17.0018 39.1409 17.3618 39.1409 17.7417H39.5409ZM39.8436 18.4692C39.649 18.2808 39.5409 18.0226 39.5409 17.7417H39.1409C39.1409 18.1274 39.2904 18.4904 39.5655 18.7566L39.8436 18.4692ZM41.1522 18.639C40.579 18.9288 40.1048 18.7429 39.8493 18.4749L39.5598 18.7509C39.9255 19.1344 40.5877 19.3727 41.3327 18.9959L41.1522 18.639Z" fill="url(#paint1_linear_46_2845)"/>
<defs>
<linearGradient id="paint0_linear_46_2845" x1="-4.93197" y1="24.9008" x2="52.9295" y2="19.5608" gradientUnits="userSpaceOnUse">
<stop stop-color="#443ED9"/>
<stop offset="1" stop-color="#F603C7"/>
</linearGradient>
<linearGradient id="paint1_linear_46_2845" x1="-4.93197" y1="24.9008" x2="52.9295" y2="19.5608" gradientUnits="userSpaceOnUse">
<stop stop-color="#443ED9"/>
<stop offset="1" stop-color="#F603C7"/>
</linearGradient>
</defs>
</svg>
