<svg width="37" height="51" viewBox="0 0 37 51" fill="none" xmlns="http://www.w3.org/2000/svg">
<path fill-rule="evenodd" clip-rule="evenodd" d="M32.0417 35.4524V6.09823C32.0417 4.71689 31.493 3.39213 30.5162 2.41538C29.5395 1.43863 28.2147 0.889893 26.8334 0.889893H6.00002C4.61868 0.889893 3.29392 1.43863 2.31717 2.41538C1.34042 3.39213 0.791687 4.71689 0.791687 6.09823V45.6816C0.791687 46.3655 0.926404 47.0428 1.18815 47.6747C1.44989 48.3066 1.83353 48.8808 2.31717 49.3644C2.80081 49.848 3.37497 50.2317 4.00688 50.4934C4.63878 50.7552 5.31605 50.8899 6.00002 50.8899C9.1225 50.8899 11.4879 50.8983 13.2849 50.9048H13.285H13.285C18.3961 50.923 18.9095 50.9249 19.1687 50.6691C19.1977 50.6406 19.2235 50.6088 19.2521 50.5735C19.2646 50.5581 19.2776 50.5421 19.2917 50.5253C20.0292 49.6567 19.458 49.1813 16.1782 46.4516L16.1781 46.4515L16.1776 46.4511C15.2885 45.7111 14.2004 44.8055 12.8854 43.6816C12.7678 43.5816 12.677 43.4538 12.6212 43.3098C12.5655 43.1658 12.5466 43.0102 12.5662 42.857C12.5859 42.7039 12.6435 42.5581 12.7338 42.4328C12.8241 42.3076 12.9443 42.2069 13.0834 42.1399L13.0999 42.1314C13.1592 42.101 13.2087 42.0757 13.2608 42.0583C13.5216 41.9711 13.8486 42.0824 15.8118 42.7503L15.8119 42.7503L15.812 42.7503C16.4228 42.9581 17.1919 43.2198 18.1667 43.5461C18.3236 43.5991 18.4909 43.614 18.6547 43.5894C18.8185 43.5648 18.9741 43.5015 19.1085 43.4047C19.2429 43.308 19.3524 43.1806 19.4277 43.033C19.503 42.8855 19.5421 42.7222 19.5417 42.5566V29.0149C19.5417 28.7386 19.6514 28.4737 19.8468 28.2783C20.0421 28.083 20.3071 27.9732 20.5834 27.9732C20.8596 27.9732 21.1246 28.083 21.3199 28.2783C21.5153 28.4737 21.625 28.7386 21.625 29.0149V40.4732C21.625 40.7495 21.7348 41.0145 21.9301 41.2098C22.1255 41.4052 22.3904 41.5149 22.6667 41.5149C22.943 41.5149 23.2079 41.4052 23.4033 41.2098C23.5986 41.0145 23.7084 40.7495 23.7084 40.4732V36.3066C23.7084 36.0303 23.8181 35.7653 24.0135 35.57C24.2088 35.3746 24.4738 35.2649 24.75 35.2649C25.0263 35.2649 25.2912 35.3746 25.4866 35.57C25.6819 35.7653 25.7917 36.0303 25.7917 36.3066V40.4732C25.7917 40.7495 25.9014 41.0145 26.0968 41.2098C26.2921 41.4052 26.5571 41.5149 26.8334 41.5149C27.1096 41.5149 27.3746 41.4052 27.5699 41.2098C27.7653 41.0145 27.875 40.7495 27.875 40.4732V37.3482C27.875 37.072 27.9848 36.807 28.1801 36.6117C28.3755 36.4163 28.6404 36.3066 28.9167 36.3066C29.193 36.3066 29.4579 36.4163 29.6533 36.6117C29.8486 36.807 29.9584 37.072 29.9584 37.3482V40.4732C29.9584 40.7495 30.0681 41.0145 30.2635 41.2098C30.4588 41.4052 30.7238 41.5149 31 41.5149C31.2763 41.5149 31.5412 41.4052 31.7366 41.2098C31.9319 41.0145 32.0417 40.7495 32.0417 40.4732V38.3899C32.0417 38.1136 32.1514 37.8487 32.3468 37.6533C32.5421 37.458 32.8071 37.3482 33.0834 37.3482C33.3596 37.3482 33.6246 37.458 33.8199 37.6533C34.0153 37.8487 34.125 38.1136 34.125 38.3899V49.8482C34.125 50.1245 34.2348 50.3895 34.4301 50.5848C34.6255 50.7802 34.8904 50.8899 35.1667 50.8899C35.443 50.8899 35.7079 50.7802 35.9033 50.5848C36.0986 50.3895 36.2084 50.1245 36.2084 49.8482V38.3899C36.207 37.8907 36.086 37.3991 35.8556 36.9563C35.6252 36.5134 35.292 36.1322 34.884 35.8446C34.476 35.5569 34.005 35.3712 33.5105 35.303C33.016 35.2348 32.5123 35.286 32.0417 35.4524ZM2.87502 6.09823C2.87502 5.26942 3.20426 4.47457 3.79031 3.88852C4.37636 3.30247 5.17122 2.97323 6.00002 2.97323H26.8334C27.6622 2.97323 28.457 3.30247 29.0431 3.88852C29.6291 4.47457 29.9584 5.26942 29.9584 6.09823V7.13989H2.87502V6.09823ZM15.6771 48.8066H6.00002C5.17122 48.8066 4.37636 48.4773 3.79031 47.8913C3.20426 47.3052 2.87502 46.5104 2.87502 45.6816V44.6399H10.9896L11.0123 44.6747L11.0124 44.6748L11.0124 44.675C11.0455 44.7257 11.0739 44.7694 11.1041 44.8119C11.2914 45.0755 11.5456 45.2915 13.3755 46.8469L13.3757 46.847L13.3773 46.8484C13.965 47.3479 14.7149 47.9853 15.6771 48.8066ZM27.3854 34.6399C27.0065 34.0436 26.4366 33.5933 25.7688 33.3625C25.101 33.1317 24.3747 33.134 23.7084 33.3691V29.0149C23.7084 28.1861 23.3791 27.3912 22.7931 26.8052C22.207 26.2191 21.4122 25.8899 20.5834 25.8899C19.7546 25.8899 18.9597 26.2191 18.3736 26.8052C17.7876 27.3912 17.4584 28.1861 17.4584 29.0149H8.08335C7.80709 29.0149 7.54214 29.1246 7.34678 29.32C7.15143 29.5153 7.04169 29.7803 7.04169 30.0566C7.04169 30.3328 7.15143 30.5978 7.34678 30.7931C7.54214 30.9885 7.80709 31.0982 8.08335 31.0982H17.4584V41.1086L14.4584 40.067C14.0354 39.9264 13.5865 39.8815 13.1441 39.9355C12.7016 39.9895 12.2767 40.141 11.9 40.3792C11.5233 40.6174 11.2041 40.9363 10.9656 41.3128C10.7271 41.6894 10.5752 42.1142 10.5209 42.5566H2.87502V9.22323H29.9584V34.4107C29.5394 34.2556 29.0911 34.1957 28.6461 34.2353C28.201 34.275 27.7704 34.4132 27.3854 34.6399ZM13.2917 13.3898V18.5981C13.2917 19.1507 13.0722 19.6806 12.6815 20.0713C12.2908 20.462 11.7609 20.6815 11.2084 20.6815C10.6558 20.6815 10.1259 20.462 9.73522 20.0713C9.34451 19.6806 9.12502 19.1507 9.12502 18.5981V13.3898C9.12502 13.1135 9.01527 12.8486 8.81992 12.6532C8.62457 12.4579 8.35962 12.3481 8.08335 12.3481C7.80709 12.3481 7.54213 12.4579 7.34678 12.6532C7.15143 12.8486 7.04169 13.1135 7.04169 13.3898V18.5981C7.04169 19.7032 7.48067 20.763 8.26208 21.5444C9.04348 22.3258 10.1033 22.7648 11.2084 22.7648C12.3134 22.7648 13.3732 22.3258 14.1546 21.5444C14.936 20.763 15.375 19.7032 15.375 18.5981V13.3898C15.375 13.1135 15.2653 12.8486 15.0699 12.6532C14.8746 12.4579 14.6096 12.3481 14.3334 12.3481C14.0571 12.3481 13.7921 12.4579 13.5968 12.6532C13.4014 12.8486 13.2917 13.1135 13.2917 13.3898ZM21.625 15.8169L23.9167 12.7648C24.0824 12.5438 24.3292 12.3977 24.6027 12.3586C24.8762 12.3195 25.154 12.3907 25.375 12.5565C25.596 12.7222 25.7421 12.969 25.7812 13.2425C25.8203 13.516 25.7491 13.7938 25.5833 14.0148L22.9271 17.5565L25.5833 21.0981C25.7491 21.3192 25.8203 21.597 25.7812 21.8705C25.7421 22.144 25.596 22.3907 25.375 22.5565C25.154 22.7222 24.8762 22.7934 24.6027 22.7543C24.3292 22.7153 24.0824 22.5692 23.9167 22.3481L21.625 19.2961L19.3333 22.3481C19.1676 22.5692 18.9208 22.7153 18.6473 22.7543C18.3738 22.7934 18.096 22.7222 17.875 22.5565C17.654 22.3907 17.5079 22.144 17.4688 21.8705C17.4297 21.597 17.5009 21.3192 17.6667 21.0981L20.3229 17.5565L17.6667 14.0148C17.5009 13.7938 17.4297 13.516 17.4688 13.2425C17.5079 12.969 17.654 12.7222 17.875 12.5565C18.096 12.3907 18.3738 12.3195 18.6473 12.3586C18.9208 12.3977 19.1676 12.5438 19.3333 12.7648L21.625 15.8169ZM14.3334 24.8481H8.08335C7.80709 24.8481 7.54213 24.9579 7.34678 25.1532C7.15143 25.3486 7.04169 25.6135 7.04169 25.8898C7.04169 26.1661 7.15143 26.431 7.34678 26.6264C7.54213 26.8217 7.80709 26.9315 8.08335 26.9315H14.3334C14.6096 26.9315 14.8746 26.8217 15.0699 26.6264C15.2653 26.431 15.375 26.1661 15.375 25.8898C15.375 25.6135 15.2653 25.3486 15.0699 25.1532C14.8746 24.9579 14.6096 24.8481 14.3334 24.8481ZM12.25 35.265H8.08335C7.80709 35.265 7.54213 35.1552 7.34678 34.9599C7.15143 34.7645 7.04169 34.4996 7.04169 34.2233C7.04169 33.947 7.15143 33.6821 7.34678 33.4867C7.54213 33.2914 7.80709 33.1816 8.08335 33.1816H12.25C12.5263 33.1816 12.7912 33.2914 12.9866 33.4867C13.1819 33.6821 13.2917 33.947 13.2917 34.2233C13.2917 34.4996 13.1819 34.7645 12.9866 34.9599C12.7912 35.1552 12.5263 35.265 12.25 35.265Z" fill="url(#paint0_linear_46_2831)"/>
<defs>
<linearGradient id="paint0_linear_46_2831" x1="-3.26647" y1="25.9009" x2="40.4434" y2="23.0034" gradientUnits="userSpaceOnUse">
<stop stop-color="#443ED9"/>
<stop offset="1" stop-color="#F603C7"/>
</linearGradient>
</defs>
</svg>
