<svg width="48" height="48" viewBox="0 0 48 48" fill="none" xmlns="http://www.w3.org/2000/svg">
<path fill-rule="evenodd" clip-rule="evenodd" d="M2.90625 0.463379H45.0938C45.7148 0.465234 46.3098 0.712759 46.749 1.1519C47.1881 1.59103 47.4356 2.1861 47.4375 2.80713V43.4321C47.4375 44.4681 47.026 45.4617 46.2934 46.1943C45.5608 46.9268 44.5673 47.3384 43.5312 47.3384H32.5938C31.5577 47.3384 30.5642 46.9268 29.8316 46.1943C29.0991 45.4617 28.6875 44.4681 28.6875 43.4321V37.9634H2.90625C2.28522 37.9615 1.69015 37.714 1.25102 37.2749C0.81188 36.8357 0.564355 36.2407 0.5625 35.6196V2.80713C0.564355 2.1861 0.81188 1.59103 1.25102 1.1519C1.69015 0.712759 2.28522 0.465234 2.90625 0.463379ZM45.1865 45.0874C45.6256 44.6482 45.8731 44.0532 45.875 43.4321V42.6509H30.25V43.4321C30.2519 44.0532 30.4994 44.6482 30.9385 45.0874C31.3777 45.5265 31.9727 45.774 32.5938 45.7759H43.5312C44.1523 45.774 44.7473 45.5265 45.1865 45.0874ZM30.25 41.0884H45.875V23.9009H30.25V41.0884ZM30.25 22.3384H45.875V21.5571C45.8731 20.9361 45.6256 20.341 45.1865 19.9019C44.7473 19.4628 44.1523 19.2152 43.5312 19.2134H32.5938C31.9727 19.2152 31.3777 19.4628 30.9385 19.9019C30.4994 20.341 30.2519 20.9361 30.25 21.5571V22.3384ZM43.5312 17.6509C44.3799 17.6532 45.2039 17.9362 45.875 18.4556V8.27588H2.125V35.6196C2.125 35.8268 2.20731 36.0255 2.35382 36.1721C2.50034 36.3186 2.69905 36.4009 2.90625 36.4009H28.6875V21.5571C28.6875 20.5211 29.0991 19.5276 29.8316 18.795C30.5642 18.0624 31.5577 17.6509 32.5938 17.6509H43.5312ZM2.125 6.71338H45.875V2.80713C45.875 2.59993 45.7927 2.40121 45.6462 2.2547C45.4997 2.10819 45.3009 2.02588 45.0938 2.02588H2.90625C2.69905 2.02588 2.50034 2.10819 2.35382 2.2547C2.20731 2.40121 2.125 2.59993 2.125 2.80713V6.71338ZM4.46875 3.58838H5.25C5.4572 3.58838 5.65591 3.67069 5.80243 3.8172C5.94894 3.96371 6.03125 4.16243 6.03125 4.36963C6.03125 4.57683 5.94894 4.77554 5.80243 4.92206C5.65591 5.06857 5.4572 5.15088 5.25 5.15088H4.46875C4.26155 5.15088 4.06284 5.06857 3.91632 4.92206C3.76981 4.77554 3.6875 4.57683 3.6875 4.36963C3.6875 4.16243 3.76981 3.96371 3.91632 3.8172C4.06284 3.67069 4.26155 3.58838 4.46875 3.58838ZM8.375 3.58838H7.59375C7.38655 3.58838 7.18784 3.67069 7.04132 3.8172C6.89481 3.96371 6.8125 4.16243 6.8125 4.36963C6.8125 4.57683 6.89481 4.77554 7.04132 4.92206C7.18784 5.06857 7.38655 5.15088 7.59375 5.15088H8.375C8.5822 5.15088 8.78091 5.06857 8.92743 4.92206C9.07394 4.77554 9.15625 4.57683 9.15625 4.36963C9.15625 4.16243 9.07394 3.96371 8.92743 3.8172C8.78091 3.67069 8.5822 3.58838 8.375 3.58838ZM10.7188 3.58838H11.5C11.7072 3.58838 11.9059 3.67069 12.0524 3.8172C12.1989 3.96371 12.2812 4.16243 12.2812 4.36963C12.2812 4.57683 12.1989 4.77554 12.0524 4.92206C11.9059 5.06857 11.7072 5.15088 11.5 5.15088H10.7188C10.5115 5.15088 10.3128 5.06857 10.1663 4.92206C10.0198 4.77554 9.9375 4.57683 9.9375 4.36963C9.9375 4.16243 10.0198 3.96371 10.1663 3.8172C10.3128 3.67069 10.5115 3.58838 10.7188 3.58838ZM4.46875 12.9634C4.26155 12.9634 4.06284 13.0457 3.91632 13.1922C3.76981 13.3387 3.6875 13.5374 3.6875 13.7446V30.9321C3.6875 31.1393 3.76981 31.338 3.91632 31.4846C4.06284 31.6311 4.26155 31.7134 4.46875 31.7134H26.3438C26.551 31.7134 26.7497 31.6311 26.8962 31.4846C27.0427 31.338 27.125 31.1393 27.125 30.9321V13.7446C27.125 13.5374 27.0427 13.3387 26.8962 13.1922C26.7497 13.0457 26.551 12.9634 26.3438 12.9634H4.46875ZM5.875 30.1509L12.2812 19.9087L18.6875 30.1509H5.875ZM20.5234 30.1509L18.8203 27.4165L20.875 24.479L24.8438 30.1509H20.5234ZM25.5625 28.4556L21.5156 22.6743C21.4436 22.5712 21.3478 22.4869 21.2363 22.4288C21.1247 22.3706 21.0008 22.3402 20.875 22.3402C20.7492 22.3402 20.6253 22.3706 20.5137 22.4288C20.4022 22.4869 20.3064 22.5712 20.2344 22.6743L17.9219 25.979L12.9453 18.0181C12.8694 17.9129 12.7697 17.8272 12.6542 17.7681C12.5388 17.7091 12.4109 17.6782 12.2812 17.6782C12.1516 17.6782 12.0237 17.7091 11.9083 17.7681C11.7928 17.8272 11.6931 17.9129 11.6172 18.0181L5.25 28.2056V14.5259H25.5625V28.4556ZM19.8334 20.3809C19.4479 20.6384 18.9948 20.7759 18.5312 20.7759C17.9096 20.7759 17.3135 20.5289 16.874 20.0894C16.4344 19.6499 16.1875 19.0537 16.1875 18.4321C16.1875 17.9686 16.325 17.5154 16.5825 17.13C16.84 16.7446 17.2061 16.4442 17.6343 16.2668C18.0626 16.0894 18.5338 16.043 18.9885 16.1334C19.4431 16.2238 19.8608 16.4471 20.1885 16.7748C20.5163 17.1026 20.7395 17.5202 20.83 17.9749C20.9204 18.4295 20.874 18.9008 20.6966 19.329C20.5192 19.7573 20.2188 20.1234 19.8334 20.3809ZM18.9653 17.7825C18.8368 17.6967 18.6858 17.6509 18.5312 17.6509C18.324 17.6509 18.1253 17.7332 17.9788 17.8797C17.8323 18.0262 17.75 18.2249 17.75 18.4321C17.75 18.5866 17.7958 18.7377 17.8817 18.8662C17.9675 18.9946 18.0895 19.0948 18.2323 19.1539C18.375 19.213 18.5321 19.2285 18.6837 19.1984C18.8352 19.1682 18.9744 19.0938 19.0837 18.9846C19.1929 18.8753 19.2673 18.7361 19.2975 18.5845C19.3276 18.433 19.3122 18.2759 19.253 18.1332C19.1939 17.9904 19.0938 17.8684 18.9653 17.7825ZM43.5312 3.58838H16.1875C15.9803 3.58838 15.7816 3.67069 15.6351 3.8172C15.4886 3.96371 15.4062 4.16243 15.4062 4.36963C15.4062 4.57683 15.4886 4.77554 15.6351 4.92206C15.7816 5.06857 15.9803 5.15088 16.1875 5.15088H43.5312C43.7384 5.15088 43.9372 5.06857 44.0837 4.92206C44.2302 4.77554 44.3125 4.57683 44.3125 4.36963C44.3125 4.16243 44.2302 3.96371 44.0837 3.8172C43.9372 3.67069 43.7384 3.58838 43.5312 3.58838ZM37.2812 43.4321H38.8438C39.0509 43.4321 39.2497 43.5144 39.3962 43.6609C39.5427 43.8075 39.625 44.0062 39.625 44.2134C39.625 44.4206 39.5427 44.6193 39.3962 44.7658C39.2497 44.9123 39.0509 44.9946 38.8438 44.9946H37.2812C37.0741 44.9946 36.8753 44.9123 36.7288 44.7658C36.5823 44.6193 36.5 44.4206 36.5 44.2134C36.5 44.0062 36.5823 43.8075 36.7288 43.6609C36.8753 43.5144 37.0741 43.4321 37.2812 43.4321ZM38.8438 19.9946H37.2812C37.0741 19.9946 36.8753 20.0769 36.7288 20.2235C36.5823 20.37 36.5 20.5687 36.5 20.7759C36.5 20.9831 36.5823 21.1818 36.7288 21.3283C36.8753 21.4748 37.0741 21.5571 37.2812 21.5571H38.8438C39.0509 21.5571 39.2497 21.4748 39.3962 21.3283C39.5427 21.1818 39.625 20.9831 39.625 20.7759C39.625 20.5687 39.5427 20.37 39.3962 20.2235C39.2497 20.0769 39.0509 19.9946 38.8438 19.9946ZM34.9375 28.5885C35.1447 28.5885 35.3433 28.6708 35.4898 28.8173C35.6363 28.9638 35.7186 29.1625 35.7186 29.3696C35.7186 29.5768 35.6363 29.7755 35.4898 29.922L32.9172 32.4946L35.4898 35.0673C35.6322 35.2146 35.7109 35.412 35.7091 35.6168C35.7073 35.8217 35.6252 36.0176 35.4803 36.1625C35.3355 36.3073 35.1395 36.3895 34.9347 36.3913C34.7299 36.393 34.5325 36.3143 34.3852 36.172L31.2602 33.047C31.1137 32.9005 31.0314 32.7018 31.0314 32.4946C31.0314 32.2875 31.1137 32.0888 31.2602 31.9423L34.3852 28.8173C34.5317 28.6708 34.7303 28.5885 34.9375 28.5885ZM44.8648 31.9423L41.7398 28.8173C41.5925 28.675 41.3952 28.5962 41.1903 28.598C40.9855 28.5998 40.7895 28.6819 40.6447 28.8268C40.4998 28.9717 40.4177 29.1676 40.4159 29.3724C40.4141 29.5773 40.4928 29.7746 40.6352 29.922L43.2078 32.4946L40.6352 35.0673C40.5605 35.1394 40.501 35.2256 40.4601 35.3209C40.4191 35.4162 40.3976 35.5187 40.3967 35.6224C40.3958 35.7262 40.4155 35.829 40.4548 35.9251C40.4941 36.0211 40.5521 36.1083 40.6255 36.1817C40.6988 36.255 40.7861 36.313 40.8821 36.3523C40.9781 36.3916 41.081 36.4114 41.1847 36.4104C41.2884 36.4095 41.3909 36.388 41.4863 36.3471C41.5816 36.3061 41.6678 36.2466 41.7398 36.172L44.8648 33.047C45.0113 32.9005 45.0936 32.7018 45.0936 32.4946C45.0936 32.2875 45.0113 32.0888 44.8648 31.9423ZM39.2453 26.3432C39.4264 26.2427 39.6399 26.2182 39.8391 26.2751C40.0383 26.332 40.2067 26.4657 40.3074 26.6468C40.408 26.8279 40.4326 27.0415 40.3758 27.2407L37.2508 38.1782C37.2041 38.3414 37.1056 38.4849 36.9702 38.5871C36.8347 38.6892 36.6697 38.7446 36.5 38.7446C36.4276 38.7448 36.3554 38.7346 36.2859 38.7142C36.1872 38.6861 36.095 38.6388 36.0146 38.5751C35.9341 38.5113 35.867 38.4324 35.8171 38.3427C35.7672 38.253 35.7355 38.1544 35.7237 38.0525C35.7119 37.9505 35.7203 37.8472 35.7484 37.7485L38.8734 26.811C38.9305 26.612 39.0643 26.4437 39.2453 26.3432Z" fill="url(#paint0_linear_47_80)"/>
<path d="M45.0938 0.463379L45.094 0.363379H45.0938V0.463379ZM2.90625 0.463379V0.363378L2.90595 0.363379L2.90625 0.463379ZM46.749 1.1519L46.6783 1.22261V1.22261L46.749 1.1519ZM47.4375 2.80713H47.5375L47.5375 2.80683L47.4375 2.80713ZM46.2934 46.1943L46.2227 46.1236L46.2934 46.1943ZM29.8316 46.1943L29.9023 46.1236L29.8316 46.1943ZM28.6875 37.9634H28.7875V37.8634H28.6875V37.9634ZM2.90625 37.9634L2.90595 38.0634H2.90625V37.9634ZM1.25102 37.2749L1.32173 37.2042H1.32173L1.25102 37.2749ZM0.5625 35.6196H0.4625L0.4625 35.6199L0.5625 35.6196ZM0.5625 2.80713L0.4625 2.80683V2.80713H0.5625ZM1.25102 1.1519L1.18031 1.08119L1.25102 1.1519ZM45.875 43.4321L45.975 43.4324V43.4321H45.875ZM45.1865 45.0874L45.1158 45.0167L45.1865 45.0874ZM45.875 42.6509H45.975V42.5509H45.875V42.6509ZM30.25 42.6509V42.5509H30.15V42.6509H30.25ZM30.25 43.4321H30.15V43.4324L30.25 43.4321ZM30.9385 45.0874L31.0092 45.0167L30.9385 45.0874ZM32.5938 45.7759L32.5935 45.8759H32.5938V45.7759ZM43.5312 45.7759V45.8759L43.5315 45.8759L43.5312 45.7759ZM45.875 41.0884V41.1884H45.975V41.0884H45.875ZM30.25 41.0884H30.15V41.1884H30.25V41.0884ZM45.875 23.9009H45.975V23.8009H45.875V23.9009ZM30.25 23.9009V23.8009H30.15V23.9009H30.25ZM45.875 22.3384V22.4384H45.975V22.3384H45.875ZM30.25 22.3384H30.15V22.4384H30.25V22.3384ZM45.875 21.5571H45.975L45.975 21.5568L45.875 21.5571ZM45.1865 19.9019L45.1158 19.9726L45.1865 19.9019ZM43.5312 19.2134L43.5315 19.1134H43.5312V19.2134ZM32.5938 19.2134V19.1134H32.5935L32.5938 19.2134ZM30.9385 19.9019L30.8678 19.8312L30.9385 19.9019ZM30.25 21.5571L30.15 21.5568V21.5571H30.25ZM45.875 18.4556L45.8138 18.5346L45.975 18.6594V18.4556H45.875ZM43.5312 17.6509L43.5315 17.5509H43.5312V17.6509ZM45.875 8.27588H45.975V8.17588H45.875V8.27588ZM2.125 8.27588V8.17588H2.025V8.27588H2.125ZM2.35382 36.1721L2.28311 36.2428H2.28311L2.35382 36.1721ZM28.6875 36.4009V36.5009H28.7875V36.4009H28.6875ZM29.8316 18.795L29.7609 18.7243L29.8316 18.795ZM45.875 6.71338V6.81338H45.975V6.71338H45.875ZM2.125 6.71338H2.025V6.81338H2.125V6.71338ZM45.6462 2.2547L45.7169 2.18399V2.18399L45.6462 2.2547ZM2.35382 2.2547L2.28311 2.18399L2.35382 2.2547ZM5.80243 3.8172L5.73172 3.88791L5.80243 3.8172ZM5.80243 4.92206L5.73172 4.85135L5.80243 4.92206ZM3.91632 4.92206L3.98703 4.85135L3.91632 4.92206ZM7.04132 3.8172L7.11203 3.88791L7.04132 3.8172ZM7.04132 4.92206L7.11203 4.85135L7.04132 4.92206ZM8.92743 4.92206L8.85672 4.85135H8.85672L8.92743 4.92206ZM12.0524 3.8172L11.9817 3.88791L11.9817 3.88791L12.0524 3.8172ZM12.0524 4.92206L11.9817 4.85135H11.9817L12.0524 4.92206ZM10.1663 4.92206L10.237 4.85135H10.237L10.1663 4.92206ZM3.91632 13.1922L3.98703 13.2629L3.98703 13.2629L3.91632 13.1922ZM26.8962 13.1922L26.8255 13.2629L26.8962 13.1922ZM12.2812 19.9087L12.366 19.8557L12.2812 19.7201L12.1965 19.8557L12.2812 19.9087ZM5.875 30.1509L5.79022 30.0979L5.6945 30.2509H5.875V30.1509ZM18.6875 30.1509V30.2509H18.868L18.7723 30.0979L18.6875 30.1509ZM18.8203 27.4165L18.7384 27.3592L18.7005 27.4133L18.7354 27.4694L18.8203 27.4165ZM20.5234 30.1509L20.4386 30.2037L20.4679 30.2509H20.5234V30.1509ZM20.875 24.479L20.9569 24.4217L20.875 24.3046L20.7931 24.4217L20.875 24.479ZM24.8438 30.1509V30.2509H25.0358L24.9257 30.0935L24.8438 30.1509ZM21.5156 22.6743L21.4336 22.7316L21.4337 22.7317L21.5156 22.6743ZM25.5625 28.4556L25.4806 28.5129L25.6625 28.7728V28.4556H25.5625ZM21.2363 22.4288L21.2825 22.3401H21.2825L21.2363 22.4288ZM20.5137 22.4288L20.4675 22.3401H20.4675L20.5137 22.4288ZM20.2344 22.6743L20.3163 22.7316L20.3164 22.7316L20.2344 22.6743ZM17.9219 25.979L17.8371 26.032L17.9172 26.1601L18.0038 26.0363L17.9219 25.979ZM12.9453 18.0181L13.0303 17.9649L13.0264 17.9596L12.9453 18.0181ZM12.6542 17.7681L12.6087 17.8572L12.6087 17.8572L12.6542 17.7681ZM11.9083 17.7681L11.9538 17.8572L11.9538 17.8572L11.9083 17.7681ZM11.6172 18.0181L11.5359 17.9594L11.5324 17.9651L11.6172 18.0181ZM5.25 28.2056H5.15V28.5542L5.3348 28.2586L5.25 28.2056ZM5.25 14.5259V14.4259H5.15V14.5259H5.25ZM25.5625 14.5259H25.6625V14.4259H25.5625V14.5259ZM19.8334 20.3809L19.8889 20.464L19.8334 20.3809ZM16.874 20.0894L16.8033 20.1601L16.874 20.0894ZM16.5825 17.13L16.6656 17.1856L16.5825 17.13ZM17.6343 16.2668L17.6726 16.3592L17.6343 16.2668ZM20.1885 16.7748L20.1178 16.8456L20.1885 16.7748ZM20.83 17.9749L20.7319 17.9944L20.83 17.9749ZM18.9653 17.7825L19.0208 17.6994L18.9653 17.7825ZM17.9788 17.8797L17.9081 17.809L17.9788 17.8797ZM17.8817 18.8662L17.9648 18.8106L17.8817 18.8662ZM18.2323 19.1539L18.194 19.2463H18.194L18.2323 19.1539ZM18.6837 19.1984L18.6642 19.1003H18.6642L18.6837 19.1984ZM19.0837 18.9846L19.013 18.9138V18.9138L19.0837 18.9846ZM19.2975 18.5845L19.3956 18.6041V18.6041L19.2975 18.5845ZM19.253 18.1332L19.1606 18.1714L19.253 18.1332ZM15.6351 3.8172L15.7058 3.88791L15.7058 3.88791L15.6351 3.8172ZM15.6351 4.92206L15.7058 4.85135H15.7058L15.6351 4.92206ZM44.0837 4.92206L44.1544 4.99277V4.99277L44.0837 4.92206ZM44.0837 3.8172L44.1544 3.74649V3.74649L44.0837 3.8172ZM39.3962 43.6609L39.4669 43.5902L39.4669 43.5902L39.3962 43.6609ZM39.3962 44.7658L39.4669 44.8365L39.4669 44.8365L39.3962 44.7658ZM36.7288 44.7658L36.6581 44.8365L36.6581 44.8365L36.7288 44.7658ZM36.7288 43.6609L36.6581 43.5902L36.6581 43.5902L36.7288 43.6609ZM36.7288 20.2235L36.6581 20.1527H36.6581L36.7288 20.2235ZM36.7288 21.3283L36.6581 21.399H36.6581L36.7288 21.3283ZM39.3962 21.3283L39.4669 21.399H39.4669L39.3962 21.3283ZM39.3962 20.2235L39.4669 20.1527H39.4669L39.3962 20.2235ZM35.4898 28.8173L35.5606 28.7466L35.5605 28.7466L35.4898 28.8173ZM35.4898 29.922L35.5606 29.9927L35.5606 29.9927L35.4898 29.922ZM32.9172 32.4946L32.8465 32.4239L32.7758 32.4946L32.8465 32.5653L32.9172 32.4946ZM35.4898 35.0673L35.5618 34.9978L35.5606 34.9966L35.4898 35.0673ZM35.7091 35.6168L35.8091 35.6177L35.7091 35.6168ZM35.4803 36.1625L35.4096 36.0917L35.4096 36.0917L35.4803 36.1625ZM34.9347 36.3913L34.9356 36.4912L34.9347 36.3913ZM34.3852 36.172L34.3144 36.2427L34.3157 36.2439L34.3852 36.172ZM31.2602 33.047L31.1894 33.1177L31.1894 33.1177L31.2602 33.047ZM31.2602 31.9423L31.1894 31.8716L31.1894 31.8716L31.2602 31.9423ZM34.3852 28.8173L34.3145 28.7466L34.3144 28.7466L34.3852 28.8173ZM41.7398 28.8173L41.8106 28.7466L41.8093 28.7454L41.7398 28.8173ZM44.8648 31.9423L44.9356 31.8716L44.9356 31.8716L44.8648 31.9423ZM41.1903 28.598L41.1894 28.498L41.1903 28.598ZM40.6447 28.8268L40.574 28.7561H40.574L40.6447 28.8268ZM40.4159 29.3724L40.5159 29.3733V29.3733L40.4159 29.3724ZM40.6352 29.922L40.5632 29.9915L40.5644 29.9927L40.6352 29.922ZM43.2078 32.4946L43.2785 32.5653L43.3492 32.4946L43.2785 32.4239L43.2078 32.4946ZM40.6352 35.0673L40.7046 35.1392L40.7059 35.138L40.6352 35.0673ZM40.4601 35.3209L40.3682 35.2814V35.2814L40.4601 35.3209ZM40.3967 35.6224L40.4967 35.6233V35.6233L40.3967 35.6224ZM40.4548 35.9251L40.5474 35.8872V35.8872L40.4548 35.9251ZM40.6255 36.1817L40.5548 36.2524V36.2524L40.6255 36.1817ZM40.8821 36.3523L40.8442 36.4449H40.8442L40.8821 36.3523ZM41.1847 36.4104L41.1856 36.5104H41.1856L41.1847 36.4104ZM41.4863 36.3471L41.5257 36.4389L41.4863 36.3471ZM41.7398 36.172L41.6691 36.1013L41.6679 36.1025L41.7398 36.172ZM44.8648 33.047L44.9356 33.1177L44.9356 33.1177L44.8648 33.047ZM39.8391 26.2751L39.8116 26.3713L39.8116 26.3713L39.8391 26.2751ZM39.2453 26.3432L39.1968 26.2558V26.2558L39.2453 26.3432ZM40.3074 26.6468L40.22 26.6953V26.6954L40.3074 26.6468ZM40.3758 27.2407L40.4719 27.2682L40.4719 27.2682L40.3758 27.2407ZM37.2508 38.1782L37.3469 38.2057L37.3469 38.2057L37.2508 38.1782ZM36.5 38.7446L36.5 38.6446H36.4997L36.5 38.7446ZM36.2859 38.7142L36.3141 38.6182L36.3133 38.618L36.2859 38.7142ZM35.7237 38.0525L35.6243 38.0639L35.7237 38.0525ZM35.7484 37.7485L35.6523 37.7211L35.6523 37.7211L35.7484 37.7485ZM38.8734 26.811L38.7773 26.7835L38.7773 26.7836L38.8734 26.811ZM45.0938 0.363379H2.90625V0.563379H45.0938V0.363379ZM46.8197 1.08119C46.3619 0.623368 45.7415 0.365313 45.094 0.363379L45.0935 0.563378C45.6881 0.565154 46.2578 0.802151 46.6783 1.22261L46.8197 1.08119ZM47.5375 2.80683C47.5356 2.15938 47.2775 1.539 46.8197 1.08119L46.6783 1.22261C47.0987 1.64306 47.3357 2.21281 47.3375 2.80743L47.5375 2.80683ZM47.5375 43.4321V2.80713H47.3375V43.4321H47.5375ZM46.3641 46.265C47.1154 45.5137 47.5375 44.4947 47.5375 43.4321H47.3375C47.3375 44.4416 46.9365 45.4097 46.2227 46.1236L46.3641 46.265ZM43.5312 47.4384C44.5938 47.4384 45.6128 47.0163 46.3641 46.265L46.2227 46.1236C45.5089 46.8374 44.5407 47.2384 43.5312 47.2384V47.4384ZM32.5938 47.4384H43.5312V47.2384H32.5938V47.4384ZM29.7609 46.265C30.5122 47.0163 31.5312 47.4384 32.5938 47.4384V47.2384C31.5843 47.2384 30.6161 46.8374 29.9023 46.1236L29.7609 46.265ZM28.5875 43.4321C28.5875 44.4947 29.0096 45.5137 29.7609 46.265L29.9023 46.1236C29.1885 45.4097 28.7875 44.4416 28.7875 43.4321H28.5875ZM28.5875 37.9634V43.4321H28.7875V37.9634H28.5875ZM2.90625 38.0634H28.6875V37.8634H2.90625V38.0634ZM1.18031 37.3456C1.63812 37.8034 2.2585 38.0614 2.90595 38.0634L2.90655 37.8634C2.31194 37.8616 1.74218 37.6246 1.32173 37.2042L1.18031 37.3456ZM0.4625 35.6199C0.464434 36.2674 0.722489 36.8878 1.18031 37.3456L1.32173 37.2042C0.901272 36.7837 0.664275 36.2139 0.6625 35.6193L0.4625 35.6199ZM0.4625 2.80713V35.6196H0.6625V2.80713H0.4625ZM1.18031 1.08119C0.722489 1.539 0.464434 2.15938 0.4625 2.80683L0.6625 2.80743C0.664275 2.21281 0.901272 1.64306 1.32173 1.22261L1.18031 1.08119ZM2.90595 0.363379C2.2585 0.365313 1.63812 0.623368 1.18031 1.08119L1.32173 1.22261C1.74218 0.802151 2.31194 0.565154 2.90655 0.563378L2.90595 0.363379ZM45.775 43.4318C45.7732 44.0264 45.5362 44.5962 45.1158 45.0167L45.2572 45.1581C45.715 44.7003 45.9731 44.0799 45.975 43.4324L45.775 43.4318ZM45.775 42.6509V43.4321H45.975V42.6509H45.775ZM30.25 42.7509H45.875V42.5509H30.25V42.7509ZM30.35 43.4321V42.6509H30.15V43.4321H30.35ZM31.0092 45.0167C30.5888 44.5962 30.3518 44.0264 30.35 43.4318L30.15 43.4324C30.1519 44.0799 30.41 44.7003 30.8678 45.1581L31.0092 45.0167ZM32.594 45.6759C31.9994 45.6741 31.4297 45.4371 31.0092 45.0167L30.8678 45.1581C31.3256 45.6159 31.946 45.8739 32.5935 45.8759L32.594 45.6759ZM43.5312 45.6759H32.5938V45.8759H43.5312V45.6759ZM45.1158 45.0167C44.6953 45.4371 44.1256 45.6741 43.531 45.6759L43.5315 45.8759C44.179 45.8739 44.7994 45.6159 45.2572 45.1581L45.1158 45.0167ZM45.875 40.9884H30.25V41.1884H45.875V40.9884ZM45.775 23.9009V41.0884H45.975V23.9009H45.775ZM30.25 24.0009H45.875V23.8009H30.25V24.0009ZM30.35 41.0884V23.9009H30.15V41.0884H30.35ZM45.875 22.2384H30.25V22.4384H45.875V22.2384ZM45.775 21.5571V22.3384H45.975V21.5571H45.775ZM45.1158 19.9726C45.5362 20.3931 45.7732 20.9628 45.775 21.5574L45.975 21.5568C45.9731 20.9094 45.715 20.289 45.2572 19.8312L45.1158 19.9726ZM43.531 19.3134C44.1256 19.3152 44.6953 19.5522 45.1158 19.9726L45.2572 19.8312C44.7994 19.3734 44.179 19.1153 43.5315 19.1134L43.531 19.3134ZM32.5938 19.3134H43.5312V19.1134H32.5938V19.3134ZM31.0092 19.9726C31.4297 19.5522 31.9994 19.3152 32.594 19.3134L32.5935 19.1134C31.946 19.1153 31.3256 19.3734 30.8678 19.8312L31.0092 19.9726ZM30.35 21.5574C30.3518 20.9628 30.5888 20.3931 31.0092 19.9726L30.8678 19.8312C30.41 20.289 30.1519 20.9094 30.15 21.5568L30.35 21.5574ZM30.35 22.3384V21.5571H30.15V22.3384H30.35ZM45.9362 18.3765C45.2477 17.8436 44.4022 17.5533 43.5315 17.5509L43.531 17.7509C44.3575 17.7532 45.1601 18.0287 45.8138 18.5346L45.9362 18.3765ZM45.775 8.27588V18.4556H45.975V8.27588H45.775ZM2.125 8.37588H45.875V8.17588H2.125V8.37588ZM2.225 35.6196V8.27588H2.025V35.6196H2.225ZM2.42453 36.1013C2.29677 35.9736 2.225 35.8003 2.225 35.6196H2.025C2.025 35.8534 2.11785 36.0775 2.28311 36.2428L2.42453 36.1013ZM2.90625 36.3009C2.72557 36.3009 2.55229 36.2291 2.42453 36.1013L2.28311 36.2428C2.44838 36.408 2.67253 36.5009 2.90625 36.5009V36.3009ZM28.6875 36.3009H2.90625V36.5009H28.6875V36.3009ZM28.5875 21.5571V36.4009H28.7875V21.5571H28.5875ZM29.7609 18.7243C29.0096 19.4756 28.5875 20.4946 28.5875 21.5571H28.7875C28.7875 20.5476 29.1885 19.5795 29.9023 18.8657L29.7609 18.7243ZM32.5938 17.5509C31.5312 17.5509 30.5122 17.973 29.7609 18.7243L29.9023 18.8657C30.6161 18.1519 31.5843 17.7509 32.5938 17.7509V17.5509ZM43.5312 17.5509H32.5938V17.7509H43.5312V17.5509ZM45.875 6.61338H2.125V6.81338H45.875V6.61338ZM45.775 2.80713V6.71338H45.975V2.80713H45.775ZM45.5755 2.32541C45.7032 2.45317 45.775 2.62645 45.775 2.80713H45.975C45.975 2.57341 45.8822 2.34926 45.7169 2.18399L45.5755 2.32541ZM45.0938 2.12588C45.2744 2.12588 45.4477 2.19765 45.5755 2.32541L45.7169 2.18399C45.5516 2.01872 45.3275 1.92588 45.0938 1.92588V2.12588ZM2.90625 2.12588H45.0938V1.92588H2.90625V2.12588ZM2.42453 2.32541C2.55229 2.19765 2.72557 2.12588 2.90625 2.12588V1.92588C2.67253 1.92588 2.44838 2.01872 2.28311 2.18399L2.42453 2.32541ZM2.225 2.80713C2.225 2.62645 2.29677 2.45317 2.42453 2.32541L2.28311 2.18399C2.11785 2.34926 2.025 2.57341 2.025 2.80713H2.225ZM2.225 6.71338V2.80713H2.025V6.71338H2.225ZM5.25 3.48838H4.46875V3.68838H5.25V3.48838ZM5.87314 3.74649C5.70787 3.58122 5.48372 3.48838 5.25 3.48838V3.68838C5.43068 3.68838 5.60396 3.76015 5.73172 3.88791L5.87314 3.74649ZM6.13125 4.36963C6.13125 4.13591 6.0384 3.91176 5.87314 3.74649L5.73172 3.88791C5.85948 4.01567 5.93125 4.18895 5.93125 4.36963H6.13125ZM5.87314 4.99277C6.0384 4.8275 6.13125 4.60335 6.13125 4.36963H5.93125C5.93125 4.55031 5.85948 4.72359 5.73172 4.85135L5.87314 4.99277ZM5.25 5.25088C5.48372 5.25088 5.70787 5.15803 5.87314 4.99277L5.73172 4.85135C5.60396 4.9791 5.43068 5.05088 5.25 5.05088V5.25088ZM4.46875 5.25088H5.25V5.05088H4.46875V5.25088ZM3.84561 4.99277C4.01088 5.15803 4.23503 5.25088 4.46875 5.25088V5.05088C4.28807 5.05088 4.11479 4.9791 3.98703 4.85135L3.84561 4.99277ZM3.5875 4.36963C3.5875 4.60335 3.68035 4.8275 3.84561 4.99277L3.98703 4.85135C3.85927 4.72359 3.7875 4.55031 3.7875 4.36963H3.5875ZM3.84561 3.74649C3.68035 3.91176 3.5875 4.13591 3.5875 4.36963H3.7875C3.7875 4.18895 3.85927 4.01567 3.98703 3.88791L3.84561 3.74649ZM4.46875 3.48838C4.23503 3.48838 4.01088 3.58122 3.84561 3.74649L3.98703 3.88791C4.11479 3.76015 4.28807 3.68838 4.46875 3.68838V3.48838ZM7.59375 3.68838H8.375V3.48838H7.59375V3.68838ZM7.11203 3.88791C7.23979 3.76015 7.41307 3.68838 7.59375 3.68838V3.48838C7.36003 3.48838 7.13588 3.58122 6.97061 3.74649L7.11203 3.88791ZM6.9125 4.36963C6.9125 4.18895 6.98427 4.01567 7.11203 3.88791L6.97061 3.74649C6.80535 3.91176 6.7125 4.13591 6.7125 4.36963H6.9125ZM7.11203 4.85135C6.98427 4.72359 6.9125 4.55031 6.9125 4.36963H6.7125C6.7125 4.60335 6.80535 4.8275 6.97061 4.99277L7.11203 4.85135ZM7.59375 5.05088C7.41307 5.05088 7.23979 4.9791 7.11203 4.85135L6.97061 4.99277C7.13588 5.15803 7.36003 5.25088 7.59375 5.25088V5.05088ZM8.375 5.05088H7.59375V5.25088H8.375V5.05088ZM8.85672 4.85135C8.72896 4.9791 8.55568 5.05088 8.375 5.05088V5.25088C8.60872 5.25088 8.83287 5.15803 8.99814 4.99277L8.85672 4.85135ZM9.05625 4.36963C9.05625 4.55031 8.98448 4.72359 8.85672 4.85135L8.99814 4.99277C9.1634 4.8275 9.25625 4.60335 9.25625 4.36963H9.05625ZM8.85672 3.88791C8.98448 4.01567 9.05625 4.18895 9.05625 4.36963H9.25625C9.25625 4.13591 9.1634 3.91176 8.99814 3.74649L8.85672 3.88791ZM8.375 3.68838C8.55568 3.68838 8.72896 3.76015 8.85672 3.88791L8.99814 3.74649C8.83287 3.58122 8.60872 3.48838 8.375 3.48838V3.68838ZM11.5 3.48838H10.7188V3.68838H11.5V3.48838ZM12.1231 3.74649C11.9579 3.58122 11.7337 3.48838 11.5 3.48838V3.68838C11.6807 3.68838 11.854 3.76015 11.9817 3.88791L12.1231 3.74649ZM12.3813 4.36963C12.3813 4.13591 12.2884 3.91176 12.1231 3.74649L11.9817 3.88791C12.1095 4.01567 12.1812 4.18895 12.1812 4.36963H12.3813ZM12.1231 4.99277C12.2884 4.8275 12.3813 4.60335 12.3813 4.36963H12.1812C12.1812 4.55031 12.1095 4.72359 11.9817 4.85135L12.1231 4.99277ZM11.5 5.25088C11.7337 5.25088 11.9579 5.15803 12.1231 4.99277L11.9817 4.85135C11.854 4.9791 11.6807 5.05088 11.5 5.05088V5.25088ZM10.7188 5.25088H11.5V5.05088H10.7188V5.25088ZM10.0956 4.99277C10.2609 5.15803 10.485 5.25088 10.7188 5.25088V5.05088C10.5381 5.05088 10.3648 4.9791 10.237 4.85135L10.0956 4.99277ZM9.8375 4.36963C9.8375 4.60335 9.93035 4.8275 10.0956 4.99277L10.237 4.85135C10.1093 4.72359 10.0375 4.55031 10.0375 4.36963H9.8375ZM10.0956 3.74649C9.93035 3.91176 9.8375 4.13591 9.8375 4.36963H10.0375C10.0375 4.18895 10.1093 4.01567 10.237 3.88791L10.0956 3.74649ZM10.7188 3.48838C10.485 3.48838 10.2609 3.58122 10.0956 3.74649L10.237 3.88791C10.3648 3.76015 10.5381 3.68838 10.7188 3.68838V3.48838ZM3.98703 13.2629C4.11479 13.1352 4.28807 13.0634 4.46875 13.0634V12.8634C4.23503 12.8634 4.01088 12.9562 3.84561 13.1215L3.98703 13.2629ZM3.7875 13.7446C3.7875 13.564 3.85927 13.3907 3.98703 13.2629L3.84561 13.1215C3.68035 13.2868 3.5875 13.5109 3.5875 13.7446H3.7875ZM3.7875 30.9321V13.7446H3.5875V30.9321H3.7875ZM3.98703 31.4138C3.85927 31.2861 3.7875 31.1128 3.7875 30.9321H3.5875C3.5875 31.1659 3.68035 31.39 3.84561 31.5553L3.98703 31.4138ZM4.46875 31.6134C4.28807 31.6134 4.11479 31.5416 3.98703 31.4138L3.84561 31.5553C4.01088 31.7205 4.23503 31.8134 4.46875 31.8134V31.6134ZM26.3438 31.6134H4.46875V31.8134H26.3438V31.6134ZM26.8255 31.4138C26.6977 31.5416 26.5244 31.6134 26.3438 31.6134V31.8134C26.5775 31.8134 26.8016 31.7205 26.9669 31.5553L26.8255 31.4138ZM27.025 30.9321C27.025 31.1128 26.9532 31.2861 26.8255 31.4138L26.9669 31.5553C27.1322 31.39 27.225 31.1659 27.225 30.9321H27.025ZM27.025 13.7446V30.9321H27.225V13.7446H27.025ZM26.8255 13.2629C26.9532 13.3907 27.025 13.564 27.025 13.7446H27.225C27.225 13.5109 27.1322 13.2868 26.9669 13.1215L26.8255 13.2629ZM26.3438 13.0634C26.5244 13.0634 26.6977 13.1352 26.8255 13.2629L26.9669 13.1215C26.8016 12.9562 26.5775 12.8634 26.3438 12.8634V13.0634ZM4.46875 13.0634H26.3438V12.8634H4.46875V13.0634ZM12.1965 19.8557L5.79022 30.0979L5.95978 30.2039L12.366 19.9617L12.1965 19.8557ZM18.7723 30.0979L12.366 19.8557L12.1965 19.9617L18.6027 30.2039L18.7723 30.0979ZM5.875 30.2509H18.6875V30.0509H5.875V30.2509ZM18.7354 27.4694L20.4386 30.2037L20.6083 30.098L18.9052 27.3636L18.7354 27.4694ZM20.7931 24.4217L18.7384 27.3592L18.9023 27.4738L20.9569 24.5363L20.7931 24.4217ZM24.9257 30.0935L20.9569 24.4217L20.7931 24.5363L24.7618 30.2082L24.9257 30.0935ZM20.5234 30.2509H24.8438V30.0509H20.5234V30.2509ZM21.4337 22.7317L25.4806 28.5129L25.6444 28.3982L21.5975 22.617L21.4337 22.7317ZM21.19 22.5174C21.2873 22.5682 21.3708 22.6416 21.4336 22.7316L21.5976 22.6171C21.5164 22.5007 21.4083 22.4057 21.2825 22.3401L21.19 22.5174ZM20.875 22.4402C20.9847 22.4402 21.0928 22.4667 21.19 22.5174L21.2825 22.3401C21.1567 22.2745 21.0169 22.2402 20.875 22.2402V22.4402ZM20.56 22.5174C20.6572 22.4667 20.7653 22.4402 20.875 22.4402V22.2402C20.7331 22.2402 20.5933 22.2745 20.4675 22.3401L20.56 22.5174ZM20.3164 22.7316C20.3792 22.6416 20.4627 22.5682 20.56 22.5174L20.4675 22.3401C20.3417 22.4057 20.2336 22.5007 20.1524 22.6171L20.3164 22.7316ZM18.0038 26.0363L20.3163 22.7316L20.1524 22.617L17.8399 25.9217L18.0038 26.0363ZM12.8605 18.0711L17.8371 26.032L18.0067 25.926L13.0301 17.9651L12.8605 18.0711ZM12.6087 17.8572C12.71 17.909 12.7976 17.9842 12.8642 18.0766L13.0264 17.9596C12.9413 17.8415 12.8293 17.7454 12.6998 17.6791L12.6087 17.8572ZM12.2812 17.7782C12.3951 17.7782 12.5073 17.8053 12.6087 17.8572L12.6998 17.6791C12.5702 17.6128 12.4268 17.5782 12.2812 17.5782V17.7782ZM11.9538 17.8572C12.0552 17.8053 12.1674 17.7782 12.2812 17.7782V17.5782C12.1357 17.5782 11.9923 17.6128 11.8627 17.6791L11.9538 17.8572ZM11.6983 18.0766C11.7649 17.9842 11.8525 17.909 11.9538 17.8572L11.8627 17.6791C11.7332 17.7454 11.6212 17.8415 11.5361 17.9596L11.6983 18.0766ZM5.3348 28.2586L11.702 18.0711L11.5324 17.9651L5.1652 28.1526L5.3348 28.2586ZM5.15 14.5259V28.2056H5.35V14.5259H5.15ZM25.5625 14.4259H5.25V14.6259H25.5625V14.4259ZM25.6625 28.4556V14.5259H25.4625V28.4556H25.6625ZM18.5312 20.8759C19.0146 20.8759 19.4871 20.7326 19.8889 20.464L19.7778 20.2977C19.4088 20.5443 18.975 20.6759 18.5312 20.6759V20.8759ZM16.8033 20.1601C17.2616 20.6184 17.8831 20.8759 18.5312 20.8759V20.6759C17.9362 20.6759 17.3655 20.4395 16.9447 20.0187L16.8033 20.1601ZM16.0875 18.4321C16.0875 19.0803 16.345 19.7018 16.8033 20.1601L16.9447 20.0187C16.5239 19.5979 16.2875 19.0272 16.2875 18.4321H16.0875ZM16.4993 17.0745C16.2308 17.4763 16.0875 17.9488 16.0875 18.4321H16.2875C16.2875 17.9884 16.4191 17.5546 16.6656 17.1856L16.4993 17.0745ZM17.5961 16.1744C17.1495 16.3594 16.7679 16.6726 16.4993 17.0745L16.6656 17.1856C16.9122 16.8166 17.2626 16.529 17.6726 16.3592L17.5961 16.1744ZM19.008 16.0353C18.534 15.941 18.0426 15.9894 17.5961 16.1744L17.6726 16.3592C18.0826 16.1893 18.5337 16.1449 18.969 16.2315L19.008 16.0353ZM20.2592 16.7041C19.9175 16.3624 19.482 16.1296 19.008 16.0353L18.969 16.2315C19.4042 16.3181 19.804 16.5318 20.1178 16.8456L20.2592 16.7041ZM20.928 17.9554C20.8338 17.4813 20.601 17.0459 20.2592 16.7041L20.1178 16.8456C20.4316 17.1594 20.6453 17.5591 20.7319 17.9944L20.928 17.9554ZM20.789 19.3673C20.9739 18.9208 21.0223 18.4294 20.928 17.9554L20.7319 17.9944C20.8185 18.4296 20.774 18.8808 20.6042 19.2908L20.789 19.3673ZM19.8889 20.464C20.2908 20.1955 20.604 19.8138 20.789 19.3673L20.6042 19.2908C20.4344 19.7008 20.1468 20.0512 19.7778 20.2977L19.8889 20.464ZM18.5312 17.7509C18.666 17.7509 18.7977 17.7908 18.9097 17.8657L19.0208 17.6994C18.8759 17.6026 18.7055 17.5509 18.5312 17.5509V17.7509ZM18.0495 17.9504C18.1773 17.8227 18.3506 17.7509 18.5312 17.7509V17.5509C18.2975 17.5509 18.0734 17.6437 17.9081 17.809L18.0495 17.9504ZM17.85 18.4321C17.85 18.2514 17.9218 18.0782 18.0495 17.9504L17.9081 17.809C17.7428 17.9743 17.65 18.1984 17.65 18.4321H17.85ZM17.9648 18.8106C17.89 18.6986 17.85 18.5669 17.85 18.4321H17.65C17.65 18.6064 17.7017 18.7768 17.7985 18.9217L17.9648 18.8106ZM18.2705 19.0615C18.1461 19.01 18.0397 18.9226 17.9648 18.8106L17.7985 18.9217C17.8953 19.0666 18.033 19.1796 18.194 19.2463L18.2705 19.0615ZM18.6642 19.1003C18.532 19.1266 18.395 19.1131 18.2705 19.0615L18.194 19.2463C18.355 19.313 18.5322 19.3304 18.7032 19.2964L18.6642 19.1003ZM19.013 18.9138C18.9177 19.0091 18.7963 19.074 18.6642 19.1003L18.7032 19.2964C18.8741 19.2624 19.0311 19.1785 19.1544 19.0553L19.013 18.9138ZM19.1994 18.565C19.1731 18.6972 19.1082 18.8186 19.013 18.9138L19.1544 19.0553C19.2776 18.932 19.3616 18.775 19.3956 18.6041L19.1994 18.565ZM19.1606 18.1714C19.2122 18.2959 19.2257 18.4329 19.1994 18.565L19.3956 18.6041C19.4296 18.4331 19.4121 18.2559 19.3454 18.0949L19.1606 18.1714ZM18.9097 17.8657C19.0218 17.9405 19.1091 18.0469 19.1606 18.1714L19.3454 18.0949C19.2787 17.9339 19.1658 17.7962 19.0208 17.6994L18.9097 17.8657ZM16.1875 3.68838H43.5312V3.48838H16.1875V3.68838ZM15.7058 3.88791C15.8335 3.76015 16.0068 3.68838 16.1875 3.68838V3.48838C15.9538 3.48838 15.7296 3.58122 15.5644 3.74649L15.7058 3.88791ZM15.5063 4.36963C15.5063 4.18895 15.578 4.01567 15.7058 3.88791L15.5644 3.74649C15.3991 3.91176 15.3062 4.13591 15.3062 4.36963H15.5063ZM15.7058 4.85135C15.578 4.72359 15.5063 4.55031 15.5063 4.36963H15.3062C15.3062 4.60335 15.3991 4.8275 15.5644 4.99277L15.7058 4.85135ZM16.1875 5.05088C16.0068 5.05088 15.8335 4.9791 15.7058 4.85135L15.5644 4.99277C15.7296 5.15803 15.9538 5.25088 16.1875 5.25088V5.05088ZM43.5312 5.05088H16.1875V5.25088H43.5312V5.05088ZM44.013 4.85134C43.8852 4.9791 43.7119 5.05088 43.5312 5.05088V5.25088C43.765 5.25088 43.9891 5.15803 44.1544 4.99277L44.013 4.85134ZM44.2125 4.36963C44.2125 4.55031 44.1407 4.72359 44.013 4.85135L44.1544 4.99277C44.3197 4.8275 44.4125 4.60335 44.4125 4.36963H44.2125ZM44.013 3.88791C44.1407 4.01567 44.2125 4.18895 44.2125 4.36963H44.4125C44.4125 4.13591 44.3197 3.91176 44.1544 3.74649L44.013 3.88791ZM43.5312 3.68838C43.7119 3.68838 43.8852 3.76015 44.013 3.88791L44.1544 3.74649C43.9891 3.58122 43.765 3.48838 43.5312 3.48838V3.68838ZM38.8438 43.3321H37.2812V43.5321H38.8438V43.3321ZM39.4669 43.5902C39.3016 43.425 39.0775 43.3321 38.8438 43.3321V43.5321C39.0244 43.5321 39.1977 43.6039 39.3255 43.7317L39.4669 43.5902ZM39.725 44.2134C39.725 43.9797 39.6322 43.7555 39.4669 43.5902L39.3255 43.7317C39.4532 43.8594 39.525 44.0327 39.525 44.2134H39.725ZM39.4669 44.8365C39.6322 44.6712 39.725 44.4471 39.725 44.2134H39.525C39.525 44.3941 39.4532 44.5673 39.3255 44.6951L39.4669 44.8365ZM38.8438 45.0946C39.0775 45.0946 39.3016 45.0018 39.4669 44.8365L39.3255 44.6951C39.1977 44.8229 39.0244 44.8946 38.8438 44.8946V45.0946ZM37.2812 45.0946H38.8438V44.8946H37.2812V45.0946ZM36.6581 44.8365C36.8234 45.0018 37.0475 45.0946 37.2812 45.0946V44.8946C37.1006 44.8946 36.9273 44.8229 36.7995 44.6951L36.6581 44.8365ZM36.4 44.2134C36.4 44.4471 36.4928 44.6712 36.6581 44.8365L36.7995 44.6951C36.6718 44.5673 36.6 44.3941 36.6 44.2134H36.4ZM36.6581 43.5902C36.4928 43.7555 36.4 43.9797 36.4 44.2134H36.6C36.6 44.0327 36.6718 43.8594 36.7995 43.7317L36.6581 43.5902ZM37.2812 43.3321C37.0475 43.3321 36.8234 43.425 36.6581 43.5902L36.7995 43.7317C36.9273 43.6039 37.1006 43.5321 37.2812 43.5321V43.3321ZM37.2812 20.0946H38.8438V19.8946H37.2812V20.0946ZM36.7995 20.2942C36.9273 20.1664 37.1006 20.0946 37.2812 20.0946V19.8946C37.0475 19.8946 36.8234 19.9875 36.6581 20.1527L36.7995 20.2942ZM36.6 20.7759C36.6 20.5952 36.6718 20.4219 36.7995 20.2942L36.6581 20.1527C36.4928 20.318 36.4 20.5422 36.4 20.7759H36.6ZM36.7995 21.2576C36.6718 21.1298 36.6 20.9566 36.6 20.7759H36.4C36.4 21.0096 36.4928 21.2337 36.6581 21.399L36.7995 21.2576ZM37.2812 21.4571C37.1006 21.4571 36.9273 21.3854 36.7995 21.2576L36.6581 21.399C36.8234 21.5643 37.0475 21.6571 37.2812 21.6571V21.4571ZM38.8438 21.4571H37.2812V21.6571H38.8438V21.4571ZM39.3255 21.2576C39.1977 21.3854 39.0244 21.4571 38.8438 21.4571V21.6571C39.0775 21.6571 39.3016 21.5643 39.4669 21.399L39.3255 21.2576ZM39.525 20.7759C39.525 20.9566 39.4532 21.1298 39.3255 21.2576L39.4669 21.399C39.6322 21.2337 39.725 21.0096 39.725 20.7759H39.525ZM39.3255 20.2942C39.4532 20.4219 39.525 20.5952 39.525 20.7759H39.725C39.725 20.5422 39.6322 20.318 39.4669 20.1527L39.3255 20.2942ZM38.8438 20.0946C39.0244 20.0946 39.1977 20.1664 39.3255 20.2942L39.4669 20.1527C39.3016 19.9875 39.0775 19.8946 38.8438 19.8946V20.0946ZM35.5605 28.7466C35.3953 28.5814 35.1712 28.4885 34.9375 28.4885V28.6885C35.1181 28.6885 35.2914 28.7603 35.4191 28.888L35.5605 28.7466ZM35.8186 29.3696C35.8186 29.136 35.7258 28.9118 35.5606 28.7466L35.4191 28.888C35.5468 29.0157 35.6186 29.189 35.6186 29.3696H35.8186ZM35.5606 29.9927C35.7258 29.8274 35.8186 29.6033 35.8186 29.3696H35.6186C35.6186 29.5503 35.5468 29.7235 35.4191 29.8513L35.5606 29.9927ZM32.9879 32.5653L35.5606 29.9927L35.4191 29.8513L32.8465 32.4239L32.9879 32.5653ZM35.5606 34.9966L32.9879 32.4239L32.8465 32.5653L35.4191 35.138L35.5606 34.9966ZM35.8091 35.6177C35.8111 35.3866 35.7223 35.164 35.5618 34.9978L35.4179 35.1368C35.542 35.2652 35.6107 35.4373 35.6091 35.616L35.8091 35.6177ZM35.551 36.2332C35.7144 36.0698 35.8071 35.8487 35.8091 35.6177L35.6091 35.616C35.6076 35.7946 35.5359 35.9654 35.4096 36.0917L35.551 36.2332ZM34.9356 36.4912C35.1666 36.4892 35.3876 36.3966 35.551 36.2332L35.4096 36.0917C35.2833 36.2181 35.1124 36.2897 34.9338 36.2913L34.9356 36.4912ZM34.3157 36.2439C34.4819 36.4044 34.7045 36.4933 34.9356 36.4912L34.9338 36.2913C34.7552 36.2928 34.5831 36.2241 34.4546 36.1L34.3157 36.2439ZM31.1894 33.1177L34.3144 36.2427L34.4559 36.1013L31.3309 32.9763L31.1894 33.1177ZM30.9314 32.4946C30.9314 32.7283 31.0242 32.9524 31.1894 33.1177L31.3309 32.9763C31.2032 32.8485 31.1314 32.6753 31.1314 32.4946H30.9314ZM31.1894 31.8716C31.0242 32.0368 30.9314 32.261 30.9314 32.4946H31.1314C31.1314 32.314 31.2032 32.1407 31.3309 32.013L31.1894 31.8716ZM34.3144 28.7466L31.1894 31.8716L31.3309 32.013L34.4559 28.888L34.3144 28.7466ZM34.9375 28.4885C34.7038 28.4885 34.4797 28.5814 34.3145 28.7466L34.4559 28.888C34.5836 28.7603 34.7569 28.6885 34.9375 28.6885V28.4885ZM41.6691 28.888L44.7941 32.013L44.9356 31.8716L41.8106 28.7466L41.6691 28.888ZM41.1912 28.698C41.3698 28.6965 41.5419 28.7651 41.6704 28.8892L41.8093 28.7454C41.6431 28.5848 41.4205 28.496 41.1894 28.498L41.1912 28.698ZM40.7154 28.8975C40.8417 28.7712 41.0126 28.6996 41.1912 28.698L41.1894 28.498C40.9584 28.5 40.7374 28.5927 40.574 28.7561L40.7154 28.8975ZM40.5159 29.3733C40.5174 29.1947 40.5891 29.0238 40.7154 28.8975L40.574 28.7561C40.4106 28.9195 40.3179 29.1405 40.3159 29.3716L40.5159 29.3733ZM40.7071 29.8525C40.583 29.724 40.5143 29.5519 40.5159 29.3733L40.3159 29.3716C40.3139 29.6026 40.4027 29.8252 40.5632 29.9914L40.7071 29.8525ZM43.2785 32.4239L40.7059 29.8513L40.5644 29.9927L43.1371 32.5653L43.2785 32.4239ZM40.7059 35.138L43.2785 32.5653L43.1371 32.4239L40.5644 34.9966L40.7059 35.138ZM40.552 35.3603C40.5877 35.2772 40.6396 35.2021 40.7046 35.1392L40.5657 34.9954C40.4815 35.0766 40.4144 35.1739 40.3682 35.2814L40.552 35.3603ZM40.4967 35.6233C40.4975 35.5329 40.5163 35.4435 40.552 35.3603L40.3682 35.2814C40.322 35.3889 40.2977 35.5046 40.2967 35.6216L40.4967 35.6233ZM40.5474 35.8872C40.5131 35.8035 40.4959 35.7138 40.4967 35.6233L40.2967 35.6216C40.2957 35.7386 40.318 35.8546 40.3623 35.9629L40.5474 35.8872ZM40.6962 36.1109C40.6322 36.047 40.5816 35.9709 40.5474 35.8872L40.3623 35.9629C40.4066 36.0712 40.472 36.1696 40.5548 36.2524L40.6962 36.1109ZM40.9199 36.2598C40.8362 36.2255 40.7602 36.1749 40.6962 36.1109L40.5548 36.2524C40.6375 36.3351 40.7359 36.4005 40.8442 36.4449L40.9199 36.2598ZM41.1838 36.3105C41.0934 36.3112 41.0037 36.294 40.9199 36.2598L40.8442 36.4449C40.9525 36.4892 41.0685 36.5115 41.1856 36.5104L41.1838 36.3105ZM41.4468 36.2552C41.3637 36.2909 41.2743 36.3097 41.1838 36.3105L41.1856 36.5104C41.3026 36.5094 41.4182 36.4851 41.5257 36.4389L41.4468 36.2552ZM41.6679 36.1025C41.6051 36.1676 41.5299 36.2195 41.4468 36.2552L41.5257 36.4389C41.6332 36.3927 41.7305 36.3256 41.8118 36.2414L41.6679 36.1025ZM44.7941 32.9763L41.6691 36.1013L41.8106 36.2427L44.9356 33.1177L44.7941 32.9763ZM44.9936 32.4946C44.9936 32.6753 44.9218 32.8485 44.7941 32.9763L44.9356 33.1177C45.1008 32.9524 45.1936 32.7283 45.1936 32.4946H44.9936ZM44.7941 32.013C44.9218 32.1407 44.9936 32.314 44.9936 32.4946H45.1936C45.1936 32.261 45.1008 32.0368 44.9356 31.8716L44.7941 32.013ZM39.8665 26.1789C39.6419 26.1148 39.401 26.1424 39.1968 26.2558L39.2938 26.4306C39.4517 26.343 39.638 26.3216 39.8116 26.3713L39.8665 26.1789ZM40.3948 26.5982C40.2813 26.3939 40.0912 26.2431 39.8665 26.1789L39.8116 26.3713C39.9853 26.4209 40.1322 26.5374 40.22 26.6953L40.3948 26.5982ZM40.4719 27.2682C40.5361 27.0434 40.5083 26.8025 40.3948 26.5982L40.22 26.6954C40.3078 26.8533 40.3292 27.0396 40.2796 27.2133L40.4719 27.2682ZM37.3469 38.2057L40.4719 27.2682L40.2796 27.2133L37.1546 38.1507L37.3469 38.2057ZM37.0304 38.6669C37.1832 38.5516 37.2943 38.3897 37.3469 38.2057L37.1546 38.1507C37.1139 38.293 37.0281 38.4181 36.9099 38.5072L37.0304 38.6669ZM36.5 38.8446C36.6914 38.8445 36.8776 38.7822 37.0304 38.6669L36.9099 38.5072C36.7918 38.5963 36.6479 38.6446 36.5 38.6446L36.5 38.8446ZM36.2577 38.8101C36.3365 38.8332 36.4182 38.8449 36.5003 38.8446L36.4997 38.6446C36.4369 38.6448 36.3744 38.6359 36.3141 38.6182L36.2577 38.8101ZM35.9525 38.6535C36.0432 38.7253 36.1472 38.7787 36.2586 38.8103L36.3133 38.618C36.2272 38.5935 36.1468 38.5523 36.0767 38.4967L35.9525 38.6535ZM35.7298 38.3913C35.7861 38.4925 35.8617 38.5816 35.9525 38.6535L36.0767 38.4967C36.0065 38.4411 35.948 38.3723 35.9045 38.2941L35.7298 38.3913ZM35.6243 38.0639C35.6376 38.1789 35.6734 38.2902 35.7298 38.3913L35.9045 38.2941C35.861 38.2159 35.8333 38.1299 35.823 38.041L35.6243 38.0639ZM35.6523 37.7211C35.6205 37.8324 35.611 37.9489 35.6243 38.0639L35.823 38.041C35.8127 37.9521 35.8201 37.862 35.8446 37.776L35.6523 37.7211ZM38.7773 26.7836L35.6523 37.7211L35.8446 37.776L38.9696 26.8385L38.7773 26.7836ZM39.1968 26.2558C38.9925 26.3691 38.8417 26.5589 38.7773 26.7835L38.9696 26.8386C39.0193 26.665 39.136 26.5183 39.2938 26.4306L39.1968 26.2558Z" fill="url(#paint1_linear_47_80)"/>
<defs>
<linearGradient id="paint0_linear_47_80" x1="-4.80859" y1="23.9009" x2="52.792" y2="18.508" gradientUnits="userSpaceOnUse">
<stop stop-color="#443ED9"/>
<stop offset="1" stop-color="#F603C7"/>
</linearGradient>
<linearGradient id="paint1_linear_47_80" x1="-4.80859" y1="23.9009" x2="52.792" y2="18.508" gradientUnits="userSpaceOnUse">
<stop stop-color="#443ED9"/>
<stop offset="1" stop-color="#F603C7"/>
</linearGradient>
</defs>
</svg>
