<svg width="37" height="36" viewBox="0 0 37 36" fill="none" xmlns="http://www.w3.org/2000/svg">
<rect x="0.638702" y="0.480347" width="35.4491" height="35.4491" rx="8.86228" fill="#F0F4FF"/>
<path d="M16.2031 17.7433C17.2763 17.1895 17.8648 16.3932 17.8648 15.1816C17.8648 12.7237 16.03 12.1352 13.9529 12.1352H8.17166V24.3901H14.0914C16.3416 24.3901 18.4187 23.3169 18.4187 20.8244C18.4187 19.3012 17.6917 18.1588 16.2031 17.7433ZM10.8373 14.2123H13.399C14.3683 14.2123 15.2338 14.4892 15.2338 15.6316C15.2338 16.6702 14.5414 17.0856 13.5721 17.0856H10.8373V14.2123ZM13.7452 22.313H10.8373V18.9204H13.7798C14.9915 18.9204 15.7184 19.4396 15.7184 20.6859C15.7184 21.9322 14.8184 22.313 13.7452 22.313ZM26.1386 13.9699V12.7583H21.1881V13.9699H26.1386ZM28.1118 20.0974C28.1118 17.4664 26.554 15.2508 23.7845 15.2508C21.0497 15.2508 19.2149 17.2933 19.2149 19.9589C19.2149 22.7284 20.9804 24.6324 23.7845 24.6324C25.8962 24.6324 27.281 23.6631 27.9387 21.6552H25.7924C25.55 22.4168 24.5807 22.7976 23.8537 22.7976C22.4344 22.7976 21.6728 21.9668 21.6728 20.5474H28.0772C28.0772 20.409 28.1118 20.2359 28.1118 20.0974ZM21.6728 18.9896C21.742 17.8472 22.5383 17.1202 23.6807 17.1202C24.9269 17.1202 25.55 17.8126 25.6539 18.9896H21.6728Z" fill="#053EFF"/>
</svg>
