<svg width="37" height="36" viewBox="0 0 37 36" fill="none" xmlns="http://www.w3.org/2000/svg">
<rect x="0.782379" y="0.480347" width="35.4491" height="35.4491" rx="8.60293" fill="#FFEDF4"/>
<path d="M18.507 9.78114C13.7643 9.78114 9.92169 13.6584 9.92169 18.3665C9.92169 23.1092 13.7643 26.9518 18.507 26.9518C23.2151 26.9518 27.0924 23.1092 27.0924 18.3665C27.0924 13.6584 23.2151 9.78114 18.507 9.78114ZM24.1498 13.7622C25.1884 15.0085 25.8115 16.6009 25.8115 18.3319C25.5692 18.2626 23.1459 17.778 20.7226 18.0895C20.5149 17.6049 20.3418 17.1895 20.0648 16.6356C22.7997 15.5278 24.0113 13.9699 24.1498 13.7622ZM23.3536 12.8968C23.2151 13.1045 22.1073 14.5931 19.511 15.5624C18.2993 13.3468 16.9838 11.5467 16.7761 11.2697C19.0955 10.7158 21.5534 11.3043 23.3536 12.8968ZM15.3568 11.7544C15.5645 12.0313 16.88 13.8315 18.0916 16.0124C14.6644 16.9125 11.6526 16.9125 11.3064 16.8779C11.7911 14.6277 13.3143 12.7237 15.3568 11.7544ZM11.1679 18.4011C11.1679 18.3319 11.1679 18.2626 11.1679 18.1588C11.4795 18.1934 15.0452 18.228 18.6801 17.1202C18.9224 17.5356 19.0955 17.9511 19.3032 18.3665C16.6376 19.1281 14.2144 21.2744 13.0373 23.2823C11.8603 22.0014 11.1679 20.2705 11.1679 18.4011ZM13.972 24.1823C14.7683 22.6245 16.8453 20.582 19.7879 19.5781C20.8265 22.2437 21.2419 24.4939 21.3457 25.1517C18.9917 26.1556 16.153 25.8786 13.972 24.1823ZM22.592 24.4593C22.5227 24.0439 22.1073 21.8975 21.1726 19.2319C23.4574 18.8857 25.4653 19.4743 25.7422 19.5435C25.3961 21.586 24.219 23.3515 22.592 24.4593Z" fill="#EA4C89"/>
</svg>
