<svg width="37" height="36" viewBox="0 0 37 36" fill="none" xmlns="http://www.w3.org/2000/svg">
<rect x="0.926086" y="0.480347" width="35.4491" height="35.4491" rx="8.60293" fill="#E8F8FF"/>
<path d="M25.0759 10.612H11.7478C11.1593 10.612 10.6747 11.1312 10.6747 11.7544V25.0132C10.6747 25.6363 11.1593 26.121 11.7478 26.121H25.0759C25.6644 26.121 26.1836 25.6363 26.1836 25.0132V11.7544C26.1836 11.1312 25.6644 10.612 25.0759 10.612ZM15.3481 23.9054H13.0633V16.5317H15.3481V23.9054ZM14.2057 15.4932C13.4441 15.4932 12.8556 14.9046 12.8556 14.1777C12.8556 13.4507 13.4441 12.8275 14.2057 12.8275C14.9327 12.8275 15.5212 13.4507 15.5212 14.1777C15.5212 14.9046 14.9327 15.4932 14.2057 15.4932ZM23.9681 23.9054H21.6486V20.3051C21.6486 19.4743 21.6486 18.3665 20.4716 18.3665C19.26 18.3665 19.0869 19.3012 19.0869 20.2705V23.9054H16.8021V16.5317H18.983V17.5356H19.0177C19.3292 16.9471 20.0908 16.324 21.1986 16.324C23.518 16.324 23.9681 17.8818 23.9681 19.8551V23.9054Z" fill="#0E76A8"/>
</svg>
